%TF.GenerationSoftware,KiCad,Pcbnew,9.0.3*%
%TF.CreationDate,2025-12-07T00:49:16-08:00*%
%TF.ProjectId,pcb,7063622e-6b69-4636-9164-5f7063625858,rev?*%
%TF.SameCoordinates,Original*%
%TF.FileFunction,Legend,Bot*%
%TF.FilePolarity,Positive*%
%FSLAX46Y46*%
G04 Gerber Fmt 4.6, Leading zero omitted, Abs format (unit mm)*
G04 Created by KiCad (PCBNEW 9.0.3) date 2025-12-07 00:49:16*
%MOMM*%
%LPD*%
G01*
G04 APERTURE LIST*
%ADD10C,0.150000*%
%ADD11C,0.120000*%
G04 APERTURE END LIST*
D10*
X192003333Y-61139819D02*
X192003333Y-61854104D01*
X192003333Y-61854104D02*
X192050952Y-61996961D01*
X192050952Y-61996961D02*
X192146190Y-62092200D01*
X192146190Y-62092200D02*
X192289047Y-62139819D01*
X192289047Y-62139819D02*
X192384285Y-62139819D01*
X191574761Y-61235057D02*
X191527142Y-61187438D01*
X191527142Y-61187438D02*
X191431904Y-61139819D01*
X191431904Y-61139819D02*
X191193809Y-61139819D01*
X191193809Y-61139819D02*
X191098571Y-61187438D01*
X191098571Y-61187438D02*
X191050952Y-61235057D01*
X191050952Y-61235057D02*
X191003333Y-61330295D01*
X191003333Y-61330295D02*
X191003333Y-61425533D01*
X191003333Y-61425533D02*
X191050952Y-61568390D01*
X191050952Y-61568390D02*
X191622380Y-62139819D01*
X191622380Y-62139819D02*
X191003333Y-62139819D01*
X215053333Y-61379819D02*
X215053333Y-62094104D01*
X215053333Y-62094104D02*
X215100952Y-62236961D01*
X215100952Y-62236961D02*
X215196190Y-62332200D01*
X215196190Y-62332200D02*
X215339047Y-62379819D01*
X215339047Y-62379819D02*
X215434285Y-62379819D01*
X214672380Y-61379819D02*
X214053333Y-61379819D01*
X214053333Y-61379819D02*
X214386666Y-61760771D01*
X214386666Y-61760771D02*
X214243809Y-61760771D01*
X214243809Y-61760771D02*
X214148571Y-61808390D01*
X214148571Y-61808390D02*
X214100952Y-61856009D01*
X214100952Y-61856009D02*
X214053333Y-61951247D01*
X214053333Y-61951247D02*
X214053333Y-62189342D01*
X214053333Y-62189342D02*
X214100952Y-62284580D01*
X214100952Y-62284580D02*
X214148571Y-62332200D01*
X214148571Y-62332200D02*
X214243809Y-62379819D01*
X214243809Y-62379819D02*
X214529523Y-62379819D01*
X214529523Y-62379819D02*
X214624761Y-62332200D01*
X214624761Y-62332200D02*
X214672380Y-62284580D01*
X197679819Y-108341666D02*
X198394104Y-108341666D01*
X198394104Y-108341666D02*
X198536961Y-108294047D01*
X198536961Y-108294047D02*
X198632200Y-108198809D01*
X198632200Y-108198809D02*
X198679819Y-108055952D01*
X198679819Y-108055952D02*
X198679819Y-107960714D01*
X198013152Y-109246428D02*
X198679819Y-109246428D01*
X197632200Y-109008333D02*
X198346485Y-108770238D01*
X198346485Y-108770238D02*
X198346485Y-109389285D01*
D11*
%TO.C,J2*%
X192880000Y-61930000D02*
X192880000Y-110300000D01*
X195640000Y-110300000D02*
X192880000Y-110300000D01*
X195640000Y-61930000D02*
X192880000Y-61930000D01*
X195640000Y-61930000D02*
X195640000Y-110300000D01*
X195640000Y-60660000D02*
X195640000Y-59280000D01*
X195640000Y-59280000D02*
X194260000Y-59280000D01*
%TO.C,J3*%
X210655000Y-61925000D02*
X210655000Y-110295000D01*
X213415000Y-110295000D02*
X210655000Y-110295000D01*
X213415000Y-61925000D02*
X210655000Y-61925000D01*
X213415000Y-61925000D02*
X213415000Y-110295000D01*
X213415000Y-60655000D02*
X213415000Y-59275000D01*
X213415000Y-59275000D02*
X212035000Y-59275000D01*
%TO.C,J4*%
X207065000Y-107295000D02*
X207065000Y-110055000D01*
X201875000Y-107295000D02*
X207065000Y-107295000D01*
X201875000Y-107295000D02*
X201875000Y-110055000D01*
X201875000Y-110055000D02*
X207065000Y-110055000D01*
X200605000Y-107295001D02*
X199225000Y-107295000D01*
X199225000Y-107295000D02*
X199225001Y-108675000D01*
%TD*%
M02*
