%TF.GenerationSoftware,KiCad,Pcbnew,9.0.3*%
%TF.CreationDate,2025-12-07T00:49:16-08:00*%
%TF.ProjectId,pcb,7063622e-6b69-4636-9164-5f7063625858,rev?*%
%TF.SameCoordinates,Original*%
%TF.FileFunction,Legend,Top*%
%TF.FilePolarity,Positive*%
%FSLAX46Y46*%
G04 Gerber Fmt 4.6, Leading zero omitted, Abs format (unit mm)*
G04 Created by KiCad (PCBNEW 9.0.3) date 2025-12-07 00:49:16*
%MOMM*%
%LPD*%
G01*
G04 APERTURE LIST*
%ADD10C,0.150000*%
%ADD11C,0.120000*%
%ADD12C,0.200000*%
%ADD13C,0.127000*%
G04 APERTURE END LIST*
D10*
X202811666Y-66884819D02*
X202811666Y-67599104D01*
X202811666Y-67599104D02*
X202764047Y-67741961D01*
X202764047Y-67741961D02*
X202668809Y-67837200D01*
X202668809Y-67837200D02*
X202525952Y-67884819D01*
X202525952Y-67884819D02*
X202430714Y-67884819D01*
X203811666Y-67884819D02*
X203240238Y-67884819D01*
X203525952Y-67884819D02*
X203525952Y-66884819D01*
X203525952Y-66884819D02*
X203430714Y-67027676D01*
X203430714Y-67027676D02*
X203335476Y-67122914D01*
X203335476Y-67122914D02*
X203240238Y-67170533D01*
X207568095Y-88174819D02*
X207568095Y-88984342D01*
X207568095Y-88984342D02*
X207615714Y-89079580D01*
X207615714Y-89079580D02*
X207663333Y-89127200D01*
X207663333Y-89127200D02*
X207758571Y-89174819D01*
X207758571Y-89174819D02*
X207949047Y-89174819D01*
X207949047Y-89174819D02*
X208044285Y-89127200D01*
X208044285Y-89127200D02*
X208091904Y-89079580D01*
X208091904Y-89079580D02*
X208139523Y-88984342D01*
X208139523Y-88984342D02*
X208139523Y-88174819D01*
X209139523Y-89174819D02*
X208568095Y-89174819D01*
X208853809Y-89174819D02*
X208853809Y-88174819D01*
X208853809Y-88174819D02*
X208758571Y-88317676D01*
X208758571Y-88317676D02*
X208663333Y-88412914D01*
X208663333Y-88412914D02*
X208568095Y-88460533D01*
X196308095Y-82094819D02*
X196308095Y-82904342D01*
X196308095Y-82904342D02*
X196355714Y-82999580D01*
X196355714Y-82999580D02*
X196403333Y-83047200D01*
X196403333Y-83047200D02*
X196498571Y-83094819D01*
X196498571Y-83094819D02*
X196689047Y-83094819D01*
X196689047Y-83094819D02*
X196784285Y-83047200D01*
X196784285Y-83047200D02*
X196831904Y-82999580D01*
X196831904Y-82999580D02*
X196879523Y-82904342D01*
X196879523Y-82904342D02*
X196879523Y-82094819D01*
X197260476Y-82094819D02*
X197879523Y-82094819D01*
X197879523Y-82094819D02*
X197546190Y-82475771D01*
X197546190Y-82475771D02*
X197689047Y-82475771D01*
X197689047Y-82475771D02*
X197784285Y-82523390D01*
X197784285Y-82523390D02*
X197831904Y-82571009D01*
X197831904Y-82571009D02*
X197879523Y-82666247D01*
X197879523Y-82666247D02*
X197879523Y-82904342D01*
X197879523Y-82904342D02*
X197831904Y-82999580D01*
X197831904Y-82999580D02*
X197784285Y-83047200D01*
X197784285Y-83047200D02*
X197689047Y-83094819D01*
X197689047Y-83094819D02*
X197403333Y-83094819D01*
X197403333Y-83094819D02*
X197308095Y-83047200D01*
X197308095Y-83047200D02*
X197260476Y-82999580D01*
X197537318Y-101411904D02*
X198346841Y-101411904D01*
X198346841Y-101411904D02*
X198442079Y-101364285D01*
X198442079Y-101364285D02*
X198489699Y-101316666D01*
X198489699Y-101316666D02*
X198537318Y-101221428D01*
X198537318Y-101221428D02*
X198537318Y-101030952D01*
X198537318Y-101030952D02*
X198489699Y-100935714D01*
X198489699Y-100935714D02*
X198442079Y-100888095D01*
X198442079Y-100888095D02*
X198346841Y-100840476D01*
X198346841Y-100840476D02*
X197537318Y-100840476D01*
X197870651Y-99935714D02*
X198537318Y-99935714D01*
X197489699Y-100173809D02*
X198203984Y-100411904D01*
X198203984Y-100411904D02*
X198203984Y-99792857D01*
X199086667Y-75057200D02*
X199229524Y-75104819D01*
X199229524Y-75104819D02*
X199467619Y-75104819D01*
X199467619Y-75104819D02*
X199562857Y-75057200D01*
X199562857Y-75057200D02*
X199610476Y-75009580D01*
X199610476Y-75009580D02*
X199658095Y-74914342D01*
X199658095Y-74914342D02*
X199658095Y-74819104D01*
X199658095Y-74819104D02*
X199610476Y-74723866D01*
X199610476Y-74723866D02*
X199562857Y-74676247D01*
X199562857Y-74676247D02*
X199467619Y-74628628D01*
X199467619Y-74628628D02*
X199277143Y-74581009D01*
X199277143Y-74581009D02*
X199181905Y-74533390D01*
X199181905Y-74533390D02*
X199134286Y-74485771D01*
X199134286Y-74485771D02*
X199086667Y-74390533D01*
X199086667Y-74390533D02*
X199086667Y-74295295D01*
X199086667Y-74295295D02*
X199134286Y-74200057D01*
X199134286Y-74200057D02*
X199181905Y-74152438D01*
X199181905Y-74152438D02*
X199277143Y-74104819D01*
X199277143Y-74104819D02*
X199515238Y-74104819D01*
X199515238Y-74104819D02*
X199658095Y-74152438D01*
X199991429Y-74104819D02*
X200229524Y-75104819D01*
X200229524Y-75104819D02*
X200420000Y-74390533D01*
X200420000Y-74390533D02*
X200610476Y-75104819D01*
X200610476Y-75104819D02*
X200848572Y-74104819D01*
X201753333Y-75104819D02*
X201181905Y-75104819D01*
X201467619Y-75104819D02*
X201467619Y-74104819D01*
X201467619Y-74104819D02*
X201372381Y-74247676D01*
X201372381Y-74247676D02*
X201277143Y-74342914D01*
X201277143Y-74342914D02*
X201181905Y-74390533D01*
X198244819Y-70861904D02*
X199054342Y-70861904D01*
X199054342Y-70861904D02*
X199149580Y-70814285D01*
X199149580Y-70814285D02*
X199197200Y-70766666D01*
X199197200Y-70766666D02*
X199244819Y-70671428D01*
X199244819Y-70671428D02*
X199244819Y-70480952D01*
X199244819Y-70480952D02*
X199197200Y-70385714D01*
X199197200Y-70385714D02*
X199149580Y-70338095D01*
X199149580Y-70338095D02*
X199054342Y-70290476D01*
X199054342Y-70290476D02*
X198244819Y-70290476D01*
X198340057Y-69861904D02*
X198292438Y-69814285D01*
X198292438Y-69814285D02*
X198244819Y-69719047D01*
X198244819Y-69719047D02*
X198244819Y-69480952D01*
X198244819Y-69480952D02*
X198292438Y-69385714D01*
X198292438Y-69385714D02*
X198340057Y-69338095D01*
X198340057Y-69338095D02*
X198435295Y-69290476D01*
X198435295Y-69290476D02*
X198530533Y-69290476D01*
X198530533Y-69290476D02*
X198673390Y-69338095D01*
X198673390Y-69338095D02*
X199244819Y-69909523D01*
X199244819Y-69909523D02*
X199244819Y-69290476D01*
X204283809Y-98848628D02*
X204283809Y-99324819D01*
X203950476Y-98324819D02*
X204283809Y-98848628D01*
X204283809Y-98848628D02*
X204617142Y-98324819D01*
X205474285Y-99324819D02*
X204902857Y-99324819D01*
X205188571Y-99324819D02*
X205188571Y-98324819D01*
X205188571Y-98324819D02*
X205093333Y-98467676D01*
X205093333Y-98467676D02*
X204998095Y-98562914D01*
X204998095Y-98562914D02*
X204902857Y-98610533D01*
D11*
%TO.C,J1*%
X198445000Y-63685000D02*
X198445000Y-61685000D01*
X198445001Y-59785000D02*
X198445001Y-57885000D01*
X207844999Y-57885000D02*
X198445001Y-57885000D01*
X207844999Y-59785000D02*
X207844999Y-57885000D01*
X207845000Y-63685000D02*
X207845000Y-61685000D01*
%TO.C,R8*%
X201133641Y-98390000D02*
X200826359Y-98390000D01*
X201133641Y-99150000D02*
X200826359Y-99150000D01*
%TO.C,R9*%
X202640000Y-100343641D02*
X202640000Y-100036359D01*
X201880000Y-100343641D02*
X201880000Y-100036359D01*
%TO.C,U1*%
X199535000Y-85825000D02*
X199535000Y-85415000D01*
X199535000Y-92395000D02*
X199535000Y-91745000D01*
X200185000Y-85175000D02*
X199835000Y-85175000D01*
X200185000Y-92395000D02*
X199535000Y-92395000D01*
X206105000Y-85175000D02*
X206755000Y-85175000D01*
X206105000Y-92395000D02*
X206755000Y-92395000D01*
X206755000Y-85175000D02*
X206755000Y-85825000D01*
X206755000Y-92395000D02*
X206755000Y-91745000D01*
X199535000Y-85175000D02*
X199295000Y-84845000D01*
X199775000Y-84845000D01*
X199535000Y-85175000D01*
G36*
X199535000Y-85175000D02*
G01*
X199295000Y-84845000D01*
X199775000Y-84845000D01*
X199535000Y-85175000D01*
G37*
D12*
%TO.C,U3*%
X197940000Y-81640000D02*
G75*
G02*
X197740000Y-81640000I-100000J0D01*
G01*
X197740000Y-81640000D02*
G75*
G02*
X197940000Y-81640000I100000J0D01*
G01*
D13*
X199370000Y-81400000D02*
X199530000Y-81400000D01*
X200630000Y-81400000D02*
X200470000Y-81400000D01*
X200630000Y-83400000D02*
X200470000Y-83400000D01*
X199370000Y-83400000D02*
X199530000Y-83400000D01*
D11*
%TO.C,U4*%
X199222500Y-102160000D02*
X198942500Y-101880000D01*
X199222500Y-101880000D01*
X199222500Y-102160000D01*
G36*
X199222500Y-102160000D02*
G01*
X198942500Y-101880000D01*
X199222500Y-101880000D01*
X199222500Y-102160000D01*
G37*
X201542500Y-101650000D02*
X201542500Y-99650000D01*
X198922500Y-101650000D02*
X198922500Y-99650000D01*
%TO.C,R7*%
X199040000Y-80323641D02*
X199040000Y-80016359D01*
X198280000Y-80323641D02*
X198280000Y-80016359D01*
%TO.C,C13*%
X201310581Y-72850000D02*
X201029419Y-72850000D01*
X201310581Y-73870000D02*
X201029419Y-73870000D01*
%TO.C,C14*%
X199150581Y-67420000D02*
X198869419Y-67420000D01*
X199150581Y-68440000D02*
X198869419Y-68440000D01*
%TO.C,R3*%
X204225000Y-83193859D02*
X204225000Y-83501141D01*
X203465000Y-83193859D02*
X203465000Y-83501141D01*
%TO.C,R5*%
X204623641Y-94460000D02*
X204316359Y-94460000D01*
X204623641Y-93700000D02*
X204316359Y-93700000D01*
%TO.C,R2*%
X201663641Y-67240000D02*
X201356359Y-67240000D01*
X201663641Y-68000000D02*
X201356359Y-68000000D01*
%TO.C,SW1*%
X202490000Y-78470000D02*
X198350000Y-78470000D01*
X202490000Y-78170000D02*
X202490000Y-78470000D01*
X202490000Y-75330000D02*
X202490000Y-75630000D01*
X198350000Y-78470000D02*
X198350000Y-78170000D01*
X198350000Y-75630000D02*
X198350000Y-75330000D01*
X198350000Y-75330000D02*
X202490000Y-75330000D01*
%TO.C,R1*%
X206376359Y-68040000D02*
X206683641Y-68040000D01*
X206376359Y-67280000D02*
X206683641Y-67280000D01*
%TO.C,R6*%
X200913641Y-80820000D02*
X200606359Y-80820000D01*
X200913641Y-80060000D02*
X200606359Y-80060000D01*
%TO.C,U2*%
X199680000Y-71262500D02*
X199350000Y-71502500D01*
X199350001Y-71022500D01*
X199680000Y-71262500D01*
G36*
X199680000Y-71262500D02*
G01*
X199350000Y-71502500D01*
X199350001Y-71022500D01*
X199680000Y-71262500D01*
G37*
X202750001Y-70100000D02*
X202750000Y-69450000D01*
X202750001Y-70100000D02*
X202750000Y-70750000D01*
X199629999Y-70100000D02*
X199630000Y-69450000D01*
X199629999Y-70100000D02*
X199630000Y-70750000D01*
%TO.C,R4*%
X204465000Y-83193859D02*
X204465000Y-83501141D01*
X205225000Y-83193859D02*
X205225000Y-83501141D01*
%TO.C,Y1*%
X205350000Y-98090001D02*
X205350000Y-94669999D01*
X205350000Y-94669999D02*
X201230000Y-94669999D01*
%TD*%
M02*
