%TF.GenerationSoftware,KiCad,Pcbnew,9.0.3*%
%TF.CreationDate,2025-12-07T00:49:17-08:00*%
%TF.ProjectId,pcb,7063622e-6b69-4636-9164-5f7063625858,rev?*%
%TF.SameCoordinates,Original*%
%TF.FileFunction,Soldermask,Top*%
%TF.FilePolarity,Negative*%
%FSLAX46Y46*%
G04 Gerber Fmt 4.6, Leading zero omitted, Abs format (unit mm)*
G04 Created by KiCad (PCBNEW 9.0.3) date 2025-12-07 00:49:17*
%MOMM*%
%LPD*%
G01*
G04 APERTURE LIST*
G04 Aperture macros list*
%AMRoundRect*
0 Rectangle with rounded corners*
0 $1 Rounding radius*
0 $2 $3 $4 $5 $6 $7 $8 $9 X,Y pos of 4 corners*
0 Add a 4 corners polygon primitive as box body*
4,1,4,$2,$3,$4,$5,$6,$7,$8,$9,$2,$3,0*
0 Add four circle primitives for the rounded corners*
1,1,$1+$1,$2,$3*
1,1,$1+$1,$4,$5*
1,1,$1+$1,$6,$7*
1,1,$1+$1,$8,$9*
0 Add four rect primitives between the rounded corners*
20,1,$1+$1,$2,$3,$4,$5,0*
20,1,$1+$1,$4,$5,$6,$7,0*
20,1,$1+$1,$6,$7,$8,$9,0*
20,1,$1+$1,$8,$9,$2,$3,0*%
G04 Aperture macros list end*
%ADD10RoundRect,0.075000X-0.075000X0.125000X-0.075000X-0.125000X0.075000X-0.125000X0.075000X0.125000X0*%
%ADD11RoundRect,0.075000X-0.125000X-0.075000X0.125000X-0.075000X0.125000X0.075000X-0.125000X0.075000X0*%
%ADD12RoundRect,0.075000X0.075000X-0.125000X0.075000X0.125000X-0.075000X0.125000X-0.075000X-0.125000X0*%
%ADD13RoundRect,0.075000X-0.035355X-0.141421X0.141421X0.035355X0.035355X0.141421X-0.141421X-0.035355X0*%
%ADD14RoundRect,0.075000X0.125000X0.075000X-0.125000X0.075000X-0.125000X-0.075000X0.125000X-0.075000X0*%
%ADD15C,0.650000*%
%ADD16R,0.600000X1.450000*%
%ADD17R,0.300000X1.450000*%
%ADD18O,1.000000X2.100000*%
%ADD19O,1.000000X1.600000*%
%ADD20RoundRect,0.135000X0.135000X0.185000X-0.135000X0.185000X-0.135000X-0.185000X0.135000X-0.185000X0*%
%ADD21RoundRect,0.135000X0.185000X-0.135000X0.185000X0.135000X-0.185000X0.135000X-0.185000X-0.135000X0*%
%ADD22RoundRect,0.050000X-0.387500X-0.050000X0.387500X-0.050000X0.387500X0.050000X-0.387500X0.050000X0*%
%ADD23RoundRect,0.050000X-0.050000X-0.387500X0.050000X-0.387500X0.050000X0.387500X-0.050000X0.387500X0*%
%ADD24R,3.200000X3.200000*%
%ADD25RoundRect,0.075000X-0.300000X-0.150000X0.300000X-0.150000X0.300000X0.150000X-0.300000X0.150000X0*%
%ADD26RoundRect,0.102000X-0.300000X-0.150000X0.300000X-0.150000X0.300000X0.150000X-0.300000X0.150000X0*%
%ADD27RoundRect,0.102000X-0.150000X-0.850000X0.150000X-0.850000X0.150000X0.850000X-0.150000X0.850000X0*%
%ADD28RoundRect,0.100000X0.100000X-0.337500X0.100000X0.337500X-0.100000X0.337500X-0.100000X-0.337500X0*%
%ADD29C,1.700000*%
%ADD30R,1.700000X1.700000*%
%ADD31RoundRect,0.225000X0.225000X0.250000X-0.225000X0.250000X-0.225000X-0.250000X0.225000X-0.250000X0*%
%ADD32RoundRect,0.135000X-0.185000X0.135000X-0.185000X-0.135000X0.185000X-0.135000X0.185000X0.135000X0*%
%ADD33RoundRect,0.200000X-0.200000X-0.800000X0.200000X-0.800000X0.200000X0.800000X-0.200000X0.800000X0*%
%ADD34RoundRect,0.135000X-0.135000X-0.185000X0.135000X-0.185000X0.135000X0.185000X-0.135000X0.185000X0*%
%ADD35RoundRect,0.150000X0.150000X-0.587500X0.150000X0.587500X-0.150000X0.587500X-0.150000X-0.587500X0*%
%ADD36RoundRect,0.250000X0.450000X0.350000X-0.450000X0.350000X-0.450000X-0.350000X0.450000X-0.350000X0*%
G04 APERTURE END LIST*
D10*
%TO.C,C1*%
X205780000Y-94770000D03*
X205780000Y-95270000D03*
%TD*%
D11*
%TO.C,C2*%
X209060000Y-90150000D03*
X208560000Y-90150000D03*
%TD*%
D12*
%TO.C,C3*%
X203900000Y-80950000D03*
X203900000Y-81450000D03*
%TD*%
%TO.C,C4*%
X203200000Y-81190000D03*
X203200000Y-80690000D03*
%TD*%
D13*
%TO.C,C5*%
X206995528Y-84165994D03*
X206641974Y-84519548D03*
%TD*%
D11*
%TO.C,C6*%
X208250000Y-86190000D03*
X207750000Y-86190000D03*
%TD*%
D14*
%TO.C,C7*%
X197950000Y-89680000D03*
X198450000Y-89680000D03*
%TD*%
D12*
%TO.C,C8*%
X207630000Y-85244999D03*
X207630000Y-84744999D03*
%TD*%
%TO.C,C9*%
X199010000Y-84920000D03*
X199010000Y-85420000D03*
%TD*%
D10*
%TO.C,C10*%
X206450000Y-94770000D03*
X206450000Y-95270000D03*
%TD*%
D12*
%TO.C,C11*%
X202230000Y-81770000D03*
X202230000Y-81270000D03*
%TD*%
%TO.C,C12*%
X206020000Y-84000000D03*
X206020000Y-83500000D03*
%TD*%
D10*
%TO.C,C15*%
X200810000Y-96710000D03*
X200810000Y-96210000D03*
%TD*%
D12*
%TO.C,C16*%
X206260000Y-96330000D03*
X206260000Y-96830000D03*
%TD*%
%TO.C,C17*%
X202400000Y-80400000D03*
X202400000Y-79900000D03*
%TD*%
D11*
%TO.C,C18*%
X199630000Y-98940000D03*
X199130000Y-98940000D03*
%TD*%
D15*
%TO.C,J1*%
X206035000Y-64385000D03*
X200255000Y-64385000D03*
D16*
X206395000Y-65830000D03*
X205595001Y-65830000D03*
D17*
X204395000Y-65829999D03*
X203395000Y-65830000D03*
X202895000Y-65830000D03*
X201895000Y-65829999D03*
D16*
X200694999Y-65830000D03*
X199895000Y-65830000D03*
X199895000Y-65830000D03*
X200694999Y-65830000D03*
D17*
X201395000Y-65830000D03*
X202395000Y-65830000D03*
X203895000Y-65830000D03*
X204895000Y-65830000D03*
D16*
X205595001Y-65830000D03*
X206395000Y-65830000D03*
D18*
X207465000Y-64915000D03*
D19*
X207465000Y-60735000D03*
D18*
X198825000Y-64915000D03*
D19*
X198825000Y-60735000D03*
%TD*%
D20*
%TO.C,R8*%
X200470001Y-98770000D03*
X201489999Y-98770000D03*
%TD*%
D21*
%TO.C,R9*%
X202260000Y-99680001D03*
X202260000Y-100699999D03*
%TD*%
D22*
%TO.C,U1*%
X199707500Y-86185000D03*
X199707500Y-86585000D03*
X199707500Y-86985000D03*
X199707500Y-87385000D03*
X199707500Y-87785000D03*
X199707500Y-88185000D03*
X199707500Y-88585000D03*
X199707500Y-88985000D03*
X199707500Y-89385000D03*
X199707500Y-89785000D03*
X199707500Y-90185000D03*
X199707500Y-90585000D03*
X199707500Y-90985000D03*
X199707500Y-91385000D03*
D23*
X200545000Y-92222500D03*
X200945000Y-92222500D03*
X201345000Y-92222500D03*
X201745000Y-92222500D03*
X202145000Y-92222500D03*
X202545000Y-92222500D03*
X202945000Y-92222500D03*
X203345000Y-92222500D03*
X203745000Y-92222500D03*
X204145000Y-92222500D03*
X204545000Y-92222500D03*
X204945000Y-92222500D03*
X205345000Y-92222500D03*
X205745000Y-92222500D03*
D22*
X206582500Y-91385000D03*
X206582500Y-90985000D03*
X206582500Y-90585000D03*
X206582500Y-90185000D03*
X206582500Y-89785000D03*
X206582500Y-89385000D03*
X206582500Y-88985000D03*
X206582500Y-88585000D03*
X206582500Y-88185000D03*
X206582500Y-87785000D03*
X206582500Y-87385000D03*
X206582500Y-86985000D03*
X206582500Y-86585000D03*
X206582500Y-86185000D03*
D23*
X205745000Y-85347500D03*
X205345000Y-85347500D03*
X204945000Y-85347500D03*
X204545000Y-85347500D03*
X204145000Y-85347500D03*
X203745000Y-85347500D03*
X203345000Y-85347500D03*
X202945000Y-85347500D03*
X202545000Y-85347500D03*
X202145000Y-85347500D03*
X201745000Y-85347500D03*
X201345000Y-85347500D03*
X200945000Y-85347500D03*
X200545000Y-85347500D03*
D24*
X203145000Y-88785000D03*
%TD*%
D25*
%TO.C,U3*%
X198750000Y-83150000D03*
X198750000Y-82650000D03*
X198750000Y-82150000D03*
X198750000Y-81650000D03*
D26*
X201250000Y-81650000D03*
D25*
X201250000Y-82150000D03*
X201250000Y-82650000D03*
X201250000Y-83150000D03*
D27*
X200000000Y-82400000D03*
%TD*%
D28*
%TO.C,U4*%
X199582500Y-100012500D03*
X200232500Y-100012499D03*
X200882500Y-100012500D03*
X200882500Y-101287500D03*
X200232500Y-101287501D03*
X199582500Y-101287500D03*
%TD*%
D29*
%TO.C,J2*%
X194260000Y-108920000D03*
X194260000Y-106380000D03*
X194260000Y-103840000D03*
X194260000Y-101300000D03*
X194260000Y-98760000D03*
X194260000Y-96220000D03*
X194260000Y-93680000D03*
X194260000Y-91140000D03*
X194260000Y-88600000D03*
X194260000Y-86060000D03*
X194260000Y-83520000D03*
X194260000Y-80980000D03*
X194260000Y-78440000D03*
X194260000Y-75900000D03*
X194260000Y-73360000D03*
X194260000Y-70820000D03*
X194260000Y-68280000D03*
X194260000Y-65740000D03*
X194260000Y-63200000D03*
D30*
X194260000Y-60660000D03*
%TD*%
D29*
%TO.C,J3*%
X212035000Y-108915000D03*
X212035000Y-106375000D03*
X212035000Y-103835000D03*
X212035000Y-101295000D03*
X212035000Y-98755000D03*
X212035000Y-96215000D03*
X212035000Y-93675000D03*
X212035000Y-91135000D03*
X212035000Y-88595000D03*
X212035000Y-86055000D03*
X212035000Y-83515000D03*
X212035000Y-80975000D03*
X212035000Y-78435000D03*
X212035000Y-75895000D03*
X212035000Y-73355000D03*
X212035000Y-70815000D03*
X212035000Y-68275000D03*
X212035000Y-65735000D03*
X212035000Y-63195000D03*
D30*
X212035000Y-60655000D03*
%TD*%
D29*
%TO.C,J4*%
X205684999Y-108675000D03*
X203145000Y-108675000D03*
D30*
X200605000Y-108675000D03*
%TD*%
D21*
%TO.C,R7*%
X198660000Y-79660001D03*
X198660000Y-80679999D03*
%TD*%
D31*
%TO.C,C13*%
X200395000Y-73360000D03*
X201945000Y-73360000D03*
%TD*%
%TO.C,C14*%
X198235000Y-67930000D03*
X199785000Y-67930000D03*
%TD*%
D32*
%TO.C,R3*%
X203845000Y-82837501D03*
X203845000Y-83857499D03*
%TD*%
D20*
%TO.C,R5*%
X204979999Y-94080000D03*
X203960001Y-94080000D03*
%TD*%
%TO.C,R2*%
X201000001Y-67620000D03*
X202019999Y-67620000D03*
%TD*%
D33*
%TO.C,SW1*%
X202520000Y-76900000D03*
X198320000Y-76900000D03*
%TD*%
D34*
%TO.C,R1*%
X207040000Y-67660000D03*
X206020000Y-67660000D03*
%TD*%
D20*
%TO.C,R6*%
X201269999Y-80440000D03*
X200250001Y-80440000D03*
%TD*%
D35*
%TO.C,U2*%
X201190000Y-69162499D03*
X202140000Y-71037500D03*
X200240000Y-71037500D03*
%TD*%
D32*
%TO.C,R4*%
X204845000Y-83857499D03*
X204845000Y-82837501D03*
%TD*%
D36*
%TO.C,Y1*%
X204390000Y-95530000D03*
X202190000Y-95530000D03*
X202190000Y-97230000D03*
X204390000Y-97230000D03*
%TD*%
M02*
