%TF.GenerationSoftware,KiCad,Pcbnew,9.0.3*%
%TF.CreationDate,2025-12-07T00:49:16-08:00*%
%TF.ProjectId,pcb,7063622e-6b69-4636-9164-5f7063625858,rev?*%
%TF.SameCoordinates,Original*%
%TF.FileFunction,Copper,L2,Bot*%
%TF.FilePolarity,Positive*%
%FSLAX46Y46*%
G04 Gerber Fmt 4.6, Leading zero omitted, Abs format (unit mm)*
G04 Created by KiCad (PCBNEW 9.0.3) date 2025-12-07 00:49:16*
%MOMM*%
%LPD*%
G01*
G04 APERTURE LIST*
%TA.AperFunction,HeatsinkPad*%
%ADD10O,1.000000X2.100000*%
%TD*%
%TA.AperFunction,HeatsinkPad*%
%ADD11O,1.000000X1.600000*%
%TD*%
%TA.AperFunction,ComponentPad*%
%ADD12C,1.700000*%
%TD*%
%TA.AperFunction,ComponentPad*%
%ADD13R,1.700000X1.700000*%
%TD*%
%TA.AperFunction,ViaPad*%
%ADD14C,0.600000*%
%TD*%
%TA.AperFunction,Conductor*%
%ADD15C,0.200000*%
%TD*%
G04 APERTURE END LIST*
D10*
%TO.P,J1,S1,SHIELD*%
%TO.N,GND*%
X207465000Y-64915000D03*
D11*
X207465000Y-60735000D03*
D10*
X198825000Y-64915000D03*
D11*
X198825000Y-60735000D03*
%TD*%
D12*
%TO.P,J2,20,Pin_20*%
%TO.N,GPIO15*%
X194260000Y-108920000D03*
%TO.P,J2,19,Pin_19*%
%TO.N,GPIO14*%
X194260000Y-106380000D03*
%TO.P,J2,18,Pin_18*%
%TO.N,GND*%
X194260000Y-103840000D03*
%TO.P,J2,17,Pin_17*%
%TO.N,GPIO13*%
X194260000Y-101300000D03*
%TO.P,J2,16,Pin_16*%
%TO.N,GPIO12*%
X194260000Y-98760000D03*
%TO.P,J2,15,Pin_15*%
%TO.N,GPIO11*%
X194260000Y-96220000D03*
%TO.P,J2,14,Pin_14*%
%TO.N,GPIO10*%
X194260000Y-93680000D03*
%TO.P,J2,13,Pin_13*%
%TO.N,GND*%
X194260000Y-91140000D03*
%TO.P,J2,12,Pin_12*%
%TO.N,GPIO9*%
X194260000Y-88600000D03*
%TO.P,J2,11,Pin_11*%
%TO.N,GPIO8*%
X194260000Y-86060000D03*
%TO.P,J2,10,Pin_10*%
%TO.N,GPIO7*%
X194260000Y-83520000D03*
%TO.P,J2,9,Pin_9*%
%TO.N,GPIO6*%
X194260000Y-80980000D03*
%TO.P,J2,8,Pin_8*%
%TO.N,GND*%
X194260000Y-78440000D03*
%TO.P,J2,7,Pin_7*%
%TO.N,GPIO5*%
X194260000Y-75900000D03*
%TO.P,J2,6,Pin_6*%
%TO.N,GPIO4*%
X194260000Y-73360000D03*
%TO.P,J2,5,Pin_5*%
%TO.N,GPIO3*%
X194260000Y-70820000D03*
%TO.P,J2,4,Pin_4*%
%TO.N,GPIO2*%
X194260000Y-68280000D03*
%TO.P,J2,3,Pin_3*%
%TO.N,GND*%
X194260000Y-65740000D03*
%TO.P,J2,2,Pin_2*%
%TO.N,GPIO1*%
X194260000Y-63200000D03*
D13*
%TO.P,J2,1,Pin_1*%
%TO.N,GPIO0*%
X194260000Y-60660000D03*
%TD*%
D12*
%TO.P,J3,20,Pin_20*%
%TO.N,GPIO16*%
X212035000Y-108915000D03*
%TO.P,J3,19,Pin_19*%
%TO.N,GPIO17*%
X212035000Y-106375000D03*
%TO.P,J3,18,Pin_18*%
%TO.N,GND*%
X212035000Y-103835000D03*
%TO.P,J3,17,Pin_17*%
%TO.N,GPIO18*%
X212035000Y-101295000D03*
%TO.P,J3,16,Pin_16*%
%TO.N,GPIO19*%
X212035000Y-98755000D03*
%TO.P,J3,15,Pin_15*%
%TO.N,GPIO20*%
X212035000Y-96215000D03*
%TO.P,J3,14,Pin_14*%
%TO.N,GPIO21*%
X212035000Y-93675000D03*
%TO.P,J3,13,Pin_13*%
%TO.N,GND*%
X212035000Y-91135000D03*
%TO.P,J3,12,Pin_12*%
%TO.N,GPIO22*%
X212035000Y-88595000D03*
%TO.P,J3,11,Pin_11*%
%TO.N,RUN*%
X212035000Y-86055000D03*
%TO.P,J3,10,Pin_10*%
%TO.N,GPIO23*%
X212035000Y-83515000D03*
%TO.P,J3,9,Pin_9*%
%TO.N,GPIO24*%
X212035000Y-80975000D03*
%TO.P,J3,8,Pin_8*%
%TO.N,GND*%
X212035000Y-78435000D03*
%TO.P,J3,7,Pin_7*%
%TO.N,GPIO25*%
X212035000Y-75895000D03*
%TO.P,J3,6,Pin_6*%
%TO.N,GPIO26_ADC0*%
X212035000Y-73355000D03*
%TO.P,J3,5,Pin_5*%
%TO.N,+3V3*%
X212035000Y-70815000D03*
%TO.P,J3,4,Pin_4*%
%TO.N,GPIO27_ADC1*%
X212035000Y-68275000D03*
%TO.P,J3,3,Pin_3*%
%TO.N,GND*%
X212035000Y-65735000D03*
%TO.P,J3,2,Pin_2*%
%TO.N,GPIO28_ADC2*%
X212035000Y-63195000D03*
D13*
%TO.P,J3,1,Pin_1*%
%TO.N,VBUS*%
X212035000Y-60655000D03*
%TD*%
D12*
%TO.P,J4,3,Pin_3*%
%TO.N,SWD*%
X205684999Y-108675000D03*
%TO.P,J4,2,Pin_2*%
%TO.N,GND*%
X203145000Y-108675000D03*
D13*
%TO.P,J4,1,Pin_1*%
%TO.N,SWCLK*%
X200605000Y-108675000D03*
%TD*%
D14*
%TO.N,*%
X201737950Y-90785002D03*
X205145002Y-89050000D03*
X205145002Y-88010000D03*
X205111583Y-87024943D03*
X203930000Y-86680000D03*
X199140000Y-73170000D03*
X199020000Y-71430000D03*
X199060000Y-69450000D03*
X203430000Y-70050000D03*
X203960000Y-72300000D03*
X207640000Y-81350000D03*
X203380000Y-101450000D03*
X205930000Y-100660000D03*
%TO.N,GND*%
X196340000Y-91085000D03*
X198510000Y-85080000D03*
%TO.N,GPIO7*%
X200737950Y-88860000D03*
%TO.N,GPIO1*%
X197520000Y-85600147D03*
%TO.N,+3V3*%
X205851446Y-93508554D03*
X206927000Y-93940000D03*
X203630000Y-99500000D03*
X202521446Y-99240000D03*
%TO.N,GPIO10*%
X195740000Y-93850000D03*
X197960000Y-98790000D03*
X200178554Y-98250000D03*
X199010702Y-97922191D03*
%TO.N,GPIO11*%
X197670000Y-102120000D03*
X198410000Y-101380000D03*
%TO.N,GND*%
X199370000Y-102800000D03*
%TO.N,GPIO12*%
X195176446Y-99676446D03*
X197601000Y-101290000D03*
%TO.N,GPIO11*%
X195280000Y-97590000D03*
X197650000Y-99960000D03*
%TO.N,GND*%
X202930000Y-98240000D03*
X201660000Y-94750000D03*
X205710000Y-97670000D03*
%TO.N,+3V3*%
X202972365Y-81837635D03*
%TO.N,+1V1*%
X201037370Y-86283597D03*
X203600000Y-98740000D03*
%TO.N,GND*%
X195212000Y-77739265D03*
X202340000Y-94290000D03*
X195810000Y-68981473D03*
%TO.N,+3V3*%
X203545000Y-84617064D03*
X206809265Y-83459265D03*
%TO.N,GND*%
X207860000Y-83300000D03*
%TO.N,RUN*%
X205341412Y-90535982D03*
%TO.N,+3V3*%
X209869000Y-72980000D03*
%TO.N,GND*%
X196580000Y-89100000D03*
X210000000Y-90300000D03*
X203140000Y-88790000D03*
X203550000Y-79000000D03*
%TO.N,SWD*%
X204200000Y-106550000D03*
X204300000Y-90885002D03*
%TO.N,GPIO16*%
X207427000Y-100380000D03*
X205599111Y-91293343D03*
%TO.N,GND*%
X199340000Y-83400000D03*
%TO.N,SWCLK*%
X200840000Y-95190000D03*
%TO.N,GPIO0*%
X197620000Y-84535627D03*
%TO.N,SWCLK*%
X203420000Y-90920000D03*
%TO.N,GPIO0*%
X197010000Y-67493142D03*
%TO.N,GPIO7*%
X194811000Y-84760000D03*
%TO.N,GND*%
X201310000Y-79511000D03*
%TO.N,GPIO1*%
X196410000Y-68030000D03*
%TO.N,+3V3*%
X204950000Y-78900000D03*
%TO.N,GND*%
X198110000Y-66570000D03*
X202410000Y-68400000D03*
%TO.N,+1V1*%
X205209000Y-81043435D03*
X206209780Y-82321250D03*
%TO.N,GND*%
X199945000Y-85020000D03*
%TD*%
D15*
%TO.N,GND*%
X196580000Y-90845000D02*
X196580000Y-89100000D01*
X196340000Y-91085000D02*
X196580000Y-90845000D01*
%TO.N,GPIO7*%
X196370000Y-91840000D02*
X195311000Y-90781000D01*
X195311000Y-90781000D02*
X195311000Y-85260000D01*
X200737950Y-89292050D02*
X198190000Y-91840000D01*
X195311000Y-85260000D02*
X194811000Y-84760000D01*
X200737950Y-88860000D02*
X200737950Y-89292050D01*
X198190000Y-91840000D02*
X196370000Y-91840000D01*
%TO.N,GND*%
X198510000Y-86100000D02*
X198510000Y-85080000D01*
X196580000Y-88030000D02*
X198510000Y-86100000D01*
X196580000Y-89100000D02*
X196580000Y-88030000D01*
%TO.N,GPIO1*%
X197519853Y-85600147D02*
X196410000Y-84490294D01*
X197520000Y-85600147D02*
X197519853Y-85600147D01*
X196410000Y-84490294D02*
X196410000Y-68030000D01*
%TO.N,+3V3*%
X203370000Y-99240000D02*
X203630000Y-99500000D01*
X202521446Y-99240000D02*
X203370000Y-99240000D01*
X205851446Y-93508554D02*
X206495554Y-93508554D01*
X206495554Y-93508554D02*
X206927000Y-93940000D01*
%TO.N,GPIO16*%
X205962152Y-91293343D02*
X205599111Y-91293343D01*
X207427000Y-92758191D02*
X205962152Y-91293343D01*
X207427000Y-100380000D02*
X207427000Y-92758191D01*
%TO.N,GPIO10*%
X197960000Y-98790000D02*
X197960000Y-96070000D01*
X197960000Y-96070000D02*
X195740000Y-93850000D01*
X200178554Y-98250000D02*
X199850745Y-97922191D01*
X199850745Y-97922191D02*
X199010702Y-97922191D01*
%TO.N,+1V1*%
X200239000Y-92953900D02*
X200239000Y-97429000D01*
X200239000Y-97429000D02*
X201550000Y-98740000D01*
X201237950Y-91954950D02*
X200239000Y-92953900D01*
X201550000Y-98740000D02*
X203600000Y-98740000D01*
X201237950Y-88591768D02*
X201237950Y-91954950D01*
X200885893Y-86435073D02*
X200885893Y-88239711D01*
X200885893Y-88239711D02*
X201237950Y-88591768D01*
X201037370Y-86283597D02*
X200885893Y-86435073D01*
%TO.N,GPIO11*%
X198410000Y-101380000D02*
X197670000Y-102120000D01*
%TO.N,GND*%
X199370000Y-102800000D02*
X195300000Y-102800000D01*
X195300000Y-102800000D02*
X194260000Y-103840000D01*
%TO.N,GPIO11*%
X197650000Y-99960000D02*
X195280000Y-97590000D01*
%TO.N,GND*%
X202932656Y-98240000D02*
X202930000Y-98240000D01*
X201341000Y-95009000D02*
X201600000Y-94750000D01*
X201341000Y-98101000D02*
X201341000Y-95009000D01*
X201480000Y-98240000D02*
X201341000Y-98101000D01*
X202932656Y-98240000D02*
X201480000Y-98240000D01*
X201600000Y-94750000D02*
X201660000Y-94750000D01*
%TO.N,+3V3*%
X204310000Y-81270000D02*
X206499265Y-83459265D01*
X204310000Y-79540000D02*
X204310000Y-81270000D01*
X206499265Y-83459265D02*
X206809265Y-83459265D01*
X204950000Y-78900000D02*
X204310000Y-79540000D01*
X209869000Y-72980000D02*
X207140000Y-75709000D01*
%TO.N,GND*%
X195810000Y-77141265D02*
X195810000Y-68981473D01*
X195212000Y-77739265D02*
X195810000Y-77141265D01*
X200230000Y-84735000D02*
X200230000Y-84290000D01*
X200230000Y-84290000D02*
X199340000Y-83400000D01*
X199945000Y-85020000D02*
X200230000Y-84735000D01*
%TO.N,SWD*%
X204200000Y-91443182D02*
X204200000Y-106550000D01*
%TO.N,SWCLK*%
X200840000Y-92920000D02*
X200840000Y-95190000D01*
%TO.N,SWD*%
X204300248Y-91342934D02*
X204200000Y-91443182D01*
X204300248Y-90885250D02*
X204300248Y-91342934D01*
%TO.N,SWCLK*%
X202840000Y-90920000D02*
X200840000Y-92920000D01*
X203420000Y-90920000D02*
X202840000Y-90920000D01*
%TO.N,SWD*%
X204300000Y-90885002D02*
X204300248Y-90885250D01*
%TO.N,+3V3*%
X207140000Y-75709000D02*
X207140000Y-83128530D01*
X207140000Y-83128530D02*
X206809265Y-83459265D01*
%TO.N,RUN*%
X205341412Y-90535982D02*
X209386039Y-90535982D01*
X209386039Y-90535982D02*
X209751057Y-90901000D01*
X209751057Y-90901000D02*
X210248943Y-90901000D01*
X210720000Y-90429943D02*
X210720000Y-87370000D01*
X210248943Y-90901000D02*
X210720000Y-90429943D01*
X210720000Y-87370000D02*
X212035000Y-86055000D01*
%TO.N,GPIO0*%
X197320000Y-84235627D02*
X197620000Y-84535627D01*
X197010000Y-70147157D02*
X197320000Y-70457157D01*
X197010000Y-67493142D02*
X197010000Y-70147157D01*
X197320000Y-70457157D02*
X197320000Y-84235627D01*
%TO.N,+3V3*%
X202972365Y-81837635D02*
X203200000Y-82065270D01*
X203200000Y-82065270D02*
X203200000Y-84272065D01*
X203200000Y-84272065D02*
X203545000Y-84617064D01*
%TO.N,+1V1*%
X206670000Y-81861030D02*
X206209780Y-82321250D01*
X205209000Y-81043435D02*
X206323435Y-81043435D01*
X206323435Y-81043435D02*
X206670000Y-81390000D01*
X206670000Y-81390000D02*
X206670000Y-81861030D01*
%TO.N,GPIO12*%
X197600000Y-101290000D02*
X197601000Y-101290000D01*
X195986446Y-99676446D02*
X197600000Y-101290000D01*
X195176446Y-99676446D02*
X195986446Y-99676446D01*
%TD*%
%TA.AperFunction,Conductor*%
%TO.N,GND*%
G36*
X209115382Y-91145126D02*
G01*
X209145369Y-91151650D01*
X209150384Y-91155404D01*
X209152981Y-91156167D01*
X209173623Y-91172801D01*
X209266196Y-91265374D01*
X209266206Y-91265385D01*
X209270536Y-91269715D01*
X209270537Y-91269716D01*
X209382341Y-91381520D01*
X209382343Y-91381521D01*
X209382347Y-91381524D01*
X209495769Y-91447007D01*
X209519273Y-91460577D01*
X209603282Y-91483087D01*
X209671999Y-91501500D01*
X209672000Y-91501500D01*
X210162274Y-91501500D01*
X210162290Y-91501501D01*
X210169886Y-91501501D01*
X210327997Y-91501501D01*
X210328000Y-91501501D01*
X210480728Y-91460577D01*
X210533188Y-91430289D01*
X210617659Y-91381520D01*
X210703075Y-91296103D01*
X210709058Y-91291432D01*
X210734753Y-91281247D01*
X210759016Y-91267999D01*
X210766778Y-91268554D01*
X210774012Y-91265687D01*
X210801135Y-91271011D01*
X210828708Y-91272983D01*
X210834937Y-91277646D01*
X210842573Y-91279145D01*
X210862511Y-91298287D01*
X210884642Y-91314854D01*
X210887970Y-91322730D01*
X210892974Y-91327534D01*
X210896843Y-91343725D01*
X210907848Y-91369765D01*
X210913317Y-91404294D01*
X210969251Y-91576444D01*
X210969252Y-91576447D01*
X211051431Y-91737730D01*
X211062913Y-91753532D01*
X211062913Y-91753533D01*
X211552037Y-91264408D01*
X211569075Y-91327993D01*
X211634901Y-91442007D01*
X211727993Y-91535099D01*
X211842007Y-91600925D01*
X211905590Y-91617962D01*
X211416466Y-92107085D01*
X211416466Y-92107086D01*
X211432267Y-92118566D01*
X211432275Y-92118571D01*
X211563729Y-92185551D01*
X211614525Y-92233526D01*
X211631320Y-92301347D01*
X211608782Y-92367482D01*
X211554067Y-92410933D01*
X211545761Y-92413964D01*
X211535716Y-92417227D01*
X211516583Y-92423444D01*
X211327179Y-92519951D01*
X211155213Y-92644890D01*
X211004890Y-92795213D01*
X210879951Y-92967179D01*
X210783444Y-93156585D01*
X210717753Y-93358760D01*
X210684500Y-93568713D01*
X210684500Y-93781286D01*
X210717753Y-93991239D01*
X210783444Y-94193414D01*
X210879951Y-94382820D01*
X211004890Y-94554786D01*
X211155213Y-94705109D01*
X211327182Y-94830050D01*
X211335946Y-94834516D01*
X211386742Y-94882491D01*
X211403536Y-94950312D01*
X211380998Y-95016447D01*
X211335946Y-95055484D01*
X211327182Y-95059949D01*
X211155213Y-95184890D01*
X211004890Y-95335213D01*
X210879951Y-95507179D01*
X210783444Y-95696585D01*
X210783443Y-95696587D01*
X210783443Y-95696588D01*
X210781917Y-95701284D01*
X210717753Y-95898760D01*
X210684500Y-96108713D01*
X210684500Y-96321286D01*
X210717753Y-96531239D01*
X210783444Y-96733414D01*
X210879951Y-96922820D01*
X211004890Y-97094786D01*
X211155213Y-97245109D01*
X211327182Y-97370050D01*
X211335946Y-97374516D01*
X211386742Y-97422491D01*
X211403536Y-97490312D01*
X211380998Y-97556447D01*
X211335946Y-97595484D01*
X211327182Y-97599949D01*
X211155213Y-97724890D01*
X211004890Y-97875213D01*
X210879951Y-98047179D01*
X210783444Y-98236585D01*
X210717753Y-98438760D01*
X210684500Y-98648713D01*
X210684500Y-98861286D01*
X210714468Y-99050500D01*
X210717754Y-99071243D01*
X210766257Y-99220520D01*
X210783444Y-99273414D01*
X210879951Y-99462820D01*
X211004890Y-99634786D01*
X211155213Y-99785109D01*
X211327182Y-99910050D01*
X211335946Y-99914516D01*
X211386742Y-99962491D01*
X211403536Y-100030312D01*
X211380998Y-100096447D01*
X211335946Y-100135484D01*
X211327182Y-100139949D01*
X211155213Y-100264890D01*
X211004890Y-100415213D01*
X210879951Y-100587179D01*
X210783444Y-100776585D01*
X210717753Y-100978760D01*
X210690673Y-101149737D01*
X210684500Y-101188713D01*
X210684500Y-101401287D01*
X210717754Y-101611243D01*
X210766199Y-101760342D01*
X210783444Y-101813414D01*
X210879951Y-102002820D01*
X211004890Y-102174786D01*
X211155213Y-102325109D01*
X211327179Y-102450048D01*
X211327181Y-102450049D01*
X211327184Y-102450051D01*
X211516588Y-102546557D01*
X211545753Y-102556033D01*
X211603426Y-102595468D01*
X211630625Y-102659826D01*
X211618712Y-102728673D01*
X211571469Y-102780149D01*
X211563730Y-102784447D01*
X211432269Y-102851431D01*
X211416466Y-102862912D01*
X211416466Y-102862913D01*
X211905591Y-103352037D01*
X211842007Y-103369075D01*
X211727993Y-103434901D01*
X211634901Y-103527993D01*
X211569075Y-103642007D01*
X211552037Y-103705590D01*
X211062913Y-103216466D01*
X211062912Y-103216466D01*
X211051432Y-103232269D01*
X210969254Y-103393547D01*
X210969251Y-103393555D01*
X210913317Y-103565706D01*
X210885000Y-103744493D01*
X210885000Y-103925506D01*
X210913317Y-104104293D01*
X210969251Y-104276444D01*
X210969252Y-104276447D01*
X211051431Y-104437730D01*
X211062913Y-104453532D01*
X211062913Y-104453533D01*
X211552037Y-103964409D01*
X211569075Y-104027993D01*
X211634901Y-104142007D01*
X211727993Y-104235099D01*
X211842007Y-104300925D01*
X211905590Y-104317962D01*
X211416466Y-104807085D01*
X211416466Y-104807086D01*
X211432267Y-104818566D01*
X211432275Y-104818571D01*
X211563729Y-104885551D01*
X211614525Y-104933526D01*
X211631320Y-105001347D01*
X211608782Y-105067482D01*
X211554067Y-105110933D01*
X211545761Y-105113964D01*
X211535716Y-105117227D01*
X211516583Y-105123444D01*
X211327179Y-105219951D01*
X211155213Y-105344890D01*
X211004890Y-105495213D01*
X210879951Y-105667179D01*
X210783444Y-105856585D01*
X210717753Y-106058760D01*
X210684500Y-106268713D01*
X210684500Y-106481286D01*
X210707870Y-106628842D01*
X210717754Y-106691243D01*
X210747729Y-106783497D01*
X210783444Y-106893414D01*
X210879951Y-107082820D01*
X211004890Y-107254786D01*
X211155213Y-107405109D01*
X211327182Y-107530050D01*
X211335946Y-107534516D01*
X211386742Y-107582491D01*
X211403536Y-107650312D01*
X211380998Y-107716447D01*
X211335946Y-107755484D01*
X211327182Y-107759949D01*
X211155213Y-107884890D01*
X211004890Y-108035213D01*
X210879951Y-108207179D01*
X210783444Y-108396585D01*
X210717753Y-108598760D01*
X210684500Y-108808713D01*
X210684500Y-109021286D01*
X210711762Y-109193416D01*
X210717754Y-109231243D01*
X210767003Y-109382816D01*
X210783444Y-109433414D01*
X210870466Y-109604205D01*
X210883362Y-109672875D01*
X210857086Y-109737615D01*
X210799979Y-109777872D01*
X210759981Y-109784500D01*
X206784757Y-109784500D01*
X206717718Y-109764815D01*
X206671963Y-109712011D01*
X206662019Y-109642853D01*
X206691044Y-109579297D01*
X206697076Y-109572819D01*
X206715103Y-109554792D01*
X206715105Y-109554788D01*
X206715108Y-109554786D01*
X206840047Y-109382820D01*
X206840046Y-109382820D01*
X206840050Y-109382816D01*
X206936556Y-109193412D01*
X207002245Y-108991243D01*
X207035499Y-108781287D01*
X207035499Y-108568713D01*
X207002245Y-108358757D01*
X206936556Y-108156588D01*
X206840050Y-107967184D01*
X206840048Y-107967181D01*
X206840047Y-107967179D01*
X206715108Y-107795213D01*
X206564785Y-107644890D01*
X206392819Y-107519951D01*
X206203413Y-107423444D01*
X206203412Y-107423443D01*
X206203411Y-107423443D01*
X206001242Y-107357754D01*
X206001240Y-107357753D01*
X206001239Y-107357753D01*
X205839956Y-107332208D01*
X205791286Y-107324500D01*
X205578712Y-107324500D01*
X205530041Y-107332208D01*
X205368759Y-107357753D01*
X205166584Y-107423444D01*
X204977178Y-107519951D01*
X204805212Y-107644890D01*
X204654889Y-107795213D01*
X204529950Y-107967179D01*
X204433441Y-108156587D01*
X204423965Y-108185753D01*
X204384527Y-108243428D01*
X204320168Y-108270625D01*
X204251322Y-108258709D01*
X204199847Y-108211464D01*
X204195550Y-108203728D01*
X204128571Y-108072275D01*
X204128566Y-108072267D01*
X204117085Y-108056466D01*
X203627962Y-108545589D01*
X203610925Y-108482007D01*
X203545099Y-108367993D01*
X203452007Y-108274901D01*
X203337993Y-108209075D01*
X203274409Y-108192037D01*
X203763533Y-107702913D01*
X203747730Y-107691431D01*
X203586447Y-107609252D01*
X203586444Y-107609251D01*
X203414293Y-107553317D01*
X203235506Y-107525000D01*
X203054494Y-107525000D01*
X202875706Y-107553317D01*
X202703555Y-107609251D01*
X202703547Y-107609254D01*
X202542269Y-107691432D01*
X202526466Y-107702912D01*
X202526466Y-107702913D01*
X203015591Y-108192037D01*
X202952007Y-108209075D01*
X202837993Y-108274901D01*
X202744901Y-108367993D01*
X202679075Y-108482007D01*
X202662037Y-108545590D01*
X202172913Y-108056466D01*
X202166875Y-108056941D01*
X202155304Y-108065864D01*
X202132108Y-108086364D01*
X202127878Y-108087014D01*
X202124490Y-108089627D01*
X202093646Y-108092277D01*
X202063049Y-108096981D01*
X202059140Y-108095241D01*
X202054877Y-108095608D01*
X202027498Y-108081162D01*
X201999214Y-108068577D01*
X201996865Y-108064999D01*
X201993081Y-108063003D01*
X201977856Y-108036046D01*
X201960868Y-108010170D01*
X201960018Y-108004462D01*
X201958722Y-108002166D01*
X201955505Y-107975286D01*
X201955499Y-107974682D01*
X201955499Y-107777128D01*
X201949091Y-107717517D01*
X201947224Y-107712512D01*
X201898797Y-107582671D01*
X201898793Y-107582664D01*
X201812547Y-107467455D01*
X201812544Y-107467452D01*
X201697335Y-107381206D01*
X201697328Y-107381202D01*
X201562482Y-107330908D01*
X201562483Y-107330908D01*
X201502883Y-107324501D01*
X201502881Y-107324500D01*
X201502873Y-107324500D01*
X201502864Y-107324500D01*
X199707129Y-107324500D01*
X199707123Y-107324501D01*
X199647516Y-107330908D01*
X199512671Y-107381202D01*
X199512664Y-107381206D01*
X199397455Y-107467452D01*
X199397452Y-107467455D01*
X199311206Y-107582664D01*
X199311202Y-107582671D01*
X199260908Y-107717517D01*
X199254501Y-107777116D01*
X199254500Y-107777135D01*
X199254500Y-109572870D01*
X199254501Y-109572876D01*
X199261738Y-109640196D01*
X199260342Y-109640345D01*
X199257050Y-109701756D01*
X199216182Y-109758427D01*
X199151163Y-109784007D01*
X199140114Y-109784500D01*
X195537566Y-109784500D01*
X195470527Y-109764815D01*
X195424772Y-109712011D01*
X195414828Y-109642853D01*
X195427081Y-109604205D01*
X195511557Y-109438412D01*
X195577246Y-109236243D01*
X195610500Y-109026287D01*
X195610500Y-108813713D01*
X195577246Y-108603757D01*
X195511557Y-108401588D01*
X195415051Y-108212184D01*
X195415049Y-108212181D01*
X195415048Y-108212179D01*
X195290109Y-108040213D01*
X195139786Y-107889890D01*
X194967820Y-107764951D01*
X194967115Y-107764591D01*
X194959054Y-107760485D01*
X194908259Y-107712512D01*
X194891463Y-107644692D01*
X194913999Y-107578556D01*
X194959054Y-107539515D01*
X194967816Y-107535051D01*
X195060859Y-107467452D01*
X195139786Y-107410109D01*
X195139788Y-107410106D01*
X195139792Y-107410104D01*
X195290104Y-107259792D01*
X195290106Y-107259788D01*
X195290109Y-107259786D01*
X195415048Y-107087820D01*
X195415047Y-107087820D01*
X195415051Y-107087816D01*
X195511557Y-106898412D01*
X195577246Y-106696243D01*
X195610500Y-106486287D01*
X195610500Y-106273713D01*
X195577246Y-106063757D01*
X195511557Y-105861588D01*
X195415051Y-105672184D01*
X195415049Y-105672181D01*
X195415048Y-105672179D01*
X195290109Y-105500213D01*
X195139786Y-105349890D01*
X194967820Y-105224951D01*
X194778414Y-105128444D01*
X194778413Y-105128443D01*
X194778412Y-105128443D01*
X194749246Y-105118966D01*
X194691571Y-105079529D01*
X194664373Y-105015171D01*
X194676288Y-104946324D01*
X194723532Y-104894849D01*
X194731270Y-104890551D01*
X194862732Y-104823566D01*
X194878532Y-104812085D01*
X194878533Y-104812085D01*
X194389410Y-104322962D01*
X194452993Y-104305925D01*
X194567007Y-104240099D01*
X194660099Y-104147007D01*
X194725925Y-104032993D01*
X194742962Y-103969410D01*
X195232085Y-104458533D01*
X195232085Y-104458532D01*
X195243568Y-104442730D01*
X195325745Y-104281452D01*
X195325748Y-104281444D01*
X195381682Y-104109293D01*
X195410000Y-103930506D01*
X195410000Y-103749493D01*
X195381682Y-103570706D01*
X195325748Y-103398555D01*
X195325747Y-103398552D01*
X195243571Y-103237275D01*
X195243566Y-103237267D01*
X195232085Y-103221466D01*
X194742962Y-103710589D01*
X194725925Y-103647007D01*
X194660099Y-103532993D01*
X194567007Y-103439901D01*
X194452993Y-103374075D01*
X194389409Y-103357037D01*
X194878533Y-102867913D01*
X194862727Y-102856429D01*
X194731269Y-102789447D01*
X194680474Y-102741473D01*
X194663679Y-102673651D01*
X194686217Y-102607517D01*
X194740932Y-102564066D01*
X194749216Y-102561043D01*
X194778412Y-102551557D01*
X194967816Y-102455051D01*
X195050803Y-102394758D01*
X195139786Y-102330109D01*
X195139788Y-102330106D01*
X195139792Y-102330104D01*
X195290104Y-102179792D01*
X195290106Y-102179788D01*
X195290109Y-102179786D01*
X195415048Y-102007820D01*
X195415047Y-102007820D01*
X195415051Y-102007816D01*
X195511557Y-101818412D01*
X195577246Y-101616243D01*
X195610500Y-101406287D01*
X195610500Y-101193713D01*
X195577246Y-100983757D01*
X195511557Y-100781588D01*
X195415051Y-100592184D01*
X195413633Y-100589401D01*
X195412306Y-100582335D01*
X195407991Y-100576586D01*
X195405943Y-100548456D01*
X195400737Y-100520732D01*
X195403440Y-100514070D01*
X195402919Y-100506901D01*
X195416403Y-100482131D01*
X195427013Y-100455991D01*
X195433704Y-100450350D01*
X195436326Y-100445536D01*
X195451319Y-100435503D01*
X195464554Y-100424349D01*
X195470446Y-100421121D01*
X195555625Y-100385840D01*
X195649976Y-100322796D01*
X195654768Y-100320172D01*
X195683777Y-100313822D01*
X195712118Y-100304949D01*
X195717534Y-100306434D01*
X195723022Y-100305234D01*
X195750859Y-100315576D01*
X195779498Y-100323433D01*
X195786131Y-100328681D01*
X195788517Y-100329568D01*
X195790367Y-100332033D01*
X195802013Y-100341248D01*
X196766674Y-101305909D01*
X196800159Y-101367232D01*
X196800610Y-101369398D01*
X196831261Y-101523491D01*
X196831264Y-101523501D01*
X196891604Y-101669176D01*
X196915696Y-101705232D01*
X196936574Y-101771909D01*
X196927156Y-101821574D01*
X196900263Y-101886502D01*
X196900261Y-101886505D01*
X196869500Y-102041153D01*
X196869500Y-102198846D01*
X196900261Y-102353489D01*
X196900264Y-102353501D01*
X196960602Y-102499172D01*
X196960609Y-102499185D01*
X197048210Y-102630288D01*
X197048213Y-102630292D01*
X197159707Y-102741786D01*
X197159711Y-102741789D01*
X197290814Y-102829390D01*
X197290827Y-102829397D01*
X197436498Y-102889735D01*
X197436503Y-102889737D01*
X197591153Y-102920499D01*
X197591156Y-102920500D01*
X197591158Y-102920500D01*
X197748844Y-102920500D01*
X197748845Y-102920499D01*
X197903497Y-102889737D01*
X198049179Y-102829394D01*
X198180289Y-102741789D01*
X198291789Y-102630289D01*
X198379394Y-102499179D01*
X198439737Y-102353497D01*
X198457379Y-102264804D01*
X198489763Y-102202894D01*
X198550479Y-102168320D01*
X198554805Y-102167379D01*
X198643497Y-102149737D01*
X198789179Y-102089394D01*
X198920289Y-102001789D01*
X199031789Y-101890289D01*
X199119394Y-101759179D01*
X199179737Y-101613497D01*
X199210500Y-101458842D01*
X199210500Y-101301158D01*
X199210500Y-101301155D01*
X199210499Y-101301153D01*
X199179737Y-101146503D01*
X199119794Y-101001786D01*
X199119397Y-101000827D01*
X199119390Y-101000814D01*
X199031789Y-100869711D01*
X199031786Y-100869707D01*
X198920292Y-100758213D01*
X198920288Y-100758210D01*
X198789185Y-100670609D01*
X198789172Y-100670602D01*
X198643501Y-100610264D01*
X198643489Y-100610261D01*
X198488845Y-100579500D01*
X198488842Y-100579500D01*
X198430805Y-100579500D01*
X198363766Y-100559815D01*
X198318011Y-100507011D01*
X198308067Y-100437853D01*
X198327703Y-100386609D01*
X198359390Y-100339185D01*
X198359390Y-100339184D01*
X198359394Y-100339179D01*
X198419737Y-100193497D01*
X198450500Y-100038842D01*
X198450500Y-99881158D01*
X198450500Y-99881155D01*
X198450499Y-99881153D01*
X198432388Y-99790104D01*
X198419737Y-99726503D01*
X198367537Y-99600481D01*
X198360069Y-99531014D01*
X198391344Y-99468535D01*
X198413205Y-99449931D01*
X198470289Y-99411789D01*
X198581789Y-99300289D01*
X198669394Y-99169179D01*
X198729737Y-99023497D01*
X198760500Y-98868842D01*
X198760500Y-98839700D01*
X198780185Y-98772661D01*
X198832989Y-98726906D01*
X198902147Y-98716962D01*
X198908692Y-98718083D01*
X198931857Y-98722691D01*
X198931860Y-98722691D01*
X199089546Y-98722691D01*
X199089547Y-98722690D01*
X199244199Y-98691928D01*
X199348530Y-98648713D01*
X199359216Y-98644287D01*
X199428685Y-98636818D01*
X199491164Y-98668093D01*
X199509770Y-98689957D01*
X199556764Y-98760288D01*
X199556767Y-98760292D01*
X199668261Y-98871786D01*
X199668265Y-98871789D01*
X199799368Y-98959390D01*
X199799381Y-98959397D01*
X199945052Y-99019735D01*
X199945057Y-99019737D01*
X200099707Y-99050499D01*
X200099710Y-99050500D01*
X200099712Y-99050500D01*
X200257398Y-99050500D01*
X200257399Y-99050499D01*
X200412051Y-99019737D01*
X200557733Y-98959394D01*
X200688843Y-98871789D01*
X200688848Y-98871783D01*
X200690376Y-98870763D01*
X200757054Y-98849885D01*
X200824434Y-98868369D01*
X200846949Y-98886184D01*
X201065139Y-99104374D01*
X201065149Y-99104385D01*
X201069479Y-99108715D01*
X201069480Y-99108716D01*
X201181284Y-99220520D01*
X201252744Y-99261777D01*
X201318215Y-99299577D01*
X201470943Y-99340501D01*
X201470946Y-99340501D01*
X201623490Y-99340501D01*
X201690529Y-99360186D01*
X201736284Y-99412990D01*
X201745107Y-99440309D01*
X201751707Y-99473491D01*
X201751710Y-99473501D01*
X201812048Y-99619172D01*
X201812055Y-99619185D01*
X201899656Y-99750288D01*
X201899659Y-99750292D01*
X202011153Y-99861786D01*
X202011157Y-99861789D01*
X202142260Y-99949390D01*
X202142273Y-99949397D01*
X202266438Y-100000827D01*
X202287949Y-100009737D01*
X202434269Y-100038842D01*
X202442599Y-100040499D01*
X202442602Y-100040500D01*
X202442604Y-100040500D01*
X202600290Y-100040500D01*
X202600291Y-100040499D01*
X202754943Y-100009737D01*
X202859004Y-99966633D01*
X202928471Y-99959165D01*
X202990951Y-99990440D01*
X203004045Y-100005828D01*
X203004347Y-100005581D01*
X203008213Y-100010292D01*
X203119707Y-100121786D01*
X203119711Y-100121789D01*
X203250814Y-100209390D01*
X203250827Y-100209397D01*
X203396498Y-100269735D01*
X203396503Y-100269737D01*
X203432745Y-100276946D01*
X203499691Y-100290263D01*
X203561602Y-100322648D01*
X203596176Y-100383364D01*
X203599500Y-100411880D01*
X203599500Y-105970234D01*
X203579815Y-106037273D01*
X203578602Y-106039125D01*
X203490609Y-106170814D01*
X203490602Y-106170827D01*
X203430264Y-106316498D01*
X203430261Y-106316510D01*
X203399500Y-106471153D01*
X203399500Y-106628846D01*
X203430261Y-106783489D01*
X203430264Y-106783501D01*
X203490602Y-106929172D01*
X203490609Y-106929185D01*
X203578210Y-107060288D01*
X203578213Y-107060292D01*
X203689707Y-107171786D01*
X203689711Y-107171789D01*
X203820814Y-107259390D01*
X203820827Y-107259397D01*
X203966498Y-107319735D01*
X203966503Y-107319737D01*
X204121153Y-107350499D01*
X204121156Y-107350500D01*
X204121158Y-107350500D01*
X204278844Y-107350500D01*
X204278845Y-107350499D01*
X204433497Y-107319737D01*
X204579179Y-107259394D01*
X204710289Y-107171789D01*
X204821789Y-107060289D01*
X204909394Y-106929179D01*
X204969737Y-106783497D01*
X205000500Y-106628842D01*
X205000500Y-106471158D01*
X205000500Y-106471155D01*
X205000499Y-106471153D01*
X204969738Y-106316510D01*
X204969737Y-106316503D01*
X204949942Y-106268713D01*
X204909397Y-106170827D01*
X204909390Y-106170814D01*
X204821398Y-106039125D01*
X204800520Y-105972447D01*
X204800500Y-105970234D01*
X204800500Y-91926173D01*
X204820185Y-91859134D01*
X204872989Y-91813379D01*
X204942147Y-91803435D01*
X205005703Y-91832460D01*
X205012181Y-91838492D01*
X205088818Y-91915129D01*
X205088822Y-91915132D01*
X205219925Y-92002733D01*
X205219938Y-92002740D01*
X205365609Y-92063078D01*
X205365614Y-92063080D01*
X205520264Y-92093842D01*
X205520267Y-92093843D01*
X205520269Y-92093843D01*
X205677954Y-92093843D01*
X205713879Y-92086696D01*
X205809345Y-92067707D01*
X205878935Y-92073934D01*
X205921217Y-92101643D01*
X206510015Y-92690441D01*
X206543500Y-92751764D01*
X206538516Y-92821456D01*
X206496644Y-92877389D01*
X206431180Y-92901806D01*
X206362907Y-92886954D01*
X206353443Y-92881224D01*
X206230631Y-92799163D01*
X206230618Y-92799156D01*
X206084947Y-92738818D01*
X206084935Y-92738815D01*
X205930291Y-92708054D01*
X205930288Y-92708054D01*
X205772604Y-92708054D01*
X205772601Y-92708054D01*
X205617956Y-92738815D01*
X205617944Y-92738818D01*
X205472273Y-92799156D01*
X205472260Y-92799163D01*
X205341157Y-92886764D01*
X205341153Y-92886767D01*
X205229659Y-92998261D01*
X205229656Y-92998265D01*
X205142055Y-93129368D01*
X205142048Y-93129381D01*
X205081710Y-93275052D01*
X205081707Y-93275064D01*
X205050946Y-93429707D01*
X205050946Y-93587400D01*
X205081707Y-93742043D01*
X205081710Y-93742055D01*
X205142048Y-93887726D01*
X205142055Y-93887739D01*
X205229656Y-94018842D01*
X205229659Y-94018846D01*
X205341153Y-94130340D01*
X205341157Y-94130343D01*
X205472260Y-94217944D01*
X205472273Y-94217951D01*
X205615081Y-94277103D01*
X205617949Y-94278291D01*
X205772599Y-94309053D01*
X205772602Y-94309054D01*
X205772604Y-94309054D01*
X205930290Y-94309054D01*
X205930291Y-94309053D01*
X205976277Y-94299906D01*
X206090918Y-94277103D01*
X206091168Y-94278361D01*
X206154374Y-94277787D01*
X206213493Y-94315026D01*
X206223624Y-94328186D01*
X206305210Y-94450288D01*
X206305213Y-94450292D01*
X206416707Y-94561786D01*
X206416711Y-94561789D01*
X206547814Y-94649390D01*
X206547827Y-94649397D01*
X206621013Y-94679711D01*
X206693503Y-94709737D01*
X206726691Y-94716338D01*
X206788600Y-94748721D01*
X206823176Y-94809436D01*
X206826500Y-94837955D01*
X206826500Y-99800234D01*
X206806815Y-99867273D01*
X206805602Y-99869125D01*
X206717609Y-100000814D01*
X206717602Y-100000827D01*
X206657264Y-100146498D01*
X206657261Y-100146510D01*
X206626500Y-100301153D01*
X206626500Y-100458846D01*
X206657261Y-100613489D01*
X206657264Y-100613501D01*
X206717602Y-100759172D01*
X206717609Y-100759185D01*
X206805210Y-100890288D01*
X206805213Y-100890292D01*
X206916707Y-101001786D01*
X206916711Y-101001789D01*
X207047814Y-101089390D01*
X207047827Y-101089397D01*
X207185683Y-101146498D01*
X207193503Y-101149737D01*
X207348153Y-101180499D01*
X207348156Y-101180500D01*
X207348158Y-101180500D01*
X207505844Y-101180500D01*
X207505845Y-101180499D01*
X207660497Y-101149737D01*
X207806179Y-101089394D01*
X207937289Y-101001789D01*
X208048789Y-100890289D01*
X208136394Y-100759179D01*
X208196737Y-100613497D01*
X208227500Y-100458842D01*
X208227500Y-100301158D01*
X208227500Y-100301155D01*
X208227499Y-100301153D01*
X208222684Y-100276946D01*
X208196737Y-100146503D01*
X208186499Y-100121786D01*
X208136397Y-100000827D01*
X208136390Y-100000814D01*
X208048398Y-99869125D01*
X208027520Y-99802447D01*
X208027500Y-99800234D01*
X208027500Y-92847250D01*
X208027501Y-92847237D01*
X208027501Y-92679136D01*
X208027501Y-92679134D01*
X207986577Y-92526406D01*
X207955962Y-92473380D01*
X207907520Y-92389475D01*
X207795716Y-92277671D01*
X207795715Y-92277670D01*
X207791385Y-92273340D01*
X207791374Y-92273330D01*
X206866207Y-91348163D01*
X206832722Y-91286840D01*
X206837706Y-91217148D01*
X206879578Y-91161215D01*
X206945042Y-91136798D01*
X206953888Y-91136482D01*
X209085942Y-91136482D01*
X209115382Y-91145126D01*
G37*
%TD.AperFunction*%
%TA.AperFunction,Conductor*%
G36*
X202679075Y-108867993D02*
G01*
X202744901Y-108982007D01*
X202837993Y-109075099D01*
X202952007Y-109140925D01*
X203015590Y-109157962D01*
X202526466Y-109647085D01*
X202526757Y-109650771D01*
X202512393Y-109719149D01*
X202463341Y-109768905D01*
X202403139Y-109784500D01*
X202069886Y-109784500D01*
X202002847Y-109764815D01*
X201957092Y-109712011D01*
X201947148Y-109642853D01*
X201949060Y-109632765D01*
X201949090Y-109632485D01*
X201949091Y-109632483D01*
X201955500Y-109572873D01*
X201955499Y-109375919D01*
X201975183Y-109308883D01*
X202027987Y-109263128D01*
X202097145Y-109253184D01*
X202160701Y-109282209D01*
X202170953Y-109293378D01*
X202172913Y-109293533D01*
X202662037Y-108804409D01*
X202679075Y-108867993D01*
G37*
%TD.AperFunction*%
%TA.AperFunction,Conductor*%
G36*
X204117085Y-109293532D02*
G01*
X204128566Y-109277732D01*
X204195550Y-109146271D01*
X204243525Y-109095475D01*
X204311346Y-109078680D01*
X204377481Y-109101218D01*
X204420932Y-109155933D01*
X204423966Y-109164247D01*
X204433443Y-109193416D01*
X204529950Y-109382820D01*
X204654889Y-109554786D01*
X204672922Y-109572819D01*
X204706407Y-109634142D01*
X204701423Y-109703834D01*
X204659551Y-109759767D01*
X204594087Y-109784184D01*
X204585241Y-109784500D01*
X203886861Y-109784500D01*
X203819822Y-109764815D01*
X203774067Y-109712011D01*
X203763243Y-109650774D01*
X203763533Y-109647085D01*
X203274410Y-109157962D01*
X203337993Y-109140925D01*
X203452007Y-109075099D01*
X203545099Y-108982007D01*
X203610925Y-108867993D01*
X203627962Y-108804409D01*
X204117085Y-109293532D01*
G37*
%TD.AperFunction*%
%TA.AperFunction,Conductor*%
G36*
X193794075Y-104032993D02*
G01*
X193859901Y-104147007D01*
X193952993Y-104240099D01*
X194067007Y-104305925D01*
X194130590Y-104322962D01*
X193641466Y-104812085D01*
X193641466Y-104812086D01*
X193657267Y-104823566D01*
X193657275Y-104823571D01*
X193788729Y-104890551D01*
X193839525Y-104938526D01*
X193856320Y-105006347D01*
X193833782Y-105072482D01*
X193779067Y-105115933D01*
X193770761Y-105118964D01*
X193760716Y-105122227D01*
X193741583Y-105128444D01*
X193552179Y-105224951D01*
X193380213Y-105349890D01*
X193380209Y-105349894D01*
X193357181Y-105372923D01*
X193295858Y-105406408D01*
X193226166Y-105401424D01*
X193170233Y-105359552D01*
X193145816Y-105294088D01*
X193145500Y-105285242D01*
X193145500Y-104581467D01*
X193165185Y-104514428D01*
X193217989Y-104468673D01*
X193279230Y-104457849D01*
X193287914Y-104458532D01*
X193777037Y-103969409D01*
X193794075Y-104032993D01*
G37*
%TD.AperFunction*%
%TA.AperFunction,Conductor*%
G36*
X213007084Y-104453532D02*
G01*
X213010772Y-104453242D01*
X213079149Y-104467606D01*
X213128905Y-104516658D01*
X213144500Y-104576860D01*
X213144500Y-105275242D01*
X213124815Y-105342281D01*
X213072011Y-105388036D01*
X213002853Y-105397980D01*
X212939297Y-105368955D01*
X212932819Y-105362923D01*
X212914786Y-105344890D01*
X212742820Y-105219951D01*
X212553414Y-105123444D01*
X212553413Y-105123443D01*
X212553412Y-105123443D01*
X212524246Y-105113966D01*
X212466571Y-105074529D01*
X212439373Y-105010171D01*
X212451288Y-104941324D01*
X212498532Y-104889849D01*
X212506270Y-104885551D01*
X212637732Y-104818566D01*
X212653532Y-104807085D01*
X212653533Y-104807085D01*
X212164410Y-104317962D01*
X212227993Y-104300925D01*
X212342007Y-104235099D01*
X212435099Y-104142007D01*
X212500925Y-104027993D01*
X212517962Y-103964409D01*
X213007084Y-104453532D01*
G37*
%TD.AperFunction*%
%TA.AperFunction,Conductor*%
G36*
X193350703Y-102301045D02*
G01*
X193357181Y-102307077D01*
X193380213Y-102330109D01*
X193552179Y-102455048D01*
X193552181Y-102455049D01*
X193552184Y-102455051D01*
X193741588Y-102551557D01*
X193770753Y-102561033D01*
X193828426Y-102600468D01*
X193855625Y-102664826D01*
X193843712Y-102733673D01*
X193796469Y-102785149D01*
X193788730Y-102789447D01*
X193657269Y-102856431D01*
X193641466Y-102867912D01*
X193641466Y-102867913D01*
X194130591Y-103357037D01*
X194067007Y-103374075D01*
X193952993Y-103439901D01*
X193859901Y-103532993D01*
X193794075Y-103647007D01*
X193777037Y-103710590D01*
X193287912Y-103221465D01*
X193279228Y-103222149D01*
X193210851Y-103207784D01*
X193161094Y-103158733D01*
X193145500Y-103098531D01*
X193145500Y-102394758D01*
X193165185Y-102327719D01*
X193217989Y-102281964D01*
X193287147Y-102272020D01*
X193350703Y-102301045D01*
G37*
%TD.AperFunction*%
%TA.AperFunction,Conductor*%
G36*
X213063834Y-102278576D02*
G01*
X213119767Y-102320448D01*
X213144184Y-102385912D01*
X213144500Y-102394758D01*
X213144500Y-103093138D01*
X213124815Y-103160177D01*
X213072011Y-103205932D01*
X213010773Y-103216756D01*
X213007086Y-103216465D01*
X212517962Y-103705589D01*
X212500925Y-103642007D01*
X212435099Y-103527993D01*
X212342007Y-103434901D01*
X212227993Y-103369075D01*
X212164409Y-103352037D01*
X212653533Y-102862913D01*
X212637727Y-102851429D01*
X212506269Y-102784447D01*
X212455474Y-102736473D01*
X212438679Y-102668651D01*
X212461217Y-102602517D01*
X212515932Y-102559066D01*
X212524216Y-102556043D01*
X212553412Y-102546557D01*
X212742816Y-102450051D01*
X212818921Y-102394758D01*
X212914786Y-102325109D01*
X212914788Y-102325106D01*
X212914792Y-102325104D01*
X212932819Y-102307077D01*
X212994142Y-102273592D01*
X213063834Y-102278576D01*
G37*
%TD.AperFunction*%
%TA.AperFunction,Conductor*%
G36*
X203067027Y-91641396D02*
G01*
X203070129Y-91641618D01*
X203074208Y-91643223D01*
X203186503Y-91689737D01*
X203304997Y-91713307D01*
X203341153Y-91720499D01*
X203341156Y-91720500D01*
X203475500Y-91720500D01*
X203542539Y-91740185D01*
X203588294Y-91792989D01*
X203599500Y-91844500D01*
X203599500Y-97822152D01*
X203579815Y-97889191D01*
X203527011Y-97934946D01*
X203499692Y-97943769D01*
X203366508Y-97970261D01*
X203366498Y-97970264D01*
X203220827Y-98030602D01*
X203220814Y-98030609D01*
X203089125Y-98118602D01*
X203022447Y-98139480D01*
X203020234Y-98139500D01*
X201850097Y-98139500D01*
X201783058Y-98119815D01*
X201762416Y-98103181D01*
X200875819Y-97216584D01*
X200842334Y-97155261D01*
X200839500Y-97128903D01*
X200839500Y-96108046D01*
X200859185Y-96041007D01*
X200911989Y-95995252D01*
X200939309Y-95986429D01*
X200968848Y-95980552D01*
X201073497Y-95959737D01*
X201186166Y-95913067D01*
X201219172Y-95899397D01*
X201219172Y-95899396D01*
X201219179Y-95899394D01*
X201350289Y-95811789D01*
X201461789Y-95700289D01*
X201549394Y-95569179D01*
X201609737Y-95423497D01*
X201640500Y-95268842D01*
X201640500Y-95111158D01*
X201640500Y-95111155D01*
X201640499Y-95111153D01*
X201622655Y-95021447D01*
X201609737Y-94956503D01*
X201581152Y-94887491D01*
X201549397Y-94810827D01*
X201549390Y-94810814D01*
X201461398Y-94679125D01*
X201440520Y-94612447D01*
X201440500Y-94610234D01*
X201440500Y-93220096D01*
X201460185Y-93153057D01*
X201476814Y-93132420D01*
X202939116Y-91670117D01*
X202956658Y-91660538D01*
X202971291Y-91646916D01*
X202986697Y-91644136D01*
X203000437Y-91636634D01*
X203020378Y-91638060D01*
X203040050Y-91634511D01*
X203067027Y-91641396D01*
G37*
%TD.AperFunction*%
%TA.AperFunction,Conductor*%
G36*
X200556784Y-90424964D02*
G01*
X200612717Y-90466836D01*
X200637134Y-90532300D01*
X200637450Y-90541146D01*
X200637450Y-91654852D01*
X200617765Y-91721891D01*
X200601131Y-91742533D01*
X199758481Y-92585182D01*
X199758479Y-92585185D01*
X199724007Y-92644894D01*
X199724006Y-92644896D01*
X199679423Y-92722114D01*
X199674947Y-92738818D01*
X199638499Y-92874843D01*
X199638499Y-92874845D01*
X199638499Y-93042946D01*
X199638500Y-93042959D01*
X199638500Y-97146930D01*
X199618815Y-97213969D01*
X199566011Y-97259724D01*
X199496853Y-97269668D01*
X199445610Y-97250033D01*
X199389885Y-97212799D01*
X199389874Y-97212793D01*
X199244203Y-97152455D01*
X199244191Y-97152452D01*
X199089547Y-97121691D01*
X199089544Y-97121691D01*
X198931860Y-97121691D01*
X198931857Y-97121691D01*
X198777212Y-97152452D01*
X198777201Y-97152455D01*
X198731950Y-97171198D01*
X198662481Y-97178665D01*
X198600002Y-97147389D01*
X198564351Y-97087300D01*
X198560500Y-97056636D01*
X198560500Y-95990945D01*
X198560500Y-95990943D01*
X198519577Y-95838216D01*
X198519577Y-95838215D01*
X198478152Y-95766465D01*
X198440520Y-95701284D01*
X198328716Y-95589480D01*
X198328715Y-95589479D01*
X198324385Y-95585149D01*
X198324374Y-95585139D01*
X196574574Y-93835339D01*
X196541089Y-93774016D01*
X196540638Y-93771849D01*
X196509738Y-93616510D01*
X196509737Y-93616503D01*
X196489942Y-93568713D01*
X196449397Y-93470827D01*
X196449390Y-93470814D01*
X196361789Y-93339711D01*
X196361786Y-93339707D01*
X196250292Y-93228213D01*
X196250288Y-93228210D01*
X196119185Y-93140609D01*
X196119172Y-93140602D01*
X195973501Y-93080264D01*
X195973489Y-93080261D01*
X195818845Y-93049500D01*
X195818842Y-93049500D01*
X195661158Y-93049500D01*
X195661153Y-93049500D01*
X195565529Y-93068521D01*
X195495938Y-93062294D01*
X195440760Y-93019431D01*
X195430857Y-93003205D01*
X195415051Y-92972184D01*
X195415049Y-92972181D01*
X195415048Y-92972179D01*
X195290109Y-92800213D01*
X195139786Y-92649890D01*
X194967820Y-92524951D01*
X194778414Y-92428444D01*
X194778413Y-92428443D01*
X194778412Y-92428443D01*
X194749246Y-92418966D01*
X194691571Y-92379529D01*
X194664373Y-92315171D01*
X194676288Y-92246324D01*
X194723532Y-92194849D01*
X194731270Y-92190551D01*
X194862732Y-92123566D01*
X194878532Y-92112085D01*
X194878533Y-92112085D01*
X194389410Y-91622962D01*
X194452993Y-91605925D01*
X194567007Y-91540099D01*
X194660099Y-91447007D01*
X194725925Y-91332993D01*
X194742962Y-91269409D01*
X195232084Y-91758532D01*
X195233946Y-91755971D01*
X195289277Y-91713307D01*
X195358890Y-91707329D01*
X195420685Y-91739937D01*
X195421943Y-91741178D01*
X195885139Y-92204374D01*
X195885149Y-92204385D01*
X195889479Y-92208715D01*
X195889480Y-92208716D01*
X196001284Y-92320520D01*
X196001286Y-92320521D01*
X196001287Y-92320522D01*
X196016809Y-92329483D01*
X196065776Y-92357754D01*
X196138215Y-92399577D01*
X196290943Y-92440500D01*
X198103331Y-92440500D01*
X198103347Y-92440501D01*
X198110943Y-92440501D01*
X198269054Y-92440501D01*
X198269057Y-92440501D01*
X198421785Y-92399577D01*
X198494224Y-92357754D01*
X198558716Y-92320520D01*
X198670520Y-92208716D01*
X198670520Y-92208714D01*
X198680724Y-92198511D01*
X198680727Y-92198506D01*
X200425770Y-90453463D01*
X200487092Y-90419980D01*
X200556784Y-90424964D01*
G37*
%TD.AperFunction*%
%TA.AperFunction,Conductor*%
G36*
X193794075Y-91332993D02*
G01*
X193859901Y-91447007D01*
X193952993Y-91540099D01*
X194067007Y-91605925D01*
X194130590Y-91622962D01*
X193641466Y-92112085D01*
X193641466Y-92112086D01*
X193657267Y-92123566D01*
X193657275Y-92123571D01*
X193788729Y-92190551D01*
X193839525Y-92238526D01*
X193856320Y-92306347D01*
X193833782Y-92372482D01*
X193779067Y-92415933D01*
X193770761Y-92418964D01*
X193760716Y-92422227D01*
X193741583Y-92428444D01*
X193552179Y-92524951D01*
X193380213Y-92649890D01*
X193380209Y-92649894D01*
X193357181Y-92672923D01*
X193295858Y-92706408D01*
X193226166Y-92701424D01*
X193170233Y-92659552D01*
X193145816Y-92594088D01*
X193145500Y-92585242D01*
X193145500Y-91881467D01*
X193165185Y-91814428D01*
X193217989Y-91768673D01*
X193279230Y-91757849D01*
X193287914Y-91758532D01*
X193777037Y-91269409D01*
X193794075Y-91332993D01*
G37*
%TD.AperFunction*%
%TA.AperFunction,Conductor*%
G36*
X213007084Y-91753532D02*
G01*
X213010772Y-91753242D01*
X213079149Y-91767606D01*
X213128905Y-91816658D01*
X213144500Y-91876860D01*
X213144500Y-92575242D01*
X213124815Y-92642281D01*
X213072011Y-92688036D01*
X213002853Y-92697980D01*
X212939297Y-92668955D01*
X212932819Y-92662923D01*
X212914786Y-92644890D01*
X212742820Y-92519951D01*
X212553414Y-92423444D01*
X212553413Y-92423443D01*
X212553412Y-92423443D01*
X212524246Y-92413966D01*
X212466571Y-92374529D01*
X212439373Y-92310171D01*
X212451288Y-92241324D01*
X212498532Y-92189849D01*
X212506270Y-92185551D01*
X212637732Y-92118566D01*
X212653532Y-92107085D01*
X212653533Y-92107085D01*
X212164410Y-91617962D01*
X212227993Y-91600925D01*
X212342007Y-91535099D01*
X212435099Y-91442007D01*
X212500925Y-91327993D01*
X212517962Y-91264409D01*
X213007084Y-91753532D01*
G37*
%TD.AperFunction*%
%TA.AperFunction,Conductor*%
G36*
X198131881Y-59805185D02*
G01*
X198177636Y-59857989D01*
X198187580Y-59927147D01*
X198167944Y-59978391D01*
X198116052Y-60056051D01*
X198116047Y-60056060D01*
X198055743Y-60201648D01*
X198055741Y-60201656D01*
X198025000Y-60356202D01*
X198025000Y-60485000D01*
X198525000Y-60485000D01*
X198525000Y-60985000D01*
X198025000Y-60985000D01*
X198025000Y-61113797D01*
X198055741Y-61268343D01*
X198055743Y-61268351D01*
X198116047Y-61413939D01*
X198116052Y-61413948D01*
X198203598Y-61544969D01*
X198203601Y-61544973D01*
X198315026Y-61656398D01*
X198315034Y-61656404D01*
X198446047Y-61743944D01*
X198446065Y-61743954D01*
X198574999Y-61797360D01*
X198575000Y-61797360D01*
X198575000Y-61201988D01*
X198584940Y-61219205D01*
X198640795Y-61275060D01*
X198709204Y-61314556D01*
X198785504Y-61335000D01*
X198864496Y-61335000D01*
X198940796Y-61314556D01*
X199009205Y-61275060D01*
X199065060Y-61219205D01*
X199075000Y-61201988D01*
X199075000Y-61797360D01*
X199203934Y-61743954D01*
X199203952Y-61743944D01*
X199334965Y-61656404D01*
X199334973Y-61656398D01*
X199446398Y-61544973D01*
X199446401Y-61544969D01*
X199533947Y-61413948D01*
X199533952Y-61413939D01*
X199594256Y-61268351D01*
X199594258Y-61268343D01*
X199624999Y-61113797D01*
X199625000Y-61113794D01*
X199625000Y-60985000D01*
X199125000Y-60985000D01*
X199125000Y-60485000D01*
X199625000Y-60485000D01*
X199625000Y-60356206D01*
X199624999Y-60356202D01*
X199594258Y-60201656D01*
X199594256Y-60201648D01*
X199533952Y-60056060D01*
X199533947Y-60056051D01*
X199482056Y-59978391D01*
X199461178Y-59911714D01*
X199479662Y-59844333D01*
X199531641Y-59797643D01*
X199585158Y-59785500D01*
X206704842Y-59785500D01*
X206771881Y-59805185D01*
X206817636Y-59857989D01*
X206827580Y-59927147D01*
X206807944Y-59978391D01*
X206756052Y-60056051D01*
X206756047Y-60056060D01*
X206695743Y-60201648D01*
X206695741Y-60201656D01*
X206665000Y-60356202D01*
X206665000Y-60485000D01*
X207165000Y-60485000D01*
X207165000Y-60985000D01*
X206665000Y-60985000D01*
X206665000Y-61113797D01*
X206695741Y-61268343D01*
X206695743Y-61268351D01*
X206756047Y-61413939D01*
X206756052Y-61413948D01*
X206843598Y-61544969D01*
X206843601Y-61544973D01*
X206955026Y-61656398D01*
X206955034Y-61656404D01*
X207086047Y-61743944D01*
X207086065Y-61743954D01*
X207214999Y-61797360D01*
X207215000Y-61797360D01*
X207215000Y-61201988D01*
X207224940Y-61219205D01*
X207280795Y-61275060D01*
X207349204Y-61314556D01*
X207425504Y-61335000D01*
X207504496Y-61335000D01*
X207580796Y-61314556D01*
X207649205Y-61275060D01*
X207705060Y-61219205D01*
X207715000Y-61201988D01*
X207715000Y-61797360D01*
X207843934Y-61743954D01*
X207843952Y-61743944D01*
X207974965Y-61656404D01*
X207974973Y-61656398D01*
X208086398Y-61544973D01*
X208086401Y-61544969D01*
X208173947Y-61413948D01*
X208173952Y-61413939D01*
X208234256Y-61268351D01*
X208234258Y-61268343D01*
X208264999Y-61113797D01*
X208265000Y-61113794D01*
X208265000Y-60985000D01*
X207765000Y-60985000D01*
X207765000Y-60485000D01*
X208265000Y-60485000D01*
X208265000Y-60356206D01*
X208264999Y-60356202D01*
X208234258Y-60201656D01*
X208234256Y-60201648D01*
X208173952Y-60056060D01*
X208173947Y-60056051D01*
X208122056Y-59978391D01*
X208101178Y-59911714D01*
X208119662Y-59844333D01*
X208171641Y-59797643D01*
X208225158Y-59785500D01*
X210560500Y-59785500D01*
X210627539Y-59805185D01*
X210673294Y-59857989D01*
X210684500Y-59909500D01*
X210684500Y-61552870D01*
X210684501Y-61552876D01*
X210690908Y-61612483D01*
X210741202Y-61747328D01*
X210741206Y-61747335D01*
X210827452Y-61862544D01*
X210827455Y-61862547D01*
X210942664Y-61948793D01*
X210942671Y-61948797D01*
X211074082Y-61997810D01*
X211130016Y-62039681D01*
X211154433Y-62105145D01*
X211139582Y-62173418D01*
X211118431Y-62201673D01*
X211004889Y-62315215D01*
X210879951Y-62487179D01*
X210783444Y-62676585D01*
X210717753Y-62878760D01*
X210684500Y-63088713D01*
X210684500Y-63301287D01*
X210717754Y-63511243D01*
X210719377Y-63516239D01*
X210783444Y-63713414D01*
X210879951Y-63902820D01*
X211004890Y-64074786D01*
X211155213Y-64225109D01*
X211327179Y-64350048D01*
X211327181Y-64350049D01*
X211327184Y-64350051D01*
X211516588Y-64446557D01*
X211545753Y-64456033D01*
X211603426Y-64495468D01*
X211630625Y-64559826D01*
X211618712Y-64628673D01*
X211571469Y-64680149D01*
X211563730Y-64684447D01*
X211432269Y-64751431D01*
X211416466Y-64762912D01*
X211416466Y-64762913D01*
X211905591Y-65252037D01*
X211842007Y-65269075D01*
X211727993Y-65334901D01*
X211634901Y-65427993D01*
X211569075Y-65542007D01*
X211552037Y-65605590D01*
X211062913Y-65116466D01*
X211062912Y-65116466D01*
X211051432Y-65132269D01*
X210969254Y-65293547D01*
X210969251Y-65293555D01*
X210913317Y-65465706D01*
X210885000Y-65644493D01*
X210885000Y-65825506D01*
X210913317Y-66004293D01*
X210969251Y-66176444D01*
X210969252Y-66176447D01*
X211051431Y-66337730D01*
X211062913Y-66353532D01*
X211062913Y-66353533D01*
X211552037Y-65864409D01*
X211569075Y-65927993D01*
X211634901Y-66042007D01*
X211727993Y-66135099D01*
X211842007Y-66200925D01*
X211905590Y-66217962D01*
X211416466Y-66707085D01*
X211416466Y-66707086D01*
X211432267Y-66718566D01*
X211432275Y-66718571D01*
X211563729Y-66785551D01*
X211614525Y-66833526D01*
X211631320Y-66901347D01*
X211608782Y-66967482D01*
X211554067Y-67010933D01*
X211545761Y-67013964D01*
X211535716Y-67017227D01*
X211516583Y-67023444D01*
X211327179Y-67119951D01*
X211155213Y-67244890D01*
X211004890Y-67395213D01*
X210879951Y-67567179D01*
X210783444Y-67756585D01*
X210717753Y-67958760D01*
X210684500Y-68168713D01*
X210684500Y-68381286D01*
X210714127Y-68568348D01*
X210717754Y-68591243D01*
X210741505Y-68664342D01*
X210783444Y-68793414D01*
X210879951Y-68982820D01*
X211004890Y-69154786D01*
X211155213Y-69305109D01*
X211327182Y-69430050D01*
X211335946Y-69434516D01*
X211386742Y-69482491D01*
X211403536Y-69550312D01*
X211380998Y-69616447D01*
X211335946Y-69655484D01*
X211327182Y-69659949D01*
X211155213Y-69784890D01*
X211004890Y-69935213D01*
X210879951Y-70107179D01*
X210783444Y-70296585D01*
X210717753Y-70498760D01*
X210684500Y-70708713D01*
X210684500Y-70921286D01*
X210714127Y-71108348D01*
X210717754Y-71131243D01*
X210741505Y-71204342D01*
X210783444Y-71333414D01*
X210879951Y-71522820D01*
X211004890Y-71694786D01*
X211155213Y-71845109D01*
X211327182Y-71970050D01*
X211335946Y-71974516D01*
X211386742Y-72022491D01*
X211403536Y-72090312D01*
X211380998Y-72156447D01*
X211335946Y-72195484D01*
X211327182Y-72199949D01*
X211155213Y-72324890D01*
X211004890Y-72475213D01*
X210879949Y-72647182D01*
X210846318Y-72713186D01*
X210798343Y-72763981D01*
X210730522Y-72780776D01*
X210664387Y-72758238D01*
X210621274Y-72704343D01*
X210578394Y-72600821D01*
X210578390Y-72600814D01*
X210490789Y-72469711D01*
X210490786Y-72469707D01*
X210379292Y-72358213D01*
X210379288Y-72358210D01*
X210248185Y-72270609D01*
X210248172Y-72270602D01*
X210102501Y-72210264D01*
X210102489Y-72210261D01*
X209947845Y-72179500D01*
X209947842Y-72179500D01*
X209790158Y-72179500D01*
X209790155Y-72179500D01*
X209635510Y-72210261D01*
X209635498Y-72210264D01*
X209489827Y-72270602D01*
X209489814Y-72270609D01*
X209358711Y-72358210D01*
X209358707Y-72358213D01*
X209247213Y-72469707D01*
X209247210Y-72469711D01*
X209159609Y-72600814D01*
X209159602Y-72600827D01*
X209099264Y-72746498D01*
X209099261Y-72746508D01*
X209068361Y-72901850D01*
X209035976Y-72963761D01*
X209034425Y-72965339D01*
X206659482Y-75340281D01*
X206659480Y-75340283D01*
X206659480Y-75340284D01*
X206612829Y-75421086D01*
X206612828Y-75421086D01*
X206580424Y-75477212D01*
X206580423Y-75477213D01*
X206570122Y-75515657D01*
X206539499Y-75629943D01*
X206539499Y-75629945D01*
X206539499Y-75798046D01*
X206539500Y-75798059D01*
X206539500Y-80319576D01*
X206536886Y-80328476D01*
X206538174Y-80337663D01*
X206527198Y-80361468D01*
X206519815Y-80386615D01*
X206512805Y-80392689D01*
X206508921Y-80401114D01*
X206486817Y-80415207D01*
X206467011Y-80432370D01*
X206456267Y-80434687D01*
X206450008Y-80438678D01*
X206431131Y-80440107D01*
X206415055Y-80443575D01*
X206404746Y-80443538D01*
X206402492Y-80442934D01*
X206244378Y-80442934D01*
X206244374Y-80442935D01*
X205788766Y-80442935D01*
X205721727Y-80423250D01*
X205719875Y-80422037D01*
X205588185Y-80334044D01*
X205588172Y-80334037D01*
X205442501Y-80273699D01*
X205442489Y-80273696D01*
X205287845Y-80242935D01*
X205287842Y-80242935D01*
X205130158Y-80242935D01*
X205130155Y-80242935D01*
X205058691Y-80257150D01*
X204989100Y-80250923D01*
X204933922Y-80208060D01*
X204910678Y-80142170D01*
X204910500Y-80135533D01*
X204910500Y-79840097D01*
X204919143Y-79810661D01*
X204925666Y-79780673D01*
X204929422Y-79775654D01*
X204930185Y-79773058D01*
X204946811Y-79752423D01*
X204964661Y-79734573D01*
X205025980Y-79701090D01*
X205028150Y-79700638D01*
X205086085Y-79689113D01*
X205183497Y-79669737D01*
X205329179Y-79609394D01*
X205460289Y-79521789D01*
X205571789Y-79410289D01*
X205659394Y-79279179D01*
X205719737Y-79133497D01*
X205750500Y-78978842D01*
X205750500Y-78821158D01*
X205750500Y-78821155D01*
X205750499Y-78821153D01*
X205734756Y-78742007D01*
X205719737Y-78666503D01*
X205661335Y-78525506D01*
X205659397Y-78520827D01*
X205659390Y-78520814D01*
X205571789Y-78389711D01*
X205571786Y-78389707D01*
X205460292Y-78278213D01*
X205460288Y-78278210D01*
X205329185Y-78190609D01*
X205329172Y-78190602D01*
X205183501Y-78130264D01*
X205183489Y-78130261D01*
X205028845Y-78099500D01*
X205028842Y-78099500D01*
X204871158Y-78099500D01*
X204871155Y-78099500D01*
X204716510Y-78130261D01*
X204716498Y-78130264D01*
X204570827Y-78190602D01*
X204570814Y-78190609D01*
X204439711Y-78278210D01*
X204439707Y-78278213D01*
X204328213Y-78389707D01*
X204328210Y-78389711D01*
X204240609Y-78520814D01*
X204240602Y-78520827D01*
X204180264Y-78666498D01*
X204180261Y-78666508D01*
X204149362Y-78821848D01*
X204140596Y-78838604D01*
X204136577Y-78857083D01*
X204117834Y-78882119D01*
X204116977Y-78883759D01*
X204115426Y-78885337D01*
X203941286Y-79059478D01*
X203829481Y-79171282D01*
X203829479Y-79171284D01*
X203814528Y-79197180D01*
X203808209Y-79208127D01*
X203750423Y-79308215D01*
X203709499Y-79460943D01*
X203709499Y-79460945D01*
X203709499Y-79629046D01*
X203709500Y-79629059D01*
X203709500Y-81143329D01*
X203689815Y-81210368D01*
X203637011Y-81256123D01*
X203567853Y-81266067D01*
X203504297Y-81237042D01*
X203497819Y-81231010D01*
X203482657Y-81215848D01*
X203482653Y-81215845D01*
X203351550Y-81128244D01*
X203351537Y-81128237D01*
X203205866Y-81067899D01*
X203205854Y-81067896D01*
X203051210Y-81037135D01*
X203051207Y-81037135D01*
X202893523Y-81037135D01*
X202893520Y-81037135D01*
X202738875Y-81067896D01*
X202738863Y-81067899D01*
X202593192Y-81128237D01*
X202593179Y-81128244D01*
X202462076Y-81215845D01*
X202462072Y-81215848D01*
X202350578Y-81327342D01*
X202350575Y-81327346D01*
X202262974Y-81458449D01*
X202262967Y-81458462D01*
X202202629Y-81604133D01*
X202202626Y-81604145D01*
X202171865Y-81758788D01*
X202171865Y-81916481D01*
X202202626Y-82071124D01*
X202202629Y-82071136D01*
X202262967Y-82216807D01*
X202262974Y-82216820D01*
X202350575Y-82347923D01*
X202350578Y-82347927D01*
X202462073Y-82459422D01*
X202462076Y-82459424D01*
X202544392Y-82514426D01*
X202589195Y-82568035D01*
X202599500Y-82617526D01*
X202599500Y-84193005D01*
X202599499Y-84193009D01*
X202599500Y-84279481D01*
X202599500Y-84351122D01*
X202639010Y-84498576D01*
X202640424Y-84503851D01*
X202640425Y-84503854D01*
X202677797Y-84568583D01*
X202677816Y-84568615D01*
X202678241Y-84569351D01*
X202719481Y-84640782D01*
X202722698Y-84643999D01*
X202729022Y-84654620D01*
X202732569Y-84668429D01*
X202744093Y-84693863D01*
X202775261Y-84850555D01*
X202775264Y-84850565D01*
X202835602Y-84996236D01*
X202835609Y-84996249D01*
X202923210Y-85127352D01*
X202923213Y-85127356D01*
X203034707Y-85238850D01*
X203034711Y-85238853D01*
X203165814Y-85326454D01*
X203165827Y-85326461D01*
X203311498Y-85386799D01*
X203311503Y-85386801D01*
X203466153Y-85417563D01*
X203466156Y-85417564D01*
X203466158Y-85417564D01*
X203623844Y-85417564D01*
X203623845Y-85417563D01*
X203778497Y-85386801D01*
X203924179Y-85326458D01*
X204055289Y-85238853D01*
X204166789Y-85127353D01*
X204254394Y-84996243D01*
X204314737Y-84850561D01*
X204345500Y-84695906D01*
X204345500Y-84538222D01*
X204345500Y-84538219D01*
X204345499Y-84538217D01*
X204336310Y-84492020D01*
X204314737Y-84383567D01*
X204273342Y-84283630D01*
X204254397Y-84237891D01*
X204254390Y-84237878D01*
X204166789Y-84106775D01*
X204166786Y-84106771D01*
X204055292Y-83995277D01*
X204055288Y-83995274D01*
X203924185Y-83907673D01*
X203924173Y-83907667D01*
X203877045Y-83888145D01*
X203822643Y-83844303D01*
X203800579Y-83778009D01*
X203800500Y-83773585D01*
X203800500Y-82154330D01*
X203800501Y-82154317D01*
X203800501Y-81986214D01*
X203793095Y-81958576D01*
X203782475Y-81918940D01*
X203784138Y-81849091D01*
X203823300Y-81791228D01*
X203887529Y-81763724D01*
X203956431Y-81775310D01*
X203989931Y-81799166D01*
X206014404Y-83823639D01*
X206014414Y-83823650D01*
X206018744Y-83827980D01*
X206018745Y-83827981D01*
X206130549Y-83939785D01*
X206130551Y-83939786D01*
X206180667Y-83968720D01*
X206206345Y-83988423D01*
X206256334Y-84038412D01*
X206298977Y-84081055D01*
X206430079Y-84168655D01*
X206430092Y-84168662D01*
X206560843Y-84222820D01*
X206575768Y-84229002D01*
X206730418Y-84259764D01*
X206730421Y-84259765D01*
X206730423Y-84259765D01*
X206888109Y-84259765D01*
X206888110Y-84259764D01*
X207042762Y-84229002D01*
X207188444Y-84168659D01*
X207319554Y-84081054D01*
X207431054Y-83969554D01*
X207518659Y-83838444D01*
X207525086Y-83822929D01*
X207579000Y-83692766D01*
X207579002Y-83692762D01*
X207609765Y-83538107D01*
X207609765Y-83538099D01*
X207609779Y-83537959D01*
X207609821Y-83537827D01*
X207610954Y-83532133D01*
X207611608Y-83532263D01*
X207613012Y-83527894D01*
X207612678Y-83520874D01*
X207625793Y-83488112D01*
X207679438Y-83395196D01*
X207699577Y-83360315D01*
X207740501Y-83207587D01*
X207740501Y-83049473D01*
X207740501Y-83041878D01*
X207740500Y-83041860D01*
X207740500Y-76009097D01*
X207760185Y-75942058D01*
X207776819Y-75921416D01*
X208828345Y-74869890D01*
X209883662Y-73814572D01*
X209944983Y-73781089D01*
X209947150Y-73780638D01*
X210005085Y-73769113D01*
X210102497Y-73749737D01*
X210248179Y-73689394D01*
X210379289Y-73601789D01*
X210489897Y-73491180D01*
X210551218Y-73457697D01*
X210620910Y-73462681D01*
X210676844Y-73504552D01*
X210700050Y-73559465D01*
X210714127Y-73648348D01*
X210717754Y-73671243D01*
X210764325Y-73814574D01*
X210783444Y-73873414D01*
X210879951Y-74062820D01*
X211004890Y-74234786D01*
X211155213Y-74385109D01*
X211327182Y-74510050D01*
X211335946Y-74514516D01*
X211386742Y-74562491D01*
X211403536Y-74630312D01*
X211380998Y-74696447D01*
X211335946Y-74735484D01*
X211327182Y-74739949D01*
X211155213Y-74864890D01*
X211004890Y-75015213D01*
X210879951Y-75187179D01*
X210783444Y-75376585D01*
X210717753Y-75578760D01*
X210684500Y-75788713D01*
X210684500Y-76001286D01*
X210714127Y-76188348D01*
X210717754Y-76211243D01*
X210741505Y-76284342D01*
X210783444Y-76413414D01*
X210879951Y-76602820D01*
X211004890Y-76774786D01*
X211155213Y-76925109D01*
X211327179Y-77050048D01*
X211327181Y-77050049D01*
X211327184Y-77050051D01*
X211516588Y-77146557D01*
X211545753Y-77156033D01*
X211603426Y-77195468D01*
X211630625Y-77259826D01*
X211618712Y-77328673D01*
X211571469Y-77380149D01*
X211563730Y-77384447D01*
X211432269Y-77451431D01*
X211416466Y-77462912D01*
X211416466Y-77462913D01*
X211905591Y-77952037D01*
X211842007Y-77969075D01*
X211727993Y-78034901D01*
X211634901Y-78127993D01*
X211569075Y-78242007D01*
X211552037Y-78305590D01*
X211062913Y-77816466D01*
X211062912Y-77816466D01*
X211051432Y-77832269D01*
X210969254Y-77993547D01*
X210969251Y-77993555D01*
X210913317Y-78165706D01*
X210885000Y-78344493D01*
X210885000Y-78525506D01*
X210913317Y-78704293D01*
X210969251Y-78876444D01*
X210969252Y-78876447D01*
X211051431Y-79037730D01*
X211062913Y-79053532D01*
X211062913Y-79053533D01*
X211552037Y-78564409D01*
X211569075Y-78627993D01*
X211634901Y-78742007D01*
X211727993Y-78835099D01*
X211842007Y-78900925D01*
X211905590Y-78917962D01*
X211416466Y-79407085D01*
X211416466Y-79407086D01*
X211432267Y-79418566D01*
X211432275Y-79418571D01*
X211563729Y-79485551D01*
X211614525Y-79533526D01*
X211631320Y-79601347D01*
X211608782Y-79667482D01*
X211554067Y-79710933D01*
X211545761Y-79713964D01*
X211535716Y-79717227D01*
X211516583Y-79723444D01*
X211327179Y-79819951D01*
X211155213Y-79944890D01*
X211004890Y-80095213D01*
X210879951Y-80267179D01*
X210783444Y-80456585D01*
X210717753Y-80658760D01*
X210684500Y-80868713D01*
X210684500Y-81081286D01*
X210714127Y-81268348D01*
X210717754Y-81291243D01*
X210741505Y-81364342D01*
X210783444Y-81493414D01*
X210879951Y-81682820D01*
X211004890Y-81854786D01*
X211155213Y-82005109D01*
X211327182Y-82130050D01*
X211335946Y-82134516D01*
X211386742Y-82182491D01*
X211403536Y-82250312D01*
X211380998Y-82316447D01*
X211335946Y-82355484D01*
X211327182Y-82359949D01*
X211155213Y-82484890D01*
X211004890Y-82635213D01*
X210879951Y-82807179D01*
X210783444Y-82996585D01*
X210717753Y-83198760D01*
X210684500Y-83408713D01*
X210684500Y-83621286D01*
X210716959Y-83826228D01*
X210717754Y-83831243D01*
X210780818Y-84025334D01*
X210783444Y-84033414D01*
X210879951Y-84222820D01*
X211004890Y-84394786D01*
X211155213Y-84545109D01*
X211327182Y-84670050D01*
X211335946Y-84674516D01*
X211386742Y-84722491D01*
X211403536Y-84790312D01*
X211380998Y-84856447D01*
X211335946Y-84895484D01*
X211327182Y-84899949D01*
X211155213Y-85024890D01*
X211004890Y-85175213D01*
X210879951Y-85347179D01*
X210783444Y-85536585D01*
X210717753Y-85738760D01*
X210691517Y-85904411D01*
X210684500Y-85948713D01*
X210684500Y-86161287D01*
X210694106Y-86221936D01*
X210717754Y-86371244D01*
X210717754Y-86371247D01*
X210731491Y-86413523D01*
X210733486Y-86483364D01*
X210701241Y-86539522D01*
X210351286Y-86889478D01*
X210239481Y-87001282D01*
X210239479Y-87001284D01*
X210232946Y-87012601D01*
X210208179Y-87055500D01*
X210160423Y-87138215D01*
X210119499Y-87290943D01*
X210119499Y-87290945D01*
X210119499Y-87459046D01*
X210119500Y-87459059D01*
X210119500Y-90120846D01*
X210113261Y-90142091D01*
X210111682Y-90164180D01*
X210103609Y-90174963D01*
X210099815Y-90187885D01*
X210083081Y-90202384D01*
X210069810Y-90220113D01*
X210057189Y-90224820D01*
X210047011Y-90233640D01*
X210025093Y-90236791D01*
X210004346Y-90244530D01*
X209991185Y-90241667D01*
X209977853Y-90243584D01*
X209957709Y-90234384D01*
X209936073Y-90229678D01*
X209918347Y-90216409D01*
X209914297Y-90214559D01*
X209907819Y-90208527D01*
X209873629Y-90174337D01*
X209873627Y-90174334D01*
X209754756Y-90055463D01*
X209754755Y-90055462D01*
X209667943Y-90005342D01*
X209667943Y-90005341D01*
X209667939Y-90005340D01*
X209617824Y-89976405D01*
X209465096Y-89935481D01*
X209306982Y-89935481D01*
X209299386Y-89935481D01*
X209299370Y-89935482D01*
X205921178Y-89935482D01*
X205854139Y-89915797D01*
X205852287Y-89914584D01*
X205720597Y-89826591D01*
X205720584Y-89826584D01*
X205574913Y-89766246D01*
X205574901Y-89766243D01*
X205420257Y-89735482D01*
X205420254Y-89735482D01*
X205262570Y-89735482D01*
X205262567Y-89735482D01*
X205107922Y-89766243D01*
X205107910Y-89766246D01*
X204962239Y-89826584D01*
X204962226Y-89826591D01*
X204831123Y-89914192D01*
X204831119Y-89914195D01*
X204719629Y-90025686D01*
X204719626Y-90025689D01*
X204688935Y-90071620D01*
X204635322Y-90116424D01*
X204565996Y-90125130D01*
X204538387Y-90117290D01*
X204533501Y-90115266D01*
X204533488Y-90115262D01*
X204378845Y-90084502D01*
X204378842Y-90084502D01*
X204221158Y-90084502D01*
X204221155Y-90084502D01*
X204066510Y-90115263D01*
X204066498Y-90115266D01*
X203920828Y-90175604D01*
X203920814Y-90175612D01*
X203897043Y-90191495D01*
X203830365Y-90212371D01*
X203780703Y-90202952D01*
X203653501Y-90150264D01*
X203653489Y-90150261D01*
X203498845Y-90119500D01*
X203498842Y-90119500D01*
X203341158Y-90119500D01*
X203341155Y-90119500D01*
X203186510Y-90150261D01*
X203186498Y-90150264D01*
X203040827Y-90210602D01*
X203040814Y-90210609D01*
X202909125Y-90298602D01*
X202842447Y-90319480D01*
X202840234Y-90319500D01*
X202760943Y-90319500D01*
X202608215Y-90360423D01*
X202581846Y-90375647D01*
X202574780Y-90379727D01*
X202574779Y-90379726D01*
X202471287Y-90439477D01*
X202471282Y-90439481D01*
X202050131Y-90860633D01*
X201988808Y-90894118D01*
X201919116Y-90889134D01*
X201863183Y-90847262D01*
X201838766Y-90781798D01*
X201838450Y-90772952D01*
X201838450Y-88680828D01*
X201838451Y-88680815D01*
X201838451Y-88512713D01*
X201838451Y-88512711D01*
X201797527Y-88359983D01*
X201718470Y-88223052D01*
X201522712Y-88027294D01*
X201489227Y-87965971D01*
X201486393Y-87939613D01*
X201486393Y-87012601D01*
X201506078Y-86945562D01*
X201541502Y-86909499D01*
X201547659Y-86905386D01*
X201659159Y-86793886D01*
X201746764Y-86662776D01*
X201807107Y-86517094D01*
X201837870Y-86362439D01*
X201837870Y-86204755D01*
X201837870Y-86204752D01*
X201837869Y-86204750D01*
X201819109Y-86110439D01*
X201807107Y-86050100D01*
X201777789Y-85979319D01*
X201746767Y-85904424D01*
X201746760Y-85904411D01*
X201659159Y-85773308D01*
X201659156Y-85773304D01*
X201547662Y-85661810D01*
X201547658Y-85661807D01*
X201416555Y-85574206D01*
X201416542Y-85574199D01*
X201270871Y-85513861D01*
X201270859Y-85513858D01*
X201116215Y-85483097D01*
X201116212Y-85483097D01*
X200958528Y-85483097D01*
X200958525Y-85483097D01*
X200803880Y-85513858D01*
X200803868Y-85513861D01*
X200658197Y-85574199D01*
X200658184Y-85574206D01*
X200527081Y-85661807D01*
X200527077Y-85661810D01*
X200415583Y-85773304D01*
X200415580Y-85773308D01*
X200327979Y-85904411D01*
X200327972Y-85904424D01*
X200267634Y-86050095D01*
X200267631Y-86050107D01*
X200236870Y-86204750D01*
X200236870Y-86362443D01*
X200267631Y-86517086D01*
X200267633Y-86517094D01*
X200275954Y-86537182D01*
X200285393Y-86584635D01*
X200285393Y-88133356D01*
X200265708Y-88200395D01*
X200232363Y-88234340D01*
X200232369Y-88234347D01*
X200232310Y-88234395D01*
X200230284Y-88236458D01*
X200227661Y-88238210D01*
X200227657Y-88238213D01*
X200116163Y-88349707D01*
X200116160Y-88349711D01*
X200028559Y-88480814D01*
X200028552Y-88480827D01*
X199968214Y-88626498D01*
X199968211Y-88626510D01*
X199937450Y-88781153D01*
X199937450Y-88938846D01*
X199968211Y-89093489D01*
X199968214Y-89093501D01*
X199971376Y-89101134D01*
X199978845Y-89170604D01*
X199947569Y-89233083D01*
X199944496Y-89236267D01*
X197977584Y-91203181D01*
X197916261Y-91236666D01*
X197889903Y-91239500D01*
X196670097Y-91239500D01*
X196603058Y-91219815D01*
X196582416Y-91203181D01*
X195947819Y-90568584D01*
X195914334Y-90507261D01*
X195911500Y-90480903D01*
X195911500Y-85351583D01*
X195911500Y-85339061D01*
X195911501Y-85339058D01*
X195911501Y-85180943D01*
X195903296Y-85150323D01*
X195902736Y-85136574D01*
X195908003Y-85115494D01*
X195908520Y-85093769D01*
X195916307Y-85082263D01*
X195919674Y-85068789D01*
X195935501Y-85053903D01*
X195947682Y-85035906D01*
X195960451Y-85030437D01*
X195970570Y-85020921D01*
X195991935Y-85016955D01*
X196011910Y-85008401D01*
X196025608Y-85010704D01*
X196039267Y-85008169D01*
X196059385Y-85016383D01*
X196080813Y-85019987D01*
X196097755Y-85032051D01*
X196103952Y-85034582D01*
X196106592Y-85038344D01*
X196114314Y-85043843D01*
X196685462Y-85614991D01*
X196718947Y-85676314D01*
X196719398Y-85678480D01*
X196750261Y-85833638D01*
X196750264Y-85833648D01*
X196810602Y-85979319D01*
X196810609Y-85979332D01*
X196898210Y-86110435D01*
X196898213Y-86110439D01*
X197009707Y-86221933D01*
X197009711Y-86221936D01*
X197140814Y-86309537D01*
X197140827Y-86309544D01*
X197286498Y-86369882D01*
X197286503Y-86369884D01*
X197441153Y-86400646D01*
X197441156Y-86400647D01*
X197441158Y-86400647D01*
X197598844Y-86400647D01*
X197598845Y-86400646D01*
X197753497Y-86369884D01*
X197899179Y-86309541D01*
X198030289Y-86221936D01*
X198141789Y-86110436D01*
X198229394Y-85979326D01*
X198289737Y-85833644D01*
X198320500Y-85678989D01*
X198320500Y-85521305D01*
X198320500Y-85521302D01*
X198320499Y-85521300D01*
X198299864Y-85417563D01*
X198289737Y-85366650D01*
X198229394Y-85220968D01*
X198220779Y-85208074D01*
X198199901Y-85141401D01*
X198218384Y-85074020D01*
X198236196Y-85051508D01*
X198241789Y-85045916D01*
X198329394Y-84914806D01*
X198389737Y-84769124D01*
X198420500Y-84614469D01*
X198420500Y-84456785D01*
X198420500Y-84456782D01*
X198420499Y-84456780D01*
X198408169Y-84394792D01*
X198389737Y-84302130D01*
X198363123Y-84237878D01*
X198329397Y-84156454D01*
X198329390Y-84156441D01*
X198241789Y-84025338D01*
X198241786Y-84025334D01*
X198130292Y-83913840D01*
X198130288Y-83913837D01*
X197999185Y-83826236D01*
X197999169Y-83826228D01*
X197997038Y-83825345D01*
X197996094Y-83824584D01*
X197993809Y-83823363D01*
X197994040Y-83822929D01*
X197942638Y-83781500D01*
X197920579Y-83715204D01*
X197920500Y-83710788D01*
X197920500Y-70378102D01*
X197920500Y-70378100D01*
X197879803Y-70226214D01*
X197879577Y-70225372D01*
X197850639Y-70175252D01*
X197800520Y-70088441D01*
X197688716Y-69976637D01*
X197688715Y-69976636D01*
X197684385Y-69972306D01*
X197684374Y-69972296D01*
X197646819Y-69934741D01*
X197613334Y-69873418D01*
X197610500Y-69847060D01*
X197610500Y-68072907D01*
X197630185Y-68005868D01*
X197631398Y-68004016D01*
X197719390Y-67872327D01*
X197719390Y-67872326D01*
X197719394Y-67872321D01*
X197779737Y-67726639D01*
X197810500Y-67571984D01*
X197810500Y-67414300D01*
X197810500Y-67414297D01*
X197810499Y-67414295D01*
X197806702Y-67395208D01*
X197779737Y-67259645D01*
X197779735Y-67259640D01*
X197719397Y-67113969D01*
X197719390Y-67113956D01*
X197631789Y-66982853D01*
X197631786Y-66982849D01*
X197520292Y-66871355D01*
X197520288Y-66871352D01*
X197389185Y-66783751D01*
X197389172Y-66783744D01*
X197243501Y-66723406D01*
X197243489Y-66723403D01*
X197088845Y-66692642D01*
X197088842Y-66692642D01*
X196931158Y-66692642D01*
X196931155Y-66692642D01*
X196776510Y-66723403D01*
X196776498Y-66723406D01*
X196630827Y-66783744D01*
X196630814Y-66783751D01*
X196499711Y-66871352D01*
X196499707Y-66871355D01*
X196388213Y-66982849D01*
X196388210Y-66982853D01*
X196300609Y-67113956D01*
X196300606Y-67113963D01*
X196271072Y-67185263D01*
X196227230Y-67239666D01*
X196180714Y-67259424D01*
X196176512Y-67260260D01*
X196176500Y-67260263D01*
X196030827Y-67320602D01*
X196030814Y-67320609D01*
X195899711Y-67408210D01*
X195899707Y-67408213D01*
X195788213Y-67519707D01*
X195788210Y-67519711D01*
X195700609Y-67650814D01*
X195700603Y-67650825D01*
X195693457Y-67668077D01*
X195649613Y-67722478D01*
X195583318Y-67744540D01*
X195515620Y-67727258D01*
X195468413Y-67676913D01*
X195415050Y-67572182D01*
X195290109Y-67400213D01*
X195139786Y-67249890D01*
X194967820Y-67124951D01*
X194778414Y-67028444D01*
X194778413Y-67028443D01*
X194778412Y-67028443D01*
X194749246Y-67018966D01*
X194691571Y-66979529D01*
X194664373Y-66915171D01*
X194676288Y-66846324D01*
X194723532Y-66794849D01*
X194731270Y-66790551D01*
X194862732Y-66723566D01*
X194878532Y-66712085D01*
X194878533Y-66712085D01*
X194389410Y-66222962D01*
X194452993Y-66205925D01*
X194567007Y-66140099D01*
X194660099Y-66047007D01*
X194725925Y-65932993D01*
X194742962Y-65869410D01*
X195232085Y-66358533D01*
X195232085Y-66358532D01*
X195243568Y-66342730D01*
X195325745Y-66181452D01*
X195325748Y-66181444D01*
X195381682Y-66009293D01*
X195410000Y-65830506D01*
X195410000Y-65649493D01*
X195381682Y-65470706D01*
X195325748Y-65298555D01*
X195325746Y-65298552D01*
X195260212Y-65169933D01*
X195260211Y-65169931D01*
X195243574Y-65137280D01*
X195243566Y-65137267D01*
X195232085Y-65121466D01*
X194742962Y-65610589D01*
X194725925Y-65547007D01*
X194660099Y-65432993D01*
X194567007Y-65339901D01*
X194452993Y-65274075D01*
X194389409Y-65257037D01*
X194878533Y-64767913D01*
X194862727Y-64756429D01*
X194731269Y-64689447D01*
X194680474Y-64641473D01*
X194663679Y-64573651D01*
X194686217Y-64507517D01*
X194740932Y-64464066D01*
X194749216Y-64461043D01*
X194778412Y-64451557D01*
X194967816Y-64355051D01*
X195008484Y-64325504D01*
X195062579Y-64286202D01*
X198025000Y-64286202D01*
X198025000Y-64665000D01*
X198525000Y-64665000D01*
X198525000Y-65165000D01*
X198025000Y-65165000D01*
X198025000Y-65543797D01*
X198055741Y-65698343D01*
X198055743Y-65698351D01*
X198116047Y-65843939D01*
X198116052Y-65843948D01*
X198203598Y-65974969D01*
X198203601Y-65974973D01*
X198315026Y-66086398D01*
X198315034Y-66086404D01*
X198446047Y-66173944D01*
X198446065Y-66173954D01*
X198574999Y-66227360D01*
X198575000Y-66227360D01*
X198575000Y-65631988D01*
X198584940Y-65649205D01*
X198640795Y-65705060D01*
X198709204Y-65744556D01*
X198785504Y-65765000D01*
X198864496Y-65765000D01*
X198940796Y-65744556D01*
X199009205Y-65705060D01*
X199065060Y-65649205D01*
X199075000Y-65631988D01*
X199075000Y-66227360D01*
X199203934Y-66173954D01*
X199203952Y-66173944D01*
X199334965Y-66086404D01*
X199334973Y-66086398D01*
X199446398Y-65974973D01*
X199446401Y-65974969D01*
X199533947Y-65843948D01*
X199533952Y-65843939D01*
X199594256Y-65698351D01*
X199594258Y-65698343D01*
X199624999Y-65543797D01*
X199625000Y-65543794D01*
X199625000Y-65165000D01*
X199125000Y-65165000D01*
X199125000Y-64665000D01*
X199676362Y-64665000D01*
X199676362Y-64666884D01*
X199722320Y-64670163D01*
X199778261Y-64712024D01*
X199786391Y-64724346D01*
X199794485Y-64738365D01*
X199901635Y-64845515D01*
X200032865Y-64921281D01*
X200179234Y-64960500D01*
X200179236Y-64960500D01*
X200330764Y-64960500D01*
X200330766Y-64960500D01*
X200477135Y-64921281D01*
X200608365Y-64845515D01*
X200715515Y-64738365D01*
X200791281Y-64607135D01*
X200830500Y-64460766D01*
X200830500Y-64309234D01*
X205459500Y-64309234D01*
X205459500Y-64460765D01*
X205498719Y-64607136D01*
X205533215Y-64666884D01*
X205574485Y-64738365D01*
X205681635Y-64845515D01*
X205812865Y-64921281D01*
X205959234Y-64960500D01*
X205959236Y-64960500D01*
X206110764Y-64960500D01*
X206110766Y-64960500D01*
X206257135Y-64921281D01*
X206388365Y-64845515D01*
X206495515Y-64738365D01*
X206503604Y-64724353D01*
X206554168Y-64676139D01*
X206622774Y-64662914D01*
X206627985Y-64665000D01*
X207165000Y-64665000D01*
X207165000Y-65165000D01*
X206665000Y-65165000D01*
X206665000Y-65543797D01*
X206695741Y-65698343D01*
X206695743Y-65698351D01*
X206756047Y-65843939D01*
X206756052Y-65843948D01*
X206843598Y-65974969D01*
X206843601Y-65974973D01*
X206955026Y-66086398D01*
X206955034Y-66086404D01*
X207086047Y-66173944D01*
X207086065Y-66173954D01*
X207214999Y-66227360D01*
X207215000Y-66227360D01*
X207215000Y-65631988D01*
X207224940Y-65649205D01*
X207280795Y-65705060D01*
X207349204Y-65744556D01*
X207425504Y-65765000D01*
X207504496Y-65765000D01*
X207580796Y-65744556D01*
X207649205Y-65705060D01*
X207705060Y-65649205D01*
X207715000Y-65631988D01*
X207715000Y-66227360D01*
X207843934Y-66173954D01*
X207843952Y-66173944D01*
X207974965Y-66086404D01*
X207974973Y-66086398D01*
X208086398Y-65974973D01*
X208086401Y-65974969D01*
X208173947Y-65843948D01*
X208173952Y-65843939D01*
X208234256Y-65698352D01*
X208250750Y-65615430D01*
X208250751Y-65615426D01*
X208264999Y-65543796D01*
X208265000Y-65543794D01*
X208265000Y-65165000D01*
X207765000Y-65165000D01*
X207765000Y-64665000D01*
X208265000Y-64665000D01*
X208265000Y-64286206D01*
X208264999Y-64286202D01*
X208234258Y-64131656D01*
X208234256Y-64131648D01*
X208173952Y-63986060D01*
X208173947Y-63986051D01*
X208086401Y-63855030D01*
X208086398Y-63855026D01*
X207974973Y-63743601D01*
X207974969Y-63743598D01*
X207843948Y-63656052D01*
X207843938Y-63656047D01*
X207715000Y-63602639D01*
X207715000Y-64198011D01*
X207705060Y-64180795D01*
X207649205Y-64124940D01*
X207580796Y-64085444D01*
X207504496Y-64065000D01*
X207425504Y-64065000D01*
X207349204Y-64085444D01*
X207280795Y-64124940D01*
X207224940Y-64180795D01*
X207215000Y-64198011D01*
X207215000Y-63602639D01*
X207214999Y-63602639D01*
X207086061Y-63656047D01*
X207086051Y-63656052D01*
X206955030Y-63743598D01*
X206955026Y-63743601D01*
X206843601Y-63855026D01*
X206843598Y-63855030D01*
X206756052Y-63986051D01*
X206756049Y-63986057D01*
X206732446Y-64043040D01*
X206688604Y-64097443D01*
X206622310Y-64119507D01*
X206554611Y-64102227D01*
X206510498Y-64057587D01*
X206495515Y-64031635D01*
X206388365Y-63924485D01*
X206322750Y-63886602D01*
X206257136Y-63848719D01*
X206183950Y-63829109D01*
X206110766Y-63809500D01*
X205959234Y-63809500D01*
X205812863Y-63848719D01*
X205681635Y-63924485D01*
X205681632Y-63924487D01*
X205574487Y-64031632D01*
X205574485Y-64031635D01*
X205498719Y-64162863D01*
X205459500Y-64309234D01*
X200830500Y-64309234D01*
X200791281Y-64162865D01*
X200715515Y-64031635D01*
X200608365Y-63924485D01*
X200542750Y-63886602D01*
X200477136Y-63848719D01*
X200403950Y-63829109D01*
X200330766Y-63809500D01*
X200179234Y-63809500D01*
X200032863Y-63848719D01*
X199901635Y-63924485D01*
X199901632Y-63924487D01*
X199794487Y-64031632D01*
X199794481Y-64031641D01*
X199779499Y-64057589D01*
X199728931Y-64105803D01*
X199660324Y-64119024D01*
X199595460Y-64093054D01*
X199557553Y-64043038D01*
X199533954Y-63986064D01*
X199533947Y-63986051D01*
X199446401Y-63855030D01*
X199446398Y-63855026D01*
X199334973Y-63743601D01*
X199334969Y-63743598D01*
X199203948Y-63656052D01*
X199203938Y-63656047D01*
X199075000Y-63602639D01*
X199075000Y-64198011D01*
X199065060Y-64180795D01*
X199009205Y-64124940D01*
X198940796Y-64085444D01*
X198864496Y-64065000D01*
X198785504Y-64065000D01*
X198709204Y-64085444D01*
X198640795Y-64124940D01*
X198584940Y-64180795D01*
X198575000Y-64198011D01*
X198575000Y-63602639D01*
X198574999Y-63602639D01*
X198446061Y-63656047D01*
X198446051Y-63656052D01*
X198315030Y-63743598D01*
X198315026Y-63743601D01*
X198203601Y-63855026D01*
X198203598Y-63855030D01*
X198116052Y-63986051D01*
X198116047Y-63986060D01*
X198055743Y-64131648D01*
X198055741Y-64131656D01*
X198025000Y-64286202D01*
X195062579Y-64286202D01*
X195139786Y-64230109D01*
X195139788Y-64230106D01*
X195139792Y-64230104D01*
X195290104Y-64079792D01*
X195290106Y-64079788D01*
X195290109Y-64079786D01*
X195415048Y-63907820D01*
X195415047Y-63907820D01*
X195415051Y-63907816D01*
X195511557Y-63718412D01*
X195577246Y-63516243D01*
X195610500Y-63306287D01*
X195610500Y-63093713D01*
X195577246Y-62883757D01*
X195511557Y-62681588D01*
X195415051Y-62492184D01*
X195415049Y-62492181D01*
X195415048Y-62492179D01*
X195290109Y-62320213D01*
X195176569Y-62206673D01*
X195143084Y-62145350D01*
X195148068Y-62075658D01*
X195189940Y-62019725D01*
X195220915Y-62002810D01*
X195352331Y-61953796D01*
X195467546Y-61867546D01*
X195553796Y-61752331D01*
X195604091Y-61617483D01*
X195610500Y-61557873D01*
X195610499Y-60485000D01*
X195610499Y-59909500D01*
X195630183Y-59842461D01*
X195682987Y-59796706D01*
X195734499Y-59785500D01*
X198064842Y-59785500D01*
X198131881Y-59805185D01*
G37*
%TD.AperFunction*%
%TA.AperFunction,Conductor*%
G36*
X193350703Y-89601045D02*
G01*
X193357181Y-89607077D01*
X193380213Y-89630109D01*
X193552179Y-89755048D01*
X193552181Y-89755049D01*
X193552184Y-89755051D01*
X193741588Y-89851557D01*
X193770753Y-89861033D01*
X193828426Y-89900468D01*
X193855625Y-89964826D01*
X193843712Y-90033673D01*
X193796469Y-90085149D01*
X193788730Y-90089447D01*
X193657269Y-90156431D01*
X193641466Y-90167912D01*
X193641466Y-90167913D01*
X194130590Y-90657037D01*
X194067007Y-90674075D01*
X193952993Y-90739901D01*
X193859901Y-90832993D01*
X193794075Y-90947007D01*
X193777037Y-91010590D01*
X193287912Y-90521465D01*
X193279228Y-90522149D01*
X193210851Y-90507784D01*
X193161094Y-90458733D01*
X193145500Y-90398531D01*
X193145500Y-89694758D01*
X193165185Y-89627719D01*
X193217989Y-89581964D01*
X193287147Y-89572020D01*
X193350703Y-89601045D01*
G37*
%TD.AperFunction*%
%TA.AperFunction,Conductor*%
G36*
X213063834Y-89578576D02*
G01*
X213119767Y-89620448D01*
X213144184Y-89685912D01*
X213144500Y-89694758D01*
X213144500Y-90393138D01*
X213124815Y-90460177D01*
X213072011Y-90505932D01*
X213010773Y-90516756D01*
X213007086Y-90516465D01*
X212517962Y-91005589D01*
X212500925Y-90942007D01*
X212435099Y-90827993D01*
X212342007Y-90734901D01*
X212227993Y-90669075D01*
X212164408Y-90652037D01*
X212653533Y-90162913D01*
X212637727Y-90151429D01*
X212506269Y-90084447D01*
X212455474Y-90036473D01*
X212438679Y-89968651D01*
X212461217Y-89902517D01*
X212515932Y-89859066D01*
X212524216Y-89856043D01*
X212553412Y-89846557D01*
X212742816Y-89750051D01*
X212818921Y-89694758D01*
X212914786Y-89625109D01*
X212914788Y-89625106D01*
X212914792Y-89625104D01*
X212932819Y-89607077D01*
X212994142Y-89573592D01*
X213063834Y-89578576D01*
G37*
%TD.AperFunction*%
%TA.AperFunction,Conductor*%
G36*
X195740211Y-76173065D02*
G01*
X195791687Y-76220309D01*
X195809500Y-76284342D01*
X195809500Y-80595657D01*
X195789815Y-80662696D01*
X195737011Y-80708451D01*
X195667853Y-80718395D01*
X195604297Y-80689370D01*
X195567569Y-80633975D01*
X195511557Y-80461588D01*
X195415051Y-80272184D01*
X195415049Y-80272181D01*
X195415048Y-80272179D01*
X195290109Y-80100213D01*
X195139786Y-79949890D01*
X194967820Y-79824951D01*
X194778414Y-79728444D01*
X194778413Y-79728443D01*
X194778412Y-79728443D01*
X194749246Y-79718966D01*
X194691571Y-79679529D01*
X194664373Y-79615171D01*
X194676288Y-79546324D01*
X194723532Y-79494849D01*
X194731270Y-79490551D01*
X194862732Y-79423566D01*
X194878532Y-79412085D01*
X194878533Y-79412085D01*
X194389410Y-78922962D01*
X194452993Y-78905925D01*
X194567007Y-78840099D01*
X194660099Y-78747007D01*
X194725925Y-78632993D01*
X194742962Y-78569410D01*
X195232085Y-79058533D01*
X195232085Y-79058532D01*
X195243568Y-79042730D01*
X195325745Y-78881452D01*
X195325748Y-78881444D01*
X195381682Y-78709293D01*
X195410000Y-78530506D01*
X195410000Y-78349493D01*
X195381682Y-78170706D01*
X195325748Y-77998555D01*
X195325747Y-77998552D01*
X195243571Y-77837275D01*
X195243566Y-77837267D01*
X195232085Y-77821466D01*
X194742962Y-78310589D01*
X194725925Y-78247007D01*
X194660099Y-78132993D01*
X194567007Y-78039901D01*
X194452993Y-77974075D01*
X194389409Y-77957037D01*
X194878533Y-77467913D01*
X194862727Y-77456429D01*
X194731269Y-77389447D01*
X194680474Y-77341473D01*
X194663679Y-77273651D01*
X194686217Y-77207517D01*
X194740932Y-77164066D01*
X194749216Y-77161043D01*
X194778412Y-77151557D01*
X194967816Y-77055051D01*
X195050803Y-76994758D01*
X195139786Y-76930109D01*
X195139788Y-76930106D01*
X195139792Y-76930104D01*
X195290104Y-76779792D01*
X195290106Y-76779788D01*
X195290109Y-76779786D01*
X195415048Y-76607820D01*
X195415047Y-76607820D01*
X195415051Y-76607816D01*
X195511557Y-76418412D01*
X195567569Y-76246022D01*
X195607006Y-76188348D01*
X195671365Y-76161150D01*
X195740211Y-76173065D01*
G37*
%TD.AperFunction*%
%TA.AperFunction,Conductor*%
G36*
X193794075Y-78632993D02*
G01*
X193859901Y-78747007D01*
X193952993Y-78840099D01*
X194067007Y-78905925D01*
X194130590Y-78922962D01*
X193641466Y-79412085D01*
X193641466Y-79412086D01*
X193657267Y-79423566D01*
X193657275Y-79423571D01*
X193788729Y-79490551D01*
X193839525Y-79538526D01*
X193856320Y-79606347D01*
X193833782Y-79672482D01*
X193779067Y-79715933D01*
X193770761Y-79718964D01*
X193760716Y-79722227D01*
X193741583Y-79728444D01*
X193552179Y-79824951D01*
X193380213Y-79949890D01*
X193380209Y-79949894D01*
X193357181Y-79972923D01*
X193295858Y-80006408D01*
X193226166Y-80001424D01*
X193170233Y-79959552D01*
X193145816Y-79894088D01*
X193145500Y-79885242D01*
X193145500Y-79181467D01*
X193165185Y-79114428D01*
X193217989Y-79068673D01*
X193279230Y-79057849D01*
X193287914Y-79058532D01*
X193777037Y-78569409D01*
X193794075Y-78632993D01*
G37*
%TD.AperFunction*%
%TA.AperFunction,Conductor*%
G36*
X213007084Y-79053532D02*
G01*
X213010772Y-79053242D01*
X213079149Y-79067606D01*
X213128905Y-79116658D01*
X213144500Y-79176860D01*
X213144500Y-79875242D01*
X213124815Y-79942281D01*
X213072011Y-79988036D01*
X213002853Y-79997980D01*
X212939297Y-79968955D01*
X212932819Y-79962923D01*
X212914786Y-79944890D01*
X212742820Y-79819951D01*
X212553414Y-79723444D01*
X212553413Y-79723443D01*
X212553412Y-79723443D01*
X212524246Y-79713966D01*
X212466571Y-79674529D01*
X212439373Y-79610171D01*
X212451288Y-79541324D01*
X212498532Y-79489849D01*
X212506270Y-79485551D01*
X212637732Y-79418566D01*
X212653532Y-79407085D01*
X212653533Y-79407085D01*
X212164410Y-78917962D01*
X212227993Y-78900925D01*
X212342007Y-78835099D01*
X212435099Y-78742007D01*
X212500925Y-78627993D01*
X212517962Y-78564409D01*
X213007084Y-79053532D01*
G37*
%TD.AperFunction*%
%TA.AperFunction,Conductor*%
G36*
X193350703Y-76901045D02*
G01*
X193357181Y-76907077D01*
X193380213Y-76930109D01*
X193552179Y-77055048D01*
X193552181Y-77055049D01*
X193552184Y-77055051D01*
X193741588Y-77151557D01*
X193770753Y-77161033D01*
X193828426Y-77200468D01*
X193855625Y-77264826D01*
X193843712Y-77333673D01*
X193796469Y-77385149D01*
X193788730Y-77389447D01*
X193657269Y-77456431D01*
X193641466Y-77467912D01*
X193641466Y-77467913D01*
X194130591Y-77957037D01*
X194067007Y-77974075D01*
X193952993Y-78039901D01*
X193859901Y-78132993D01*
X193794075Y-78247007D01*
X193777037Y-78310590D01*
X193287912Y-77821465D01*
X193279228Y-77822149D01*
X193210851Y-77807784D01*
X193161094Y-77758733D01*
X193145500Y-77698531D01*
X193145500Y-76994758D01*
X193165185Y-76927719D01*
X193217989Y-76881964D01*
X193287147Y-76872020D01*
X193350703Y-76901045D01*
G37*
%TD.AperFunction*%
%TA.AperFunction,Conductor*%
G36*
X213063834Y-76878576D02*
G01*
X213119767Y-76920448D01*
X213144184Y-76985912D01*
X213144500Y-76994758D01*
X213144500Y-77693138D01*
X213124815Y-77760177D01*
X213072011Y-77805932D01*
X213010773Y-77816756D01*
X213007086Y-77816465D01*
X212517962Y-78305589D01*
X212500925Y-78242007D01*
X212435099Y-78127993D01*
X212342007Y-78034901D01*
X212227993Y-77969075D01*
X212164409Y-77952037D01*
X212653533Y-77462913D01*
X212637727Y-77451429D01*
X212506269Y-77384447D01*
X212455474Y-77336473D01*
X212438679Y-77268651D01*
X212461217Y-77202517D01*
X212515932Y-77159066D01*
X212524216Y-77156043D01*
X212553412Y-77146557D01*
X212742816Y-77050051D01*
X212818921Y-76994758D01*
X212914786Y-76925109D01*
X212914788Y-76925106D01*
X212914792Y-76925104D01*
X212932819Y-76907077D01*
X212994142Y-76873592D01*
X213063834Y-76878576D01*
G37*
%TD.AperFunction*%
%TA.AperFunction,Conductor*%
G36*
X195740211Y-73633065D02*
G01*
X195791687Y-73680309D01*
X195809500Y-73744342D01*
X195809500Y-75515657D01*
X195789815Y-75582696D01*
X195737011Y-75628451D01*
X195667853Y-75638395D01*
X195604297Y-75609370D01*
X195567569Y-75553975D01*
X195511557Y-75381588D01*
X195415051Y-75192184D01*
X195415049Y-75192181D01*
X195415048Y-75192179D01*
X195290109Y-75020213D01*
X195139786Y-74869890D01*
X194967820Y-74744951D01*
X194967115Y-74744591D01*
X194959054Y-74740485D01*
X194908259Y-74692512D01*
X194891463Y-74624692D01*
X194913999Y-74558556D01*
X194959054Y-74519515D01*
X194967816Y-74515051D01*
X195050803Y-74454758D01*
X195139786Y-74390109D01*
X195139788Y-74390106D01*
X195139792Y-74390104D01*
X195290104Y-74239792D01*
X195290106Y-74239788D01*
X195290109Y-74239786D01*
X195415048Y-74067820D01*
X195415047Y-74067820D01*
X195415051Y-74067816D01*
X195511557Y-73878412D01*
X195567569Y-73706022D01*
X195607006Y-73648348D01*
X195671365Y-73621150D01*
X195740211Y-73633065D01*
G37*
%TD.AperFunction*%
%TA.AperFunction,Conductor*%
G36*
X195740211Y-71093065D02*
G01*
X195791687Y-71140309D01*
X195809500Y-71204342D01*
X195809500Y-72975657D01*
X195789815Y-73042696D01*
X195737011Y-73088451D01*
X195667853Y-73098395D01*
X195604297Y-73069370D01*
X195567569Y-73013975D01*
X195511557Y-72841588D01*
X195415051Y-72652184D01*
X195415049Y-72652181D01*
X195415048Y-72652179D01*
X195290109Y-72480213D01*
X195139786Y-72329890D01*
X194967820Y-72204951D01*
X194967115Y-72204591D01*
X194959054Y-72200485D01*
X194908259Y-72152512D01*
X194891463Y-72084692D01*
X194913999Y-72018556D01*
X194959054Y-71979515D01*
X194967816Y-71975051D01*
X195050803Y-71914758D01*
X195139786Y-71850109D01*
X195139788Y-71850106D01*
X195139792Y-71850104D01*
X195290104Y-71699792D01*
X195290106Y-71699788D01*
X195290109Y-71699786D01*
X195415048Y-71527820D01*
X195415047Y-71527820D01*
X195415051Y-71527816D01*
X195511557Y-71338412D01*
X195567569Y-71166022D01*
X195607006Y-71108348D01*
X195671365Y-71081150D01*
X195740211Y-71093065D01*
G37*
%TD.AperFunction*%
%TA.AperFunction,Conductor*%
G36*
X195740211Y-68553065D02*
G01*
X195791687Y-68600309D01*
X195809500Y-68664342D01*
X195809500Y-70435657D01*
X195789815Y-70502696D01*
X195737011Y-70548451D01*
X195667853Y-70558395D01*
X195604297Y-70529370D01*
X195567569Y-70473975D01*
X195511557Y-70301588D01*
X195415051Y-70112184D01*
X195415049Y-70112181D01*
X195415048Y-70112179D01*
X195290109Y-69940213D01*
X195139786Y-69789890D01*
X194967820Y-69664951D01*
X194967115Y-69664591D01*
X194959054Y-69660485D01*
X194908259Y-69612512D01*
X194891463Y-69544692D01*
X194913999Y-69478556D01*
X194959054Y-69439515D01*
X194967816Y-69435051D01*
X195050803Y-69374758D01*
X195139786Y-69310109D01*
X195139788Y-69310106D01*
X195139792Y-69310104D01*
X195290104Y-69159792D01*
X195290106Y-69159788D01*
X195290109Y-69159786D01*
X195415048Y-68987820D01*
X195415047Y-68987820D01*
X195415051Y-68987816D01*
X195511557Y-68798412D01*
X195567569Y-68626022D01*
X195607006Y-68568348D01*
X195671365Y-68541150D01*
X195740211Y-68553065D01*
G37*
%TD.AperFunction*%
%TA.AperFunction,Conductor*%
G36*
X193794075Y-65932993D02*
G01*
X193859901Y-66047007D01*
X193952993Y-66140099D01*
X194067007Y-66205925D01*
X194130590Y-66222962D01*
X193641466Y-66712085D01*
X193641466Y-66712086D01*
X193657267Y-66723566D01*
X193657275Y-66723571D01*
X193788729Y-66790551D01*
X193839525Y-66838526D01*
X193856320Y-66906347D01*
X193833782Y-66972482D01*
X193779067Y-67015933D01*
X193770761Y-67018964D01*
X193760716Y-67022227D01*
X193741583Y-67028444D01*
X193552179Y-67124951D01*
X193380213Y-67249890D01*
X193380209Y-67249894D01*
X193357181Y-67272923D01*
X193295858Y-67306408D01*
X193226166Y-67301424D01*
X193170233Y-67259552D01*
X193145816Y-67194088D01*
X193145500Y-67185242D01*
X193145500Y-66481467D01*
X193165185Y-66414428D01*
X193217989Y-66368673D01*
X193279230Y-66357849D01*
X193287914Y-66358532D01*
X193777037Y-65869409D01*
X193794075Y-65932993D01*
G37*
%TD.AperFunction*%
%TA.AperFunction,Conductor*%
G36*
X213007084Y-66353532D02*
G01*
X213010772Y-66353242D01*
X213079149Y-66367606D01*
X213128905Y-66416658D01*
X213144500Y-66476860D01*
X213144500Y-67175242D01*
X213124815Y-67242281D01*
X213072011Y-67288036D01*
X213002853Y-67297980D01*
X212939297Y-67268955D01*
X212932819Y-67262923D01*
X212914786Y-67244890D01*
X212742820Y-67119951D01*
X212553414Y-67023444D01*
X212553413Y-67023443D01*
X212553412Y-67023443D01*
X212524246Y-67013966D01*
X212466571Y-66974529D01*
X212439373Y-66910171D01*
X212451288Y-66841324D01*
X212498532Y-66789849D01*
X212506270Y-66785551D01*
X212637732Y-66718566D01*
X212653532Y-66707085D01*
X212653533Y-66707085D01*
X212164410Y-66217962D01*
X212227993Y-66200925D01*
X212342007Y-66135099D01*
X212435099Y-66042007D01*
X212500925Y-65927993D01*
X212517962Y-65864410D01*
X213007084Y-66353532D01*
G37*
%TD.AperFunction*%
%TA.AperFunction,Conductor*%
G36*
X193350703Y-64201045D02*
G01*
X193357181Y-64207077D01*
X193380213Y-64230109D01*
X193552179Y-64355048D01*
X193552181Y-64355049D01*
X193552184Y-64355051D01*
X193741588Y-64451557D01*
X193770753Y-64461033D01*
X193828426Y-64500468D01*
X193855625Y-64564826D01*
X193843712Y-64633673D01*
X193796469Y-64685149D01*
X193788730Y-64689447D01*
X193657269Y-64756431D01*
X193641466Y-64767912D01*
X193641466Y-64767913D01*
X194130591Y-65257037D01*
X194067007Y-65274075D01*
X193952993Y-65339901D01*
X193859901Y-65432993D01*
X193794075Y-65547007D01*
X193777037Y-65610590D01*
X193287912Y-65121465D01*
X193279228Y-65122149D01*
X193210851Y-65107784D01*
X193161094Y-65058733D01*
X193145500Y-64998531D01*
X193145500Y-64294758D01*
X193165185Y-64227719D01*
X193217989Y-64181964D01*
X193287147Y-64172020D01*
X193350703Y-64201045D01*
G37*
%TD.AperFunction*%
%TA.AperFunction,Conductor*%
G36*
X213063834Y-64178576D02*
G01*
X213119767Y-64220448D01*
X213144184Y-64285912D01*
X213144500Y-64294758D01*
X213144500Y-64993138D01*
X213124815Y-65060177D01*
X213072011Y-65105932D01*
X213010773Y-65116756D01*
X213007086Y-65116465D01*
X212517962Y-65605589D01*
X212500925Y-65542007D01*
X212435099Y-65427993D01*
X212342007Y-65334901D01*
X212227993Y-65269075D01*
X212164409Y-65252037D01*
X212653533Y-64762913D01*
X212637727Y-64751429D01*
X212506269Y-64684447D01*
X212455474Y-64636473D01*
X212438679Y-64568651D01*
X212461217Y-64502517D01*
X212515932Y-64459066D01*
X212524216Y-64456043D01*
X212553412Y-64446557D01*
X212742816Y-64350051D01*
X212776602Y-64325504D01*
X212914786Y-64225109D01*
X212914788Y-64225106D01*
X212914792Y-64225104D01*
X212932819Y-64207077D01*
X212994142Y-64173592D01*
X213063834Y-64178576D01*
G37*
%TD.AperFunction*%
%TD*%
M02*
