%TF.GenerationSoftware,KiCad,Pcbnew,9.0.3*%
%TF.CreationDate,2025-12-07T00:49:17-08:00*%
%TF.ProjectId,pcb,7063622e-6b69-4636-9164-5f7063625858,rev?*%
%TF.SameCoordinates,Original*%
%TF.FileFunction,Soldermask,Bot*%
%TF.FilePolarity,Negative*%
%FSLAX46Y46*%
G04 Gerber Fmt 4.6, Leading zero omitted, Abs format (unit mm)*
G04 Created by KiCad (PCBNEW 9.0.3) date 2025-12-07 00:49:17*
%MOMM*%
%LPD*%
G01*
G04 APERTURE LIST*
%ADD10C,0.650000*%
%ADD11O,1.000000X2.100000*%
%ADD12O,1.000000X1.600000*%
%ADD13C,1.700000*%
%ADD14R,1.700000X1.700000*%
G04 APERTURE END LIST*
D10*
%TO.C,J1*%
X206035000Y-64385000D03*
X200255000Y-64385000D03*
D11*
X207465000Y-64915000D03*
D12*
X207465000Y-60735000D03*
D11*
X198825000Y-64915000D03*
D12*
X198825000Y-60735000D03*
%TD*%
D13*
%TO.C,J2*%
X194260000Y-108920000D03*
X194260000Y-106380000D03*
X194260000Y-103840000D03*
X194260000Y-101300000D03*
X194260000Y-98760000D03*
X194260000Y-96220000D03*
X194260000Y-93680000D03*
X194260000Y-91140000D03*
X194260000Y-88600000D03*
X194260000Y-86060000D03*
X194260000Y-83520000D03*
X194260000Y-80980000D03*
X194260000Y-78440000D03*
X194260000Y-75900000D03*
X194260000Y-73360000D03*
X194260000Y-70820000D03*
X194260000Y-68280000D03*
X194260000Y-65740000D03*
X194260000Y-63200000D03*
D14*
X194260000Y-60660000D03*
%TD*%
D13*
%TO.C,J3*%
X212035000Y-108915000D03*
X212035000Y-106375000D03*
X212035000Y-103835000D03*
X212035000Y-101295000D03*
X212035000Y-98755000D03*
X212035000Y-96215000D03*
X212035000Y-93675000D03*
X212035000Y-91135000D03*
X212035000Y-88595000D03*
X212035000Y-86055000D03*
X212035000Y-83515000D03*
X212035000Y-80975000D03*
X212035000Y-78435000D03*
X212035000Y-75895000D03*
X212035000Y-73355000D03*
X212035000Y-70815000D03*
X212035000Y-68275000D03*
X212035000Y-65735000D03*
X212035000Y-63195000D03*
D14*
X212035000Y-60655000D03*
%TD*%
D13*
%TO.C,J4*%
X205684999Y-108675000D03*
X203145000Y-108675000D03*
D14*
X200605000Y-108675000D03*
%TD*%
M02*
