%TF.GenerationSoftware,KiCad,Pcbnew,9.0.3*%
%TF.CreationDate,2025-12-07T00:49:16-08:00*%
%TF.ProjectId,pcb,7063622e-6b69-4636-9164-5f7063625858,rev?*%
%TF.SameCoordinates,Original*%
%TF.FileFunction,Copper,L1,Top*%
%TF.FilePolarity,Positive*%
%FSLAX46Y46*%
G04 Gerber Fmt 4.6, Leading zero omitted, Abs format (unit mm)*
G04 Created by KiCad (PCBNEW 9.0.3) date 2025-12-07 00:49:16*
%MOMM*%
%LPD*%
G01*
G04 APERTURE LIST*
G04 Aperture macros list*
%AMRoundRect*
0 Rectangle with rounded corners*
0 $1 Rounding radius*
0 $2 $3 $4 $5 $6 $7 $8 $9 X,Y pos of 4 corners*
0 Add a 4 corners polygon primitive as box body*
4,1,4,$2,$3,$4,$5,$6,$7,$8,$9,$2,$3,0*
0 Add four circle primitives for the rounded corners*
1,1,$1+$1,$2,$3*
1,1,$1+$1,$4,$5*
1,1,$1+$1,$6,$7*
1,1,$1+$1,$8,$9*
0 Add four rect primitives between the rounded corners*
20,1,$1+$1,$2,$3,$4,$5,0*
20,1,$1+$1,$4,$5,$6,$7,0*
20,1,$1+$1,$6,$7,$8,$9,0*
20,1,$1+$1,$8,$9,$2,$3,0*%
G04 Aperture macros list end*
%TA.AperFunction,SMDPad,CuDef*%
%ADD10RoundRect,0.075000X-0.075000X0.125000X-0.075000X-0.125000X0.075000X-0.125000X0.075000X0.125000X0*%
%TD*%
%TA.AperFunction,SMDPad,CuDef*%
%ADD11RoundRect,0.075000X-0.125000X-0.075000X0.125000X-0.075000X0.125000X0.075000X-0.125000X0.075000X0*%
%TD*%
%TA.AperFunction,SMDPad,CuDef*%
%ADD12RoundRect,0.075000X0.075000X-0.125000X0.075000X0.125000X-0.075000X0.125000X-0.075000X-0.125000X0*%
%TD*%
%TA.AperFunction,SMDPad,CuDef*%
%ADD13RoundRect,0.075000X-0.035355X-0.141421X0.141421X0.035355X0.035355X0.141421X-0.141421X-0.035355X0*%
%TD*%
%TA.AperFunction,SMDPad,CuDef*%
%ADD14RoundRect,0.075000X0.125000X0.075000X-0.125000X0.075000X-0.125000X-0.075000X0.125000X-0.075000X0*%
%TD*%
%TA.AperFunction,SMDPad,CuDef*%
%ADD15R,0.600000X1.450000*%
%TD*%
%TA.AperFunction,SMDPad,CuDef*%
%ADD16R,0.300000X1.450000*%
%TD*%
%TA.AperFunction,HeatsinkPad*%
%ADD17O,1.000000X2.100000*%
%TD*%
%TA.AperFunction,HeatsinkPad*%
%ADD18O,1.000000X1.600000*%
%TD*%
%TA.AperFunction,SMDPad,CuDef*%
%ADD19RoundRect,0.135000X0.135000X0.185000X-0.135000X0.185000X-0.135000X-0.185000X0.135000X-0.185000X0*%
%TD*%
%TA.AperFunction,SMDPad,CuDef*%
%ADD20RoundRect,0.135000X0.185000X-0.135000X0.185000X0.135000X-0.185000X0.135000X-0.185000X-0.135000X0*%
%TD*%
%TA.AperFunction,SMDPad,CuDef*%
%ADD21RoundRect,0.050000X-0.387500X-0.050000X0.387500X-0.050000X0.387500X0.050000X-0.387500X0.050000X0*%
%TD*%
%TA.AperFunction,SMDPad,CuDef*%
%ADD22RoundRect,0.050000X-0.050000X-0.387500X0.050000X-0.387500X0.050000X0.387500X-0.050000X0.387500X0*%
%TD*%
%TA.AperFunction,HeatsinkPad*%
%ADD23R,3.200000X3.200000*%
%TD*%
%TA.AperFunction,SMDPad,CuDef*%
%ADD24R,0.600000X0.300000*%
%TD*%
%TA.AperFunction,SMDPad,CuDef*%
%ADD25R,0.300000X1.700000*%
%TD*%
%TA.AperFunction,SMDPad,CuDef*%
%ADD26RoundRect,0.100000X0.100000X-0.337500X0.100000X0.337500X-0.100000X0.337500X-0.100000X-0.337500X0*%
%TD*%
%TA.AperFunction,ComponentPad*%
%ADD27C,1.700000*%
%TD*%
%TA.AperFunction,ComponentPad*%
%ADD28R,1.700000X1.700000*%
%TD*%
%TA.AperFunction,SMDPad,CuDef*%
%ADD29RoundRect,0.225000X0.225000X0.250000X-0.225000X0.250000X-0.225000X-0.250000X0.225000X-0.250000X0*%
%TD*%
%TA.AperFunction,SMDPad,CuDef*%
%ADD30RoundRect,0.135000X-0.185000X0.135000X-0.185000X-0.135000X0.185000X-0.135000X0.185000X0.135000X0*%
%TD*%
%TA.AperFunction,SMDPad,CuDef*%
%ADD31RoundRect,0.200000X-0.200000X-0.800000X0.200000X-0.800000X0.200000X0.800000X-0.200000X0.800000X0*%
%TD*%
%TA.AperFunction,SMDPad,CuDef*%
%ADD32RoundRect,0.135000X-0.135000X-0.185000X0.135000X-0.185000X0.135000X0.185000X-0.135000X0.185000X0*%
%TD*%
%TA.AperFunction,SMDPad,CuDef*%
%ADD33RoundRect,0.150000X0.150000X-0.587500X0.150000X0.587500X-0.150000X0.587500X-0.150000X-0.587500X0*%
%TD*%
%TA.AperFunction,SMDPad,CuDef*%
%ADD34RoundRect,0.250000X0.450000X0.350000X-0.450000X0.350000X-0.450000X-0.350000X0.450000X-0.350000X0*%
%TD*%
%TA.AperFunction,ViaPad*%
%ADD35C,0.600000*%
%TD*%
%TA.AperFunction,Conductor*%
%ADD36C,0.200000*%
%TD*%
G04 APERTURE END LIST*
D10*
%TO.P,C1,1*%
%TO.N,+3V3*%
X205780000Y-94770000D03*
%TO.P,C1,2*%
%TO.N,GND*%
X205780000Y-95270000D03*
%TD*%
D11*
%TO.P,C2,2*%
%TO.N,GND*%
X209060000Y-90150000D03*
%TO.P,C2,1*%
%TO.N,+3V3*%
X208560000Y-90150000D03*
%TD*%
D12*
%TO.P,C3,2*%
%TO.N,GND*%
X203900000Y-80950000D03*
%TO.P,C3,1*%
%TO.N,+3V3*%
X203900000Y-81450000D03*
%TD*%
%TO.P,C4,1*%
%TO.N,+3V3*%
X203200000Y-81190000D03*
%TO.P,C4,2*%
%TO.N,GND*%
X203200000Y-80690000D03*
%TD*%
D13*
%TO.P,C5,2*%
%TO.N,GND*%
X206995528Y-84165994D03*
%TO.P,C5,1*%
%TO.N,+3V3*%
X206641974Y-84519548D03*
%TD*%
D11*
%TO.P,C6,2*%
%TO.N,GND*%
X208250000Y-86190000D03*
%TO.P,C6,1*%
%TO.N,+3V3*%
X207750000Y-86190000D03*
%TD*%
D14*
%TO.P,C7,2*%
%TO.N,GND*%
X197950000Y-89680000D03*
%TO.P,C7,1*%
%TO.N,+3V3*%
X198450000Y-89680000D03*
%TD*%
D12*
%TO.P,C8,1*%
%TO.N,+3V3*%
X207630000Y-85244999D03*
%TO.P,C8,2*%
%TO.N,GND*%
X207630000Y-84744999D03*
%TD*%
%TO.P,C9,2*%
%TO.N,GND*%
X199010000Y-84920000D03*
%TO.P,C9,1*%
%TO.N,+3V3*%
X199010000Y-85420000D03*
%TD*%
D10*
%TO.P,C10,1*%
%TO.N,+1V1*%
X206450000Y-94770000D03*
%TO.P,C10,2*%
%TO.N,GND*%
X206450000Y-95270000D03*
%TD*%
D12*
%TO.P,C11,1*%
%TO.N,+1V1*%
X202230000Y-81770000D03*
%TO.P,C11,2*%
%TO.N,GND*%
X202230000Y-81270000D03*
%TD*%
%TO.P,C12,1*%
%TO.N,+1V1*%
X206020000Y-84000000D03*
%TO.P,C12,2*%
%TO.N,GND*%
X206020000Y-83500000D03*
%TD*%
D10*
%TO.P,C15,2*%
%TO.N,XIN*%
X200810000Y-96710000D03*
%TO.P,C15,1*%
%TO.N,GND*%
X200810000Y-96210000D03*
%TD*%
D12*
%TO.P,C16,2*%
%TO.N,Net-(C16-Pad2)*%
X206260000Y-96330000D03*
%TO.P,C16,1*%
%TO.N,GND*%
X206260000Y-96830000D03*
%TD*%
%TO.P,C17,1*%
%TO.N,+3V3*%
X202400000Y-80400000D03*
%TO.P,C17,2*%
%TO.N,GND*%
X202400000Y-79900000D03*
%TD*%
D11*
%TO.P,C18,2*%
%TO.N,+3V3*%
X199630000Y-98940000D03*
%TO.P,C18,1*%
%TO.N,GND*%
X199130000Y-98940000D03*
%TD*%
D15*
%TO.P,J1,A1,GND*%
%TO.N,GND*%
X206395000Y-65830000D03*
%TO.P,J1,A4,VBUS*%
%TO.N,VBUS*%
X205595001Y-65830000D03*
D16*
%TO.P,J1,A5,CC1*%
%TO.N,Net-(J1-CC1)*%
X204395000Y-65829999D03*
%TO.P,J1,A6,D+*%
%TO.N,USB_D+*%
X203395000Y-65830000D03*
%TO.P,J1,A7,D-*%
%TO.N,USB_D-*%
X202895000Y-65830000D03*
%TO.P,J1,A8*%
%TO.N,N/C*%
X201895000Y-65829999D03*
D15*
%TO.P,J1,A9,VBUS*%
%TO.N,VBUS*%
X200694999Y-65830000D03*
%TO.P,J1,A12,GND*%
%TO.N,GND*%
X199895000Y-65830000D03*
%TO.P,J1,B1,GND*%
X199895000Y-65830000D03*
%TO.P,J1,B4,VBUS*%
%TO.N,VBUS*%
X200694999Y-65830000D03*
D16*
%TO.P,J1,B5,CC2*%
%TO.N,Net-(J1-CC2)*%
X201395000Y-65830000D03*
%TO.P,J1,B6,D+*%
%TO.N,USB_D+*%
X202395000Y-65830000D03*
%TO.P,J1,B7,D-*%
%TO.N,USB_D-*%
X203895000Y-65830000D03*
%TO.P,J1,B8*%
%TO.N,N/C*%
X204895000Y-65830000D03*
D15*
%TO.P,J1,B9,VBUS*%
%TO.N,VBUS*%
X205595001Y-65830000D03*
%TO.P,J1,B12,GND*%
%TO.N,GND*%
X206395000Y-65830000D03*
D17*
%TO.P,J1,S1,SHIELD*%
X207465000Y-64915000D03*
D18*
X207465000Y-60735000D03*
D17*
X198825000Y-64915000D03*
D18*
X198825000Y-60735000D03*
%TD*%
D19*
%TO.P,R8,2*%
%TO.N,GPIO10*%
X200470001Y-98770000D03*
%TO.P,R8,1*%
%TO.N,+3V3*%
X201489999Y-98770000D03*
%TD*%
D20*
%TO.P,R9,2*%
%TO.N,+3V3*%
X202260000Y-99680001D03*
%TO.P,R9,1*%
%TO.N,GPIO11*%
X202260000Y-100699999D03*
%TD*%
D21*
%TO.P,U1,1,IOVDD*%
%TO.N,+3V3*%
X199707500Y-86185000D03*
%TO.P,U1,2,GPIO0*%
%TO.N,GPIO0*%
X199707500Y-86585000D03*
%TO.P,U1,3,GPIO1*%
%TO.N,GPIO1*%
X199707500Y-86985000D03*
%TO.P,U1,4,GPIO2*%
%TO.N,GPIO2*%
X199707500Y-87385000D03*
%TO.P,U1,5,GPIO3*%
%TO.N,GPIO3*%
X199707500Y-87785000D03*
%TO.P,U1,6,GPIO4*%
%TO.N,GPIO4*%
X199707500Y-88185000D03*
%TO.P,U1,7,GPIO5*%
%TO.N,GPIO5*%
X199707500Y-88585000D03*
%TO.P,U1,8,GPIO6*%
%TO.N,GPIO6*%
X199707500Y-88985000D03*
%TO.P,U1,9,GPIO7*%
%TO.N,GPIO7*%
X199707500Y-89385000D03*
%TO.P,U1,10,IOVDD*%
%TO.N,+3V3*%
X199707500Y-89785000D03*
%TO.P,U1,11,GPIO8*%
%TO.N,GPIO8*%
X199707500Y-90185000D03*
%TO.P,U1,12,GPIO9*%
%TO.N,GPIO9*%
X199707500Y-90585000D03*
%TO.P,U1,13,GPIO10*%
%TO.N,GPIO10*%
X199707500Y-90985000D03*
%TO.P,U1,14,GPIO11*%
%TO.N,GPIO11*%
X199707500Y-91385000D03*
D22*
%TO.P,U1,15,GPIO12*%
%TO.N,GPIO12*%
X200545000Y-92222500D03*
%TO.P,U1,16,GPIO13*%
%TO.N,GPIO13*%
X200945000Y-92222500D03*
%TO.P,U1,17,GPIO14*%
%TO.N,GPIO14*%
X201345000Y-92222500D03*
%TO.P,U1,18,GPIO15*%
%TO.N,GPIO15*%
X201745000Y-92222500D03*
%TO.P,U1,19,TESTEN*%
%TO.N,GND*%
X202145000Y-92222500D03*
%TO.P,U1,20,XIN*%
%TO.N,XIN*%
X202545000Y-92222500D03*
%TO.P,U1,21,XOUT*%
%TO.N,XOUT*%
X202945000Y-92222500D03*
%TO.P,U1,22,IOVDD*%
%TO.N,+3V3*%
X203345000Y-92222500D03*
%TO.P,U1,23,DVDD*%
%TO.N,+1V1*%
X203745000Y-92222500D03*
%TO.P,U1,24,SWCLK*%
%TO.N,SWCLK*%
X204145000Y-92222500D03*
%TO.P,U1,25,SWD*%
%TO.N,SWD*%
X204545000Y-92222500D03*
%TO.P,U1,26,RUN*%
%TO.N,RUN*%
X204945000Y-92222500D03*
%TO.P,U1,27,GPIO16*%
%TO.N,GPIO16*%
X205345000Y-92222500D03*
%TO.P,U1,28,GPIO17*%
%TO.N,GPIO17*%
X205745000Y-92222500D03*
D21*
%TO.P,U1,29,GPIO18*%
%TO.N,GPIO18*%
X206582500Y-91385000D03*
%TO.P,U1,30,GPIO19*%
%TO.N,GPIO19*%
X206582500Y-90985000D03*
%TO.P,U1,31,GPIO20*%
%TO.N,GPIO20*%
X206582500Y-90585000D03*
%TO.P,U1,32,GPIO21*%
%TO.N,GPIO21*%
X206582500Y-90185000D03*
%TO.P,U1,33,IOVDD*%
%TO.N,+3V3*%
X206582500Y-89785000D03*
%TO.P,U1,34,GPIO22*%
%TO.N,GPIO22*%
X206582500Y-89385000D03*
%TO.P,U1,35,GPIO23*%
%TO.N,GPIO23*%
X206582500Y-88985000D03*
%TO.P,U1,36,GPIO24*%
%TO.N,GPIO24*%
X206582500Y-88585000D03*
%TO.P,U1,37,GPIO25*%
%TO.N,GPIO25*%
X206582500Y-88185000D03*
%TO.P,U1,38,GPIO26_ADC0*%
%TO.N,GPIO26_ADC0*%
X206582500Y-87785000D03*
%TO.P,U1,39,GPIO27_ADC1*%
%TO.N,GPIO27_ADC1*%
X206582500Y-87385000D03*
%TO.P,U1,40,GPIO28_ADC2*%
%TO.N,GPIO28_ADC2*%
X206582500Y-86985000D03*
%TO.P,U1,41,GPIO29_ADC3*%
%TO.N,GPIO29_ADC3*%
X206582500Y-86585000D03*
%TO.P,U1,42,IOVDD*%
%TO.N,+3V3*%
X206582500Y-86185000D03*
D22*
%TO.P,U1,43,ADC_AVDD*%
X205745000Y-85347500D03*
%TO.P,U1,44,VREG_IN*%
X205345000Y-85347500D03*
%TO.P,U1,45,VREG_VOUT*%
%TO.N,+1V1*%
X204945000Y-85347500D03*
%TO.P,U1,46,USB_DM*%
%TO.N,Net-(U1-USB_DM)*%
X204545000Y-85347500D03*
%TO.P,U1,47,USB_DP*%
%TO.N,Net-(U1-USB_DP)*%
X204145000Y-85347500D03*
%TO.P,U1,48,USB_VDD*%
%TO.N,+3V3*%
X203745000Y-85347500D03*
%TO.P,U1,49,IOVDD*%
X203345000Y-85347500D03*
%TO.P,U1,50,DVDD*%
%TO.N,+1V1*%
X202945000Y-85347500D03*
%TO.P,U1,51,QSPI_SD3*%
%TO.N,QSPI_SD3*%
X202545000Y-85347500D03*
%TO.P,U1,52,QSPI_SCLK*%
%TO.N,QSPI_SCLK*%
X202145000Y-85347500D03*
%TO.P,U1,53,QSPI_SD0*%
%TO.N,QSPI_SD0*%
X201745000Y-85347500D03*
%TO.P,U1,54,QSPI_SD2*%
%TO.N,QSPI_SD2*%
X201345000Y-85347500D03*
%TO.P,U1,55,QSPI_SD1*%
%TO.N,QSPI_SD1*%
X200945000Y-85347500D03*
%TO.P,U1,56,QSPI_SS*%
%TO.N,QSPI_SS*%
X200545000Y-85347500D03*
D23*
%TO.P,U1,57,GND*%
%TO.N,GND*%
X203145000Y-88785000D03*
%TD*%
D24*
%TO.P,U3,4,GND*%
%TO.N,GND*%
X198750000Y-83150000D03*
%TO.P,U3,3,~{WP}/IO_{2}*%
%TO.N,QSPI_SD2*%
X198750000Y-82650000D03*
%TO.P,U3,2,DO/IO_{1}*%
%TO.N,QSPI_SD1*%
X198750000Y-82150000D03*
%TO.P,U3,1,~{CS}*%
%TO.N,QSPI_SS*%
X198750000Y-81650000D03*
%TO.P,U3,8,VCC*%
%TO.N,+3V3*%
X201250000Y-81650000D03*
%TO.P,U3,7,~{HOLD}/~{RESET}/IO_{3}*%
%TO.N,QSPI_SD3*%
X201250000Y-82150000D03*
%TO.P,U3,6,CLK*%
%TO.N,QSPI_SCLK*%
X201250000Y-82650000D03*
%TO.P,U3,5,DI/IO_{0}*%
%TO.N,QSPI_SD0*%
X201250000Y-83150000D03*
D25*
%TO.P,U3,9*%
%TO.N,N/C*%
X200000000Y-82400000D03*
%TD*%
D26*
%TO.P,U4,6,SDA*%
%TO.N,GPIO10*%
X199582500Y-100012500D03*
%TO.P,U4,5,VDD*%
%TO.N,+3V3*%
X200232500Y-100012499D03*
%TO.P,U4,4,NC*%
%TO.N,unconnected-(U4-NC-Pad4)*%
X200882500Y-100012500D03*
%TO.P,U4,3,GND*%
%TO.N,GND*%
X200882500Y-101287500D03*
%TO.P,U4,2,INT*%
%TO.N,GPIO12*%
X200232500Y-101287501D03*
%TO.P,U4,1,SCL*%
%TO.N,GPIO11*%
X199582500Y-101287500D03*
%TD*%
D27*
%TO.P,J2,20,Pin_20*%
%TO.N,GPIO15*%
X194260000Y-108920000D03*
%TO.P,J2,19,Pin_19*%
%TO.N,GPIO14*%
X194260000Y-106380000D03*
%TO.P,J2,18,Pin_18*%
%TO.N,GND*%
X194260000Y-103840000D03*
%TO.P,J2,17,Pin_17*%
%TO.N,GPIO13*%
X194260000Y-101300000D03*
%TO.P,J2,16,Pin_16*%
%TO.N,GPIO12*%
X194260000Y-98760000D03*
%TO.P,J2,15,Pin_15*%
%TO.N,GPIO11*%
X194260000Y-96220000D03*
%TO.P,J2,14,Pin_14*%
%TO.N,GPIO10*%
X194260000Y-93680000D03*
%TO.P,J2,13,Pin_13*%
%TO.N,GND*%
X194260000Y-91140000D03*
%TO.P,J2,12,Pin_12*%
%TO.N,GPIO9*%
X194260000Y-88600000D03*
%TO.P,J2,11,Pin_11*%
%TO.N,GPIO8*%
X194260000Y-86060000D03*
%TO.P,J2,10,Pin_10*%
%TO.N,GPIO7*%
X194260000Y-83520000D03*
%TO.P,J2,9,Pin_9*%
%TO.N,GPIO6*%
X194260000Y-80980000D03*
%TO.P,J2,8,Pin_8*%
%TO.N,GND*%
X194260000Y-78440000D03*
%TO.P,J2,7,Pin_7*%
%TO.N,GPIO5*%
X194260000Y-75900000D03*
%TO.P,J2,6,Pin_6*%
%TO.N,GPIO4*%
X194260000Y-73360000D03*
%TO.P,J2,5,Pin_5*%
%TO.N,GPIO3*%
X194260000Y-70820000D03*
%TO.P,J2,4,Pin_4*%
%TO.N,GPIO2*%
X194260000Y-68280000D03*
%TO.P,J2,3,Pin_3*%
%TO.N,GND*%
X194260000Y-65740000D03*
%TO.P,J2,2,Pin_2*%
%TO.N,GPIO1*%
X194260000Y-63200000D03*
D28*
%TO.P,J2,1,Pin_1*%
%TO.N,GPIO0*%
X194260000Y-60660000D03*
%TD*%
D27*
%TO.P,J3,20,Pin_20*%
%TO.N,GPIO16*%
X212035000Y-108915000D03*
%TO.P,J3,19,Pin_19*%
%TO.N,GPIO17*%
X212035000Y-106375000D03*
%TO.P,J3,18,Pin_18*%
%TO.N,GND*%
X212035000Y-103835000D03*
%TO.P,J3,17,Pin_17*%
%TO.N,GPIO18*%
X212035000Y-101295000D03*
%TO.P,J3,16,Pin_16*%
%TO.N,GPIO19*%
X212035000Y-98755000D03*
%TO.P,J3,15,Pin_15*%
%TO.N,GPIO20*%
X212035000Y-96215000D03*
%TO.P,J3,14,Pin_14*%
%TO.N,GPIO21*%
X212035000Y-93675000D03*
%TO.P,J3,13,Pin_13*%
%TO.N,GND*%
X212035000Y-91135000D03*
%TO.P,J3,12,Pin_12*%
%TO.N,GPIO22*%
X212035000Y-88595000D03*
%TO.P,J3,11,Pin_11*%
%TO.N,RUN*%
X212035000Y-86055000D03*
%TO.P,J3,10,Pin_10*%
%TO.N,GPIO23*%
X212035000Y-83515000D03*
%TO.P,J3,9,Pin_9*%
%TO.N,GPIO24*%
X212035000Y-80975000D03*
%TO.P,J3,8,Pin_8*%
%TO.N,GND*%
X212035000Y-78435000D03*
%TO.P,J3,7,Pin_7*%
%TO.N,GPIO25*%
X212035000Y-75895000D03*
%TO.P,J3,6,Pin_6*%
%TO.N,GPIO26_ADC0*%
X212035000Y-73355000D03*
%TO.P,J3,5,Pin_5*%
%TO.N,+3V3*%
X212035000Y-70815000D03*
%TO.P,J3,4,Pin_4*%
%TO.N,GPIO27_ADC1*%
X212035000Y-68275000D03*
%TO.P,J3,3,Pin_3*%
%TO.N,GND*%
X212035000Y-65735000D03*
%TO.P,J3,2,Pin_2*%
%TO.N,GPIO28_ADC2*%
X212035000Y-63195000D03*
D28*
%TO.P,J3,1,Pin_1*%
%TO.N,VBUS*%
X212035000Y-60655000D03*
%TD*%
D27*
%TO.P,J4,3,Pin_3*%
%TO.N,SWD*%
X205684999Y-108675000D03*
%TO.P,J4,2,Pin_2*%
%TO.N,GND*%
X203145000Y-108675000D03*
D28*
%TO.P,J4,1,Pin_1*%
%TO.N,SWCLK*%
X200605000Y-108675000D03*
%TD*%
D20*
%TO.P,R7,2*%
%TO.N,QSPI_SS*%
X198660000Y-79660001D03*
%TO.P,R7,1*%
%TO.N,Net-(R7-Pad1)*%
X198660000Y-80679999D03*
%TD*%
D29*
%TO.P,C13,2*%
%TO.N,GND*%
X200395000Y-73360000D03*
%TO.P,C13,1*%
%TO.N,+3V3*%
X201945000Y-73360000D03*
%TD*%
%TO.P,C14,2*%
%TO.N,GND*%
X198235000Y-67930000D03*
%TO.P,C14,1*%
%TO.N,VBUS*%
X199785000Y-67930000D03*
%TD*%
D30*
%TO.P,R3,1*%
%TO.N,USB_D+*%
X203845000Y-82837501D03*
%TO.P,R3,2*%
%TO.N,Net-(U1-USB_DP)*%
X203845000Y-83857499D03*
%TD*%
D19*
%TO.P,R5,1*%
%TO.N,Net-(C16-Pad2)*%
X204979999Y-94080000D03*
%TO.P,R5,2*%
%TO.N,XOUT*%
X203960001Y-94080000D03*
%TD*%
%TO.P,R2,2*%
%TO.N,GND*%
X201000001Y-67620000D03*
%TO.P,R2,1*%
%TO.N,Net-(J1-CC2)*%
X202019999Y-67620000D03*
%TD*%
D31*
%TO.P,SW1,2,2*%
%TO.N,Net-(R7-Pad1)*%
X202520000Y-76900000D03*
%TO.P,SW1,1,1*%
%TO.N,GND*%
X198320000Y-76900000D03*
%TD*%
D32*
%TO.P,R1,2*%
%TO.N,GND*%
X207040000Y-67660000D03*
%TO.P,R1,1*%
%TO.N,Net-(J1-CC1)*%
X206020000Y-67660000D03*
%TD*%
D19*
%TO.P,R6,1*%
%TO.N,+3V3*%
X201269999Y-80440000D03*
%TO.P,R6,2*%
%TO.N,QSPI_SS*%
X200250001Y-80440000D03*
%TD*%
D33*
%TO.P,U2,3,VI*%
%TO.N,VBUS*%
X201190000Y-69162499D03*
%TO.P,U2,2,VO*%
%TO.N,+3V3*%
X202140000Y-71037500D03*
%TO.P,U2,1,GND*%
%TO.N,GND*%
X200240000Y-71037500D03*
%TD*%
D30*
%TO.P,R4,2*%
%TO.N,Net-(U1-USB_DM)*%
X204845000Y-83857499D03*
%TO.P,R4,1*%
%TO.N,USB_D-*%
X204845000Y-82837501D03*
%TD*%
D34*
%TO.P,Y1,1,1*%
%TO.N,Net-(C16-Pad2)*%
X204390000Y-95530000D03*
%TO.P,Y1,2,2*%
%TO.N,GND*%
X202190000Y-95530000D03*
%TO.P,Y1,3,3*%
%TO.N,XIN*%
X202190000Y-97230000D03*
%TO.P,Y1,4,4*%
%TO.N,GND*%
X204390000Y-97230000D03*
%TD*%
D35*
%TO.N,*%
X201737950Y-90785002D03*
X205145002Y-89050000D03*
X205145002Y-88010000D03*
X205111583Y-87024943D03*
X203930000Y-86680000D03*
X199140000Y-73170000D03*
X199020000Y-71430000D03*
X199060000Y-69450000D03*
X203430000Y-70050000D03*
X203960000Y-72300000D03*
X207640000Y-81350000D03*
X203380000Y-101450000D03*
X205930000Y-100660000D03*
%TO.N,GND*%
X196340000Y-91085000D03*
X198510000Y-85080000D03*
%TO.N,GPIO7*%
X200737950Y-88860000D03*
%TO.N,GPIO1*%
X197520000Y-85600147D03*
%TO.N,+3V3*%
X205851446Y-93508554D03*
X206927000Y-93940000D03*
X203630000Y-99500000D03*
X202521446Y-99240000D03*
%TO.N,GPIO10*%
X195740000Y-93850000D03*
X197960000Y-98790000D03*
X200178554Y-98250000D03*
X199010702Y-97922191D03*
%TO.N,GPIO11*%
X197670000Y-102120000D03*
X198410000Y-101380000D03*
%TO.N,GND*%
X199370000Y-102800000D03*
%TO.N,GPIO12*%
X195176446Y-99676446D03*
X197601000Y-101290000D03*
%TO.N,GPIO11*%
X195280000Y-97590000D03*
X197650000Y-99960000D03*
%TO.N,GND*%
X202930000Y-98240000D03*
X201660000Y-94750000D03*
X205710000Y-97670000D03*
%TO.N,+3V3*%
X202972365Y-81837635D03*
%TO.N,+1V1*%
X201037370Y-86283597D03*
X203600000Y-98740000D03*
%TO.N,GND*%
X195212000Y-77739265D03*
X202340000Y-94290000D03*
X195810000Y-68981473D03*
%TO.N,+3V3*%
X203545000Y-84617064D03*
X206809265Y-83459265D03*
%TO.N,GND*%
X207860000Y-83300000D03*
%TO.N,RUN*%
X205341412Y-90535982D03*
%TO.N,+3V3*%
X209869000Y-72980000D03*
%TO.N,GND*%
X196580000Y-89100000D03*
X210000000Y-90300000D03*
X203140000Y-88790000D03*
X203550000Y-79000000D03*
%TO.N,SWD*%
X204200000Y-106550000D03*
X204300000Y-90885002D03*
%TO.N,GPIO16*%
X207427000Y-100380000D03*
X205599111Y-91293343D03*
%TO.N,GND*%
X199340000Y-83400000D03*
%TO.N,SWCLK*%
X200840000Y-95190000D03*
%TO.N,GPIO0*%
X197620000Y-84535627D03*
%TO.N,SWCLK*%
X203420000Y-90920000D03*
%TO.N,GPIO0*%
X197010000Y-67493142D03*
%TO.N,GPIO7*%
X194811000Y-84760000D03*
%TO.N,GND*%
X201310000Y-79511000D03*
%TO.N,GPIO1*%
X196410000Y-68030000D03*
%TO.N,+3V3*%
X204950000Y-78900000D03*
%TO.N,GND*%
X198110000Y-66570000D03*
X202410000Y-68400000D03*
%TO.N,+1V1*%
X205209000Y-81043435D03*
X206209780Y-82321250D03*
%TO.N,GND*%
X199945000Y-85020000D03*
%TD*%
D36*
%TO.N,*%
X201712948Y-90760000D02*
X201737950Y-90785002D01*
X201680000Y-90760000D02*
X201712948Y-90760000D01*
X205100000Y-89050000D02*
X205145002Y-89050000D01*
X205110000Y-88010000D02*
X205145002Y-88010000D01*
X205106526Y-87030000D02*
X205111583Y-87024943D01*
X205100000Y-87030000D02*
X205106526Y-87030000D01*
X207550000Y-81350000D02*
X207640000Y-81350000D01*
%TO.N,GND*%
X196285000Y-91140000D02*
X196340000Y-91085000D01*
X194260000Y-91140000D02*
X196285000Y-91140000D01*
%TO.N,GPIO10*%
X197365000Y-90985000D02*
X199707500Y-90985000D01*
X194670000Y-93680000D02*
X197365000Y-90985000D01*
X194260000Y-93680000D02*
X194670000Y-93680000D01*
%TO.N,GND*%
X198510000Y-85080000D02*
X198670000Y-84920000D01*
X198670000Y-84920000D02*
X199010000Y-84920000D01*
%TO.N,GPIO7*%
X200580000Y-88420000D02*
X200737950Y-88577950D01*
X200346000Y-88544000D02*
X200470000Y-88420000D01*
X200346000Y-89184000D02*
X200346000Y-88544000D01*
X200737950Y-88577950D02*
X200737950Y-88860000D01*
X200145000Y-89385000D02*
X200346000Y-89184000D01*
X200470000Y-88420000D02*
X200580000Y-88420000D01*
X199707500Y-89385000D02*
X200145000Y-89385000D01*
X200242774Y-89385000D02*
X199707500Y-89385000D01*
%TO.N,QSPI_SD1*%
X200594678Y-84119000D02*
X200945000Y-84469322D01*
X197661000Y-83302422D02*
X198477578Y-84119000D01*
X198477578Y-84119000D02*
X200594678Y-84119000D01*
X197975678Y-82150000D02*
X197661000Y-82464678D01*
X197661000Y-82464678D02*
X197661000Y-83302422D01*
X198750000Y-82150000D02*
X197975678Y-82150000D01*
X200945000Y-84469322D02*
X200945000Y-85347500D01*
%TO.N,QSPI_SS*%
X197360000Y-83427100D02*
X197360000Y-82340000D01*
X200545000Y-84495000D02*
X200470000Y-84420000D01*
X198352900Y-84420000D02*
X197360000Y-83427100D01*
X197360000Y-82340000D02*
X198050000Y-81650000D01*
X200545000Y-85347500D02*
X200545000Y-84495000D01*
X200470000Y-84420000D02*
X198352900Y-84420000D01*
X198050000Y-81650000D02*
X198750000Y-81650000D01*
%TO.N,GPIO0*%
X199155000Y-86585000D02*
X199707500Y-86585000D01*
X198010000Y-85440000D02*
X199155000Y-86585000D01*
X198010000Y-84925627D02*
X198010000Y-85440000D01*
X197620000Y-84535627D02*
X198010000Y-84925627D01*
%TO.N,GPIO1*%
X198564853Y-86645147D02*
X198564853Y-86664853D01*
X197520000Y-85600294D02*
X198564853Y-86645147D01*
X197520000Y-85600147D02*
X197520000Y-85600294D01*
X198904706Y-86985000D02*
X199707500Y-86985000D01*
X197520000Y-85600294D02*
X198904706Y-86985000D01*
%TO.N,GND*%
X196580000Y-89120000D02*
X197140000Y-89680000D01*
X197140000Y-89680000D02*
X197950000Y-89680000D01*
X196580000Y-89100000D02*
X196580000Y-89120000D01*
%TO.N,+3V3*%
X205801892Y-93459000D02*
X205299339Y-93459000D01*
X205851446Y-93508554D02*
X205801892Y-93459000D01*
%TO.N,+1V1*%
X206410000Y-93360000D02*
X206410000Y-94730000D01*
X203860000Y-92900000D02*
X205950000Y-92900000D01*
X206410000Y-94730000D02*
X206450000Y-94770000D01*
X203745000Y-92785000D02*
X203860000Y-92900000D01*
X203745000Y-92222500D02*
X203745000Y-92785000D01*
X205950000Y-92900000D02*
X206410000Y-93360000D01*
%TO.N,+3V3*%
X207710000Y-94723000D02*
X206927000Y-93940000D01*
X207710000Y-94930000D02*
X207710000Y-94723000D01*
X207710000Y-96170000D02*
X207710000Y-94930000D01*
X207710000Y-97380000D02*
X207710000Y-96170000D01*
X206600000Y-98490000D02*
X207710000Y-97380000D01*
%TO.N,GPIO16*%
X207427000Y-104307000D02*
X212035000Y-108915000D01*
X207427000Y-100380000D02*
X207427000Y-104307000D01*
%TO.N,+3V3*%
X205590000Y-99500000D02*
X206600000Y-98490000D01*
X203630000Y-99500000D02*
X205590000Y-99500000D01*
X202260000Y-99501446D02*
X202521446Y-99240000D01*
X202260000Y-99680001D02*
X202260000Y-99501446D01*
%TO.N,GND*%
X199130000Y-98510000D02*
X199130000Y-98940000D01*
X199890000Y-97750000D02*
X199130000Y-98510000D01*
X201265262Y-97750000D02*
X199890000Y-97750000D01*
X202051000Y-98031000D02*
X201546262Y-98031000D01*
X203030000Y-99010000D02*
X202051000Y-98031000D01*
X203030000Y-100050000D02*
X203030000Y-99010000D01*
X201546262Y-98031000D02*
X201265262Y-97750000D01*
X200882500Y-101200583D02*
X201873083Y-100210000D01*
X202870000Y-100210000D02*
X203030000Y-100050000D01*
X200882500Y-101287500D02*
X200882500Y-101200583D01*
X201873083Y-100210000D02*
X202870000Y-100210000D01*
%TO.N,+3V3*%
X201489999Y-98910000D02*
X202260000Y-99680001D01*
X201489999Y-98770000D02*
X201489999Y-98910000D01*
%TO.N,GPIO10*%
X195570000Y-93680000D02*
X194260000Y-93680000D01*
X195740000Y-93850000D02*
X195570000Y-93680000D01*
X197960000Y-99239322D02*
X197960000Y-98790000D01*
X198555339Y-99834661D02*
X197960000Y-99239322D01*
X198733178Y-100012500D02*
X198555339Y-99834661D01*
X199582500Y-100012500D02*
X198733178Y-100012500D01*
X200470001Y-98541447D02*
X200470001Y-98770000D01*
X200178554Y-98250000D02*
X200470001Y-98541447D01*
X198729000Y-98203893D02*
X199010702Y-97922191D01*
X198729000Y-99159000D02*
X198729000Y-98203893D01*
X199582500Y-100012500D02*
X198729000Y-99159000D01*
%TO.N,GPIO11*%
X200660000Y-103450000D02*
X202260000Y-101850000D01*
X197800000Y-103450000D02*
X200660000Y-103450000D01*
X202260000Y-101850000D02*
X202260000Y-100699999D01*
X197402000Y-103052000D02*
X197800000Y-103450000D01*
X197402000Y-102388000D02*
X197402000Y-103052000D01*
X197670000Y-102120000D02*
X197402000Y-102388000D01*
X199582500Y-101287500D02*
X198502500Y-101287500D01*
X198502500Y-101287500D02*
X198410000Y-101380000D01*
X198410000Y-101380000D02*
X198570000Y-101380000D01*
%TO.N,GND*%
X199745678Y-102800000D02*
X199370000Y-102800000D01*
X200882500Y-101663178D02*
X199745678Y-102800000D01*
X200882500Y-101287500D02*
X200882500Y-101663178D01*
%TO.N,+3V3*%
X200232500Y-99542500D02*
X199630000Y-98940000D01*
X200232500Y-100012499D02*
X200232500Y-99542500D01*
%TO.N,GPIO12*%
X198611000Y-102300000D02*
X197601000Y-101290000D01*
X199820000Y-102300000D02*
X198611000Y-102300000D01*
X200232500Y-101887500D02*
X199820000Y-102300000D01*
X200232500Y-101287501D02*
X200232500Y-101887500D01*
X195176446Y-99676446D02*
X194260000Y-98760000D01*
%TO.N,+3V3*%
X200739000Y-99291000D02*
X200968999Y-99291000D01*
X200232500Y-99797500D02*
X200739000Y-99291000D01*
X200232500Y-100012499D02*
X200232500Y-99797500D01*
X200968999Y-99291000D02*
X201489999Y-98770000D01*
%TO.N,GPIO11*%
X195280000Y-97590000D02*
X194260000Y-96570000D01*
X194260000Y-96570000D02*
X194260000Y-96220000D01*
X198255000Y-99960000D02*
X197650000Y-99960000D01*
X199582500Y-101287500D02*
X198255000Y-99960000D01*
%TO.N,GPIO12*%
X198431700Y-92997000D02*
X200370000Y-92997000D01*
X200370000Y-92997000D02*
X200545000Y-92822000D01*
X195800000Y-98320000D02*
X195800000Y-95628700D01*
X200545000Y-92822000D02*
X200545000Y-92222500D01*
X195360000Y-98760000D02*
X195800000Y-98320000D01*
X194260000Y-98760000D02*
X195360000Y-98760000D01*
X195800000Y-95628700D02*
X198431700Y-92997000D01*
%TO.N,SWCLK*%
X197101000Y-98929000D02*
X200840000Y-95190000D01*
X197101000Y-105171000D02*
X197101000Y-98929000D01*
X200605000Y-108675000D02*
X197101000Y-105171000D01*
%TO.N,GPIO15*%
X201250000Y-94200000D02*
X201745000Y-93705000D01*
X198930000Y-94200000D02*
X201250000Y-94200000D01*
X196800000Y-106380000D02*
X196800000Y-96330000D01*
X201745000Y-93705000D02*
X201745000Y-92222500D01*
X194260000Y-108920000D02*
X196800000Y-106380000D01*
X196800000Y-96330000D02*
X198930000Y-94200000D01*
%TO.N,GPIO14*%
X201345000Y-93505000D02*
X201345000Y-92222500D01*
X201051000Y-93799000D02*
X201345000Y-93505000D01*
X198763900Y-93799000D02*
X201051000Y-93799000D01*
X196480000Y-96082900D02*
X198763900Y-93799000D01*
X196480000Y-104160000D02*
X196480000Y-96082900D01*
X194260000Y-106380000D02*
X196480000Y-104160000D01*
%TO.N,GPIO13*%
X200945000Y-93115000D02*
X200945000Y-92222500D01*
X196160000Y-95835800D02*
X198597800Y-93398000D01*
X198597800Y-93398000D02*
X200662000Y-93398000D01*
X194260000Y-101300000D02*
X196160000Y-99400000D01*
X196160000Y-99400000D02*
X196160000Y-95835800D01*
X200662000Y-93398000D02*
X200945000Y-93115000D01*
%TO.N,GND*%
X202930000Y-98240000D02*
X203380000Y-98240000D01*
X203380000Y-98240000D02*
X204390000Y-97230000D01*
X202190000Y-95280000D02*
X201660000Y-94750000D01*
X202190000Y-95530000D02*
X202190000Y-95280000D01*
X202145000Y-92222500D02*
X202145000Y-94095000D01*
X203900000Y-80690000D02*
X203550000Y-80340000D01*
X203900000Y-80950000D02*
X203900000Y-80690000D01*
X206550000Y-65830000D02*
X207465000Y-64915000D01*
X206395000Y-65830000D02*
X206550000Y-65830000D01*
%TO.N,+3V3*%
X202140000Y-73165000D02*
X201945000Y-73360000D01*
X202140000Y-71037500D02*
X202140000Y-73165000D01*
%TO.N,GND*%
X206799000Y-95619000D02*
X206450000Y-95270000D01*
X206590000Y-96830000D02*
X206799000Y-96621000D01*
X206260000Y-96830000D02*
X206590000Y-96830000D01*
X206799000Y-96621000D02*
X206799000Y-95619000D01*
%TO.N,+1V1*%
X206683824Y-94770000D02*
X206450000Y-94770000D01*
X207200000Y-95286176D02*
X206683824Y-94770000D01*
X205910000Y-98740000D02*
X207200000Y-97450000D01*
X203600000Y-98740000D02*
X205910000Y-98740000D01*
X207200000Y-97450000D02*
X207200000Y-95286176D01*
%TO.N,GND*%
X205710000Y-97050000D02*
X205710000Y-97670000D01*
X205490000Y-96830000D02*
X205710000Y-97050000D01*
X205490000Y-96830000D02*
X204790000Y-96830000D01*
X204790000Y-96830000D02*
X204390000Y-97230000D01*
X206260000Y-96830000D02*
X205490000Y-96830000D01*
%TO.N,Net-(C16-Pad2)*%
X205190000Y-96330000D02*
X204390000Y-95530000D01*
X206260000Y-96330000D02*
X205190000Y-96330000D01*
%TO.N,GND*%
X206020000Y-83400000D02*
X206600000Y-82820000D01*
X206020000Y-83500000D02*
X206020000Y-83400000D01*
%TO.N,+1V1*%
X206020000Y-84100000D02*
X206020000Y-84000000D01*
X205600000Y-84520000D02*
X206020000Y-84100000D01*
X205230000Y-84520000D02*
X205600000Y-84520000D01*
X204945000Y-84805000D02*
X205230000Y-84520000D01*
X204945000Y-85347500D02*
X204945000Y-84805000D01*
X205569000Y-83782824D02*
X205786176Y-84000000D01*
X205569000Y-82962030D02*
X205569000Y-83782824D01*
X205786176Y-84000000D02*
X206020000Y-84000000D01*
X206209780Y-82321250D02*
X205569000Y-82962030D01*
%TO.N,USB_D-*%
X203895000Y-66917501D02*
X203895000Y-65830000D01*
X206210000Y-70589205D02*
X206210000Y-70469205D01*
X206210000Y-81472501D02*
X206210000Y-71669205D01*
X206210000Y-69232501D02*
X203895000Y-66917501D01*
X206210000Y-70469205D02*
X206210000Y-70242779D01*
X206210000Y-70242779D02*
X206210000Y-69232501D01*
X206786415Y-71189205D02*
X206786415Y-71069205D01*
X206546415Y-70829205D02*
X206450000Y-70829205D01*
X206450000Y-71429205D02*
X206546415Y-71429205D01*
X204845000Y-82837501D02*
X206210000Y-81472501D01*
X206210000Y-71669205D02*
G75*
G02*
X206450000Y-71429200I240000J5D01*
G01*
X206546415Y-71429205D02*
G75*
G03*
X206786405Y-71189205I-15J240005D01*
G01*
X206450000Y-70829205D02*
G75*
G02*
X206209995Y-70589205I0J240005D01*
G01*
X206786415Y-71069205D02*
G75*
G03*
X206546415Y-70829185I-240015J5D01*
G01*
%TO.N,USB_D+*%
X204224000Y-82837501D02*
X203845000Y-82837501D01*
X204224000Y-82518161D02*
X204224000Y-82837501D01*
X204475660Y-82266501D02*
X204224000Y-82518161D01*
X204848900Y-82266501D02*
X204475660Y-82266501D01*
X205809000Y-81306401D02*
X204848900Y-82266501D01*
X205809000Y-71481386D02*
X205809000Y-81306401D01*
X205796123Y-71117591D02*
X205809000Y-71481386D01*
X205809000Y-71104709D02*
X205796123Y-71117591D01*
X205809000Y-70707916D02*
X205809000Y-71104709D01*
X205809000Y-70327720D02*
X205796331Y-70695242D01*
X205809000Y-69398601D02*
X205809000Y-70327720D01*
X203494000Y-67083601D02*
X205809000Y-69398601D01*
X203494000Y-67016501D02*
X203494000Y-67083601D01*
X203395000Y-66917501D02*
X203494000Y-67016501D01*
X203395000Y-65830000D02*
X203395000Y-66917501D01*
X205796331Y-70695242D02*
X205809000Y-70707916D01*
%TO.N,+3V3*%
X204450000Y-80220000D02*
X205408000Y-79262000D01*
X205408000Y-79262000D02*
X205408000Y-78442000D01*
X204450000Y-81140000D02*
X204450000Y-80220000D01*
X204140000Y-81450000D02*
X204450000Y-81140000D01*
X203900000Y-81450000D02*
X204140000Y-81450000D01*
X205408000Y-78442000D02*
X205408000Y-78440000D01*
X204950000Y-78900000D02*
X205408000Y-78442000D01*
X204950000Y-78900000D02*
X204950000Y-78952000D01*
X203460000Y-81450000D02*
X203200000Y-81190000D01*
X203900000Y-81450000D02*
X203460000Y-81450000D01*
%TO.N,GND*%
X203550000Y-80340000D02*
X203200000Y-80690000D01*
X203550000Y-79000000D02*
X203550000Y-80340000D01*
%TO.N,+3V3*%
X202966176Y-81190000D02*
X203200000Y-81190000D01*
X202740000Y-80963824D02*
X202966176Y-81190000D01*
X202740000Y-80506176D02*
X202740000Y-80963824D01*
X203345000Y-86112100D02*
X203345000Y-85347500D01*
X201250910Y-86920000D02*
X201609910Y-86561000D01*
X200446000Y-86920000D02*
X200446000Y-86385000D01*
X200446000Y-86920000D02*
X201250910Y-86920000D01*
X201609910Y-86561000D02*
X202896100Y-86561000D01*
X202896100Y-86561000D02*
X203345000Y-86112100D01*
%TO.N,+1V1*%
X202945000Y-85945000D02*
X202945000Y-85347500D01*
X201160966Y-86160000D02*
X202730000Y-86160000D01*
X201037370Y-86283597D02*
X201160966Y-86160000D01*
X202730000Y-86160000D02*
X202945000Y-85945000D01*
%TO.N,+3V3*%
X200446000Y-87588226D02*
X200446000Y-86920000D01*
X206048226Y-86184000D02*
X206100000Y-86184000D01*
X205680000Y-89420000D02*
X205680000Y-86552226D01*
X205680000Y-86552226D02*
X206048226Y-86184000D01*
X206045000Y-89785000D02*
X205680000Y-89420000D01*
X206582500Y-89785000D02*
X206045000Y-89785000D01*
X205685000Y-86185000D02*
X206030000Y-86185000D01*
%TO.N,GPIO27_ADC1*%
X209269000Y-71041000D02*
X209269000Y-87036800D01*
%TO.N,GPIO28_ADC2*%
X208868000Y-66362000D02*
X208868000Y-86870700D01*
X212035000Y-63195000D02*
X208868000Y-66362000D01*
%TO.N,GPIO25*%
X210078000Y-87362000D02*
X210078000Y-77852000D01*
%TO.N,VBUS*%
X199785000Y-67930000D02*
X199785000Y-68615000D01*
%TO.N,GPIO25*%
X210078000Y-77852000D02*
X212035000Y-75895000D01*
%TO.N,VBUS*%
X199785000Y-68615000D02*
X200332499Y-69162499D01*
%TO.N,GPIO24*%
X210479000Y-82531000D02*
X212035000Y-80975000D01*
%TO.N,+3V3*%
X212035000Y-70815000D02*
X209870000Y-72980000D01*
%TO.N,GPIO25*%
X206582500Y-88185000D02*
X209255000Y-88185000D01*
%TO.N,VBUS*%
X199785000Y-67930000D02*
X199785000Y-67445000D01*
X200332499Y-69162499D02*
X201190000Y-69162499D01*
X199785000Y-67445000D02*
X200694999Y-66535001D01*
X200694999Y-66535001D02*
X200694999Y-65830000D01*
%TO.N,GPIO26_ADC0*%
X206582500Y-87785000D02*
X209087900Y-87785000D01*
X209670000Y-75720000D02*
X212035000Y-73355000D01*
%TO.N,GPIO25*%
X209255000Y-88185000D02*
X210078000Y-87362000D01*
%TO.N,GPIO27_ADC1*%
X212035000Y-68275000D02*
X209269000Y-71041000D01*
X209269000Y-87036800D02*
X208920800Y-87385000D01*
%TO.N,GPIO26_ADC0*%
X209087900Y-87785000D02*
X209670000Y-87202900D01*
%TO.N,GPIO27_ADC1*%
X208920800Y-87385000D02*
X206582500Y-87385000D01*
%TO.N,GPIO24*%
X210479000Y-87533900D02*
X210479000Y-82531000D01*
%TO.N,GPIO26_ADC0*%
X209670000Y-87202900D02*
X209670000Y-75720000D01*
%TO.N,GPIO28_ADC2*%
X208753700Y-86985000D02*
X206582500Y-86985000D01*
%TO.N,VBUS*%
X205093001Y-64403000D02*
X205595001Y-64905000D01*
X210854000Y-61836000D02*
X212035000Y-60655000D01*
X201196999Y-64403000D02*
X205093001Y-64403000D01*
X205093001Y-64403000D02*
X205093001Y-64370991D01*
X207627992Y-61836000D02*
X210854000Y-61836000D01*
X205595001Y-64905000D02*
X205595001Y-65830000D01*
X205093001Y-64370991D02*
X207627992Y-61836000D01*
%TO.N,+3V3*%
X209870000Y-72980000D02*
X209869000Y-72980000D01*
%TO.N,GPIO28_ADC2*%
X208868000Y-86870700D02*
X208753700Y-86985000D01*
%TO.N,VBUS*%
X200694999Y-65830000D02*
X200694999Y-64905000D01*
X200694999Y-64905000D02*
X201196999Y-64403000D01*
%TO.N,GND*%
X209060000Y-90150000D02*
X209850000Y-90150000D01*
X203145000Y-88785000D02*
X203140000Y-88790000D01*
X209850000Y-90150000D02*
X210000000Y-90300000D01*
X206600000Y-82820000D02*
X207380000Y-82820000D01*
X207380000Y-82820000D02*
X207860000Y-83300000D01*
%TO.N,GPIO24*%
X206582500Y-88585000D02*
X209427900Y-88585000D01*
X209427900Y-88585000D02*
X210479000Y-87533900D01*
%TO.N,+3V3*%
X208195000Y-89785000D02*
X206582500Y-89785000D01*
%TO.N,GPIO22*%
X211245000Y-89385000D02*
X206582500Y-89385000D01*
%TO.N,+3V3*%
X208560000Y-90150000D02*
X208195000Y-89785000D01*
%TO.N,GPIO23*%
X210880000Y-84670000D02*
X212035000Y-83515000D01*
X209595000Y-88985000D02*
X210880000Y-87700000D01*
X210880000Y-87700000D02*
X210880000Y-84670000D01*
X206582500Y-88985000D02*
X209595000Y-88985000D01*
%TO.N,GPIO22*%
X212035000Y-88595000D02*
X211245000Y-89385000D01*
%TO.N,Net-(U1-USB_DP)*%
X204145000Y-84157499D02*
X203845000Y-83857499D01*
X204145000Y-85347500D02*
X204145000Y-84157499D01*
%TO.N,GND*%
X201699000Y-79900000D02*
X201310000Y-79511000D01*
X202400000Y-79900000D02*
X201699000Y-79900000D01*
X196160473Y-68631000D02*
X197534000Y-68631000D01*
X194260000Y-78440000D02*
X194511265Y-78440000D01*
X195810000Y-68981473D02*
X196160473Y-68631000D01*
X194511265Y-78440000D02*
X195212000Y-77739265D01*
X197534000Y-68631000D02*
X198235000Y-67930000D01*
%TO.N,+3V3*%
X205345000Y-85845000D02*
X205685000Y-86185000D01*
%TO.N,GND*%
X202145000Y-94095000D02*
X202340000Y-94290000D01*
%TO.N,+3V3*%
X205345000Y-85347500D02*
X205345000Y-85845000D01*
X200246000Y-86185000D02*
X199707500Y-86185000D01*
X200446000Y-86385000D02*
X200246000Y-86185000D01*
%TO.N,SWD*%
X204300000Y-90951470D02*
X204545000Y-91196470D01*
X204545000Y-91196470D02*
X204545000Y-92222500D01*
%TO.N,SWCLK*%
X203420000Y-90920000D02*
X204145000Y-91645000D01*
X204145000Y-91645000D02*
X204145000Y-92222500D01*
%TO.N,SWD*%
X204300000Y-90885002D02*
X204300000Y-90951470D01*
%TO.N,GND*%
X206995528Y-84165994D02*
X206995528Y-84164472D01*
%TO.N,+3V3*%
X199707500Y-86185000D02*
X199723500Y-86169000D01*
%TO.N,GND*%
X207860000Y-84514999D02*
X207630000Y-84744999D01*
%TO.N,+3V3*%
X206809265Y-83459265D02*
X206876607Y-83526607D01*
%TO.N,GND*%
X207860000Y-83300000D02*
X207860000Y-84514999D01*
%TO.N,+3V3*%
X206476637Y-84047073D02*
X206476637Y-84354211D01*
X206876607Y-83647103D02*
X206476637Y-84047073D01*
X206876607Y-83526607D02*
X206876607Y-83647103D01*
%TO.N,GND*%
X206995528Y-84164472D02*
X207860000Y-83300000D01*
%TO.N,+3V3*%
X206476637Y-84354211D02*
X206641974Y-84519548D01*
%TO.N,Net-(U1-USB_DM)*%
X204545000Y-85347500D02*
X204545000Y-84157499D01*
X204545000Y-84157499D02*
X204845000Y-83857499D01*
%TO.N,+3V3*%
X202990000Y-79409943D02*
X202990000Y-80043824D01*
X200899000Y-78911000D02*
X202501000Y-78911000D01*
X202501000Y-78911000D02*
X202501000Y-78920943D01*
X202633824Y-80400000D02*
X202400000Y-80400000D01*
X201269999Y-80440000D02*
X200690000Y-79860001D01*
X202501000Y-78920943D02*
X202990000Y-79409943D01*
%TO.N,+1V1*%
X202945000Y-82658800D02*
X202230000Y-81943800D01*
%TO.N,GND*%
X201949000Y-80989000D02*
X201949000Y-80150000D01*
X201949000Y-80150000D02*
X201699000Y-79900000D01*
%TO.N,+3V3*%
X202633824Y-80400000D02*
X202740000Y-80506176D01*
X200690000Y-79860001D02*
X200690000Y-79120000D01*
%TO.N,+1V1*%
X202230000Y-81943800D02*
X202230000Y-81770000D01*
%TO.N,+3V3*%
X202990000Y-80043824D02*
X202633824Y-80400000D01*
X200690000Y-79120000D02*
X200899000Y-78911000D01*
%TO.N,GND*%
X202230000Y-81270000D02*
X201949000Y-80989000D01*
X207722500Y-84652499D02*
X208002499Y-84652499D01*
X208002499Y-84652499D02*
X208250000Y-84900000D01*
X207630000Y-84744999D02*
X207722500Y-84652499D01*
X208250000Y-84900000D02*
X208250000Y-86190000D01*
%TO.N,GPIO16*%
X205345000Y-91547454D02*
X205345000Y-92222500D01*
X205599111Y-91293343D02*
X205345000Y-91547454D01*
%TO.N,RUN*%
X204945000Y-90932394D02*
X205341412Y-90535982D01*
X204945000Y-92222500D02*
X204945000Y-90932394D01*
%TO.N,GPIO0*%
X197010000Y-63410000D02*
X194260000Y-60660000D01*
X197010000Y-67493142D02*
X197010000Y-63410000D01*
%TO.N,+3V3*%
X201945000Y-73360000D02*
X205408000Y-76823000D01*
X205408000Y-76823000D02*
X205408000Y-78440000D01*
%TO.N,XOUT*%
X203732900Y-94080000D02*
X202945000Y-93292100D01*
X203960001Y-94080000D02*
X203732900Y-94080000D01*
X202945000Y-93292100D02*
X202945000Y-92222500D01*
%TO.N,+3V3*%
X198555000Y-89785000D02*
X198450000Y-89680000D01*
X199707500Y-89785000D02*
X198555000Y-89785000D01*
%TO.N,GPIO7*%
X194260000Y-84209000D02*
X194811000Y-84760000D01*
%TO.N,GPIO19*%
X208829000Y-95549000D02*
X208829000Y-92500000D01*
%TO.N,GPIO7*%
X194260000Y-83520000D02*
X194260000Y-84209000D01*
%TO.N,GPIO19*%
X212035000Y-98755000D02*
X208829000Y-95549000D01*
%TO.N,Net-(R7-Pad1)*%
X198700000Y-78510000D02*
X202270000Y-78510000D01*
X198660000Y-80679999D02*
X198660000Y-80599999D01*
X197930000Y-79869999D02*
X197930000Y-79280000D01*
%TO.N,QSPI_SS*%
X200250001Y-80440000D02*
X200230001Y-80420000D01*
X200230001Y-80080001D02*
X199810001Y-79660001D01*
X200230001Y-80420000D02*
X200230001Y-80080001D01*
X199810001Y-79660001D02*
X198660000Y-79660001D01*
%TO.N,Net-(R7-Pad1)*%
X198660000Y-80599999D02*
X197930000Y-79869999D01*
X202520000Y-78260000D02*
X202520000Y-76900000D01*
X197930000Y-79280000D02*
X198700000Y-78510000D01*
X202270000Y-78510000D02*
X202520000Y-78260000D01*
%TO.N,+3V3*%
X205299339Y-93459000D02*
X204660659Y-93459000D01*
X205780000Y-93939661D02*
X205299339Y-93459000D01*
X203345000Y-93125000D02*
X203345000Y-92222500D01*
X205745000Y-85347500D02*
X205814022Y-85347500D01*
X204649659Y-93470000D02*
X204290341Y-93470000D01*
X205780000Y-94770000D02*
X205780000Y-93939661D01*
X204290341Y-93470000D02*
X204279341Y-93459000D01*
X203679000Y-93459000D02*
X203345000Y-93125000D01*
X205814022Y-85347500D02*
X206641974Y-84519548D01*
X204660659Y-93459000D02*
X204649659Y-93470000D01*
X204279341Y-93459000D02*
X203679000Y-93459000D01*
X207630000Y-85244999D02*
X207367425Y-85244999D01*
X207750000Y-85364999D02*
X207630000Y-85244999D01*
X207367425Y-85244999D02*
X206641974Y-84519548D01*
X207750000Y-86190000D02*
X207750000Y-85364999D01*
%TO.N,Net-(C16-Pad2)*%
X204390000Y-94669999D02*
X204979999Y-94080000D01*
X204390000Y-95530000D02*
X204390000Y-94669999D01*
%TO.N,GND*%
X202190000Y-95530000D02*
X201490000Y-95530000D01*
%TO.N,XIN*%
X203191000Y-96229000D02*
X203191000Y-94111000D01*
X202190000Y-97230000D02*
X203191000Y-96229000D01*
X203191000Y-94111000D02*
X202545000Y-93465000D01*
X202545000Y-93465000D02*
X202545000Y-92222500D01*
X202190000Y-97230000D02*
X201330000Y-97230000D01*
X201330000Y-97230000D02*
X200810000Y-96710000D01*
%TO.N,GND*%
X201490000Y-95530000D02*
X200810000Y-96210000D01*
%TO.N,QSPI_SD0*%
X201250000Y-83150000D02*
X201580000Y-83150000D01*
X201580000Y-83150000D02*
X201745000Y-83315000D01*
X201745000Y-83315000D02*
X201745000Y-85347500D01*
%TO.N,+3V3*%
X201269999Y-80440000D02*
X201399999Y-80570000D01*
X201250000Y-80459999D02*
X201269999Y-80440000D01*
X201250000Y-81650000D02*
X201250000Y-80459999D01*
X206582500Y-86185000D02*
X207745000Y-86185000D01*
X207745000Y-86185000D02*
X207750000Y-86190000D01*
%TO.N,Net-(J1-CC1)*%
X205248000Y-67660000D02*
X204395000Y-66807000D01*
%TO.N,Net-(J1-CC2)*%
X201395000Y-66995001D02*
X201395000Y-65830000D01*
X202019999Y-67620000D02*
X201395000Y-66995001D01*
%TO.N,Net-(J1-CC1)*%
X204395000Y-66807000D02*
X204395000Y-65829999D01*
X206020000Y-67660000D02*
X205248000Y-67660000D01*
%TO.N,GPIO6*%
X194260000Y-80980000D02*
X195411000Y-82131000D01*
X195411000Y-82131000D02*
X195411000Y-86643900D01*
X195411000Y-86643900D02*
X197752100Y-88985000D01*
X197752100Y-88985000D02*
X199707500Y-88985000D01*
%TO.N,GPIO5*%
X197925000Y-88585000D02*
X199707500Y-88585000D01*
X195812000Y-86472000D02*
X197925000Y-88585000D01*
%TO.N,GPIO4*%
X196213000Y-86305900D02*
X198092100Y-88185000D01*
%TO.N,GPIO3*%
X194260000Y-70820000D02*
X196614000Y-73174000D01*
%TO.N,GPIO5*%
X194260000Y-75900000D02*
X195812000Y-77452000D01*
%TO.N,GPIO4*%
X194260000Y-73360000D02*
X196213000Y-75313000D01*
X198092100Y-88185000D02*
X199707500Y-88185000D01*
X196213000Y-75313000D02*
X196213000Y-86305900D01*
%TO.N,GPIO5*%
X195812000Y-77452000D02*
X195812000Y-86472000D01*
%TO.N,GPIO3*%
X198259200Y-87785000D02*
X199707500Y-87785000D01*
X196614000Y-86139800D02*
X198259200Y-87785000D01*
X196614000Y-73174000D02*
X196614000Y-86139800D01*
%TO.N,SWD*%
X204200000Y-107190001D02*
X204200000Y-106550000D01*
X205684999Y-108675000D02*
X204200000Y-107190001D01*
%TO.N,GPIO11*%
X194260000Y-96220000D02*
X196300000Y-94180000D01*
X196300000Y-94180000D02*
X196300000Y-92520000D01*
X196300000Y-92520000D02*
X197435000Y-91385000D01*
X197435000Y-91385000D02*
X199707500Y-91385000D01*
%TO.N,GPIO8*%
X195400000Y-89087760D02*
X195400000Y-89172900D01*
%TO.N,GPIO9*%
X196245000Y-90585000D02*
X199707500Y-90585000D01*
%TO.N,GPIO8*%
X195411000Y-89076760D02*
X195400000Y-89087760D01*
%TO.N,GPIO9*%
X194260000Y-88600000D02*
X196245000Y-90585000D01*
%TO.N,GPIO8*%
X194260000Y-86060000D02*
X195411000Y-87211000D01*
X195400000Y-89172900D02*
X196412100Y-90185000D01*
X196412100Y-90185000D02*
X199707500Y-90185000D01*
X195411000Y-87211000D02*
X195411000Y-89076760D01*
%TO.N,GPIO2*%
X199707500Y-87385000D02*
X198456177Y-87385000D01*
X197020000Y-71040000D02*
X194260000Y-68280000D01*
X198456177Y-87385000D02*
X197020000Y-85948823D01*
X197020000Y-85948823D02*
X197020000Y-71040000D01*
%TO.N,GPIO20*%
X207495000Y-90585000D02*
X209230000Y-92320000D01*
X209230000Y-92320000D02*
X209230000Y-93410000D01*
X206582500Y-90585000D02*
X207495000Y-90585000D01*
%TO.N,GPIO18*%
X208428000Y-97688000D02*
X208428000Y-92666100D01*
X207146900Y-91385000D02*
X206582500Y-91385000D01*
X208428000Y-92666100D02*
X207146900Y-91385000D01*
X212035000Y-101295000D02*
X208428000Y-97688000D01*
%TO.N,GPIO20*%
X209230000Y-93410000D02*
X212035000Y-96215000D01*
%TO.N,GPIO17*%
X212035000Y-106375000D02*
X208027000Y-102367000D01*
X206722500Y-92222500D02*
X205745000Y-92222500D01*
X208027000Y-93527000D02*
X206722500Y-92222500D01*
X208027000Y-102367000D02*
X208027000Y-93527000D01*
%TO.N,GPIO19*%
X206582500Y-90985000D02*
X207314000Y-90985000D01*
X207314000Y-90985000D02*
X208829000Y-92500000D01*
%TO.N,GPIO21*%
X207775000Y-90185000D02*
X206582500Y-90185000D01*
X208240000Y-90650000D02*
X207775000Y-90185000D01*
X209010000Y-90650000D02*
X208240000Y-90650000D01*
X212035000Y-93675000D02*
X209010000Y-90650000D01*
%TO.N,QSPI_SS*%
X198899001Y-81250999D02*
X198750000Y-81400000D01*
X200120001Y-80570000D02*
X199580000Y-80570000D01*
X200250001Y-80440000D02*
X200120001Y-80570000D01*
X198750000Y-81400000D02*
X198750000Y-81650000D01*
X199029340Y-81250999D02*
X198899001Y-81250999D01*
X199580000Y-80570000D02*
X199281000Y-80869000D01*
X199281000Y-80869000D02*
X199281000Y-80999339D01*
X199281000Y-80999339D02*
X199029340Y-81250999D01*
%TO.N,GND*%
X199090000Y-83150000D02*
X199340000Y-83400000D01*
X198750000Y-83150000D02*
X199090000Y-83150000D01*
%TO.N,USB_D+*%
X203316000Y-66856000D02*
X203395000Y-66777000D01*
%TO.N,USB_D-*%
X203846000Y-64804000D02*
X203895000Y-64853000D01*
%TO.N,USB_D+*%
X202395000Y-66807000D02*
X202444000Y-66856000D01*
%TO.N,USB_D-*%
X202895000Y-65830000D02*
X202895000Y-64853000D01*
X202895000Y-64853000D02*
X202944000Y-64804000D01*
%TO.N,USB_D+*%
X202395000Y-65830000D02*
X202395000Y-66807000D01*
X202444000Y-66856000D02*
X203316000Y-66856000D01*
%TO.N,USB_D-*%
X203895000Y-64853000D02*
X203895000Y-65830000D01*
%TO.N,USB_D+*%
X203395000Y-66777000D02*
X203395000Y-65830000D01*
%TO.N,USB_D-*%
X202944000Y-64804000D02*
X203846000Y-64804000D01*
%TO.N,QSPI_SD3*%
X202545000Y-82825900D02*
X201869100Y-82150000D01*
X201869100Y-82150000D02*
X201250000Y-82150000D01*
%TO.N,QSPI_SCLK*%
X202145000Y-82993000D02*
X202145000Y-85347500D01*
X201250000Y-82650000D02*
X201802000Y-82650000D01*
X201802000Y-82650000D02*
X202145000Y-82993000D01*
%TO.N,QSPI_SD3*%
X202545000Y-85347500D02*
X202545000Y-82825900D01*
%TO.N,+1V1*%
X202945000Y-82658800D02*
X202945000Y-85347500D01*
%TO.N,+3V3*%
X203346000Y-84754000D02*
X203346000Y-84900000D01*
X203545000Y-84617064D02*
X203482936Y-84617064D01*
X203482936Y-84617064D02*
X203346000Y-84754000D01*
X203745000Y-85347500D02*
X203745000Y-84817064D01*
X203745000Y-84817064D02*
X203545000Y-84617064D01*
X203346000Y-84900000D02*
X203345000Y-84901000D01*
X203345000Y-84901000D02*
X203345000Y-85347500D01*
%TO.N,GPIO1*%
X196410000Y-68030000D02*
X196410000Y-65350000D01*
X196410000Y-65350000D02*
X194260000Y-63200000D01*
%TO.N,+3V3*%
X199420000Y-85420000D02*
X199707500Y-85707500D01*
X199707500Y-85707500D02*
X199707500Y-86185000D01*
X199010000Y-85420000D02*
X199420000Y-85420000D01*
X203345000Y-92222500D02*
X203345000Y-91665000D01*
X203345000Y-91665000D02*
X203150000Y-91470000D01*
X203150000Y-91470000D02*
X201073070Y-91470000D01*
X201073070Y-91470000D02*
X200583960Y-90980890D01*
X200583960Y-89790040D02*
X200589000Y-89785000D01*
X199707500Y-89785000D02*
X200589000Y-89785000D01*
X200583960Y-90980890D02*
X200583960Y-89790040D01*
X200960000Y-89414000D02*
X200960000Y-89410000D01*
X200589000Y-89785000D02*
X200960000Y-89414000D01*
X200960000Y-89410000D02*
X201237950Y-89132050D01*
X201237950Y-88380176D02*
X200446000Y-87588226D01*
X201237950Y-89132050D02*
X201237950Y-88380176D01*
X206030000Y-86185000D02*
X206582500Y-86185000D01*
%TO.N,GND*%
X206450000Y-95270000D02*
X205780000Y-95270000D01*
%TO.N,QSPI_SD2*%
X201345000Y-85347500D02*
X201345000Y-84137900D01*
X200290000Y-81220000D02*
X199749000Y-81220000D01*
X200530000Y-83322900D02*
X200530000Y-81460000D01*
X201345000Y-84137900D02*
X200530000Y-83322900D01*
X200530000Y-81460000D02*
X200290000Y-81220000D01*
X199549000Y-82403000D02*
X199302000Y-82650000D01*
X199749000Y-81220000D02*
X199549000Y-81420000D01*
X199549000Y-81420000D02*
X199549000Y-82403000D01*
X199302000Y-82650000D02*
X198750000Y-82650000D01*
%TO.N,GND*%
X199895000Y-65830000D02*
X199895000Y-66055000D01*
X199310000Y-66640000D02*
X198180000Y-66640000D01*
X199895000Y-66055000D02*
X199310000Y-66640000D01*
X198180000Y-66640000D02*
X198110000Y-66570000D01*
X201000001Y-67620000D02*
X201026969Y-67620000D01*
X201026969Y-67620000D02*
X201806969Y-68400000D01*
X201806969Y-68400000D02*
X202410000Y-68400000D01*
%TO.N,+3V3*%
X202972365Y-81837635D02*
X202830000Y-81695270D01*
X202830000Y-81695270D02*
X202830000Y-81390000D01*
X202830000Y-81390000D02*
X203030000Y-81190000D01*
X203030000Y-81190000D02*
X203200000Y-81190000D01*
%TO.N,+1V1*%
X202945000Y-82658800D02*
X203083361Y-82658800D01*
X203083361Y-82658800D02*
X203791161Y-81951000D01*
X203791161Y-81951000D02*
X204206100Y-81951000D01*
X204206100Y-81951000D02*
X205113665Y-81043435D01*
X205113665Y-81043435D02*
X205209000Y-81043435D01*
%TO.N,GND*%
X199010000Y-84920000D02*
X199470000Y-84920000D01*
X199470000Y-84920000D02*
X199620000Y-85070000D01*
X199895000Y-85070000D02*
X199945000Y-85020000D01*
X199620000Y-85070000D02*
X199895000Y-85070000D01*
%TD*%
%TA.AperFunction,Conductor*%
%TO.N,GND*%
G36*
X202679075Y-108867993D02*
G01*
X202744901Y-108982007D01*
X202837993Y-109075099D01*
X202952007Y-109140925D01*
X203015590Y-109157962D01*
X202526466Y-109647085D01*
X202526757Y-109650771D01*
X202512393Y-109719149D01*
X202463341Y-109768905D01*
X202403139Y-109784500D01*
X202069886Y-109784500D01*
X202002847Y-109764815D01*
X201957092Y-109712011D01*
X201947148Y-109642853D01*
X201949060Y-109632765D01*
X201949090Y-109632485D01*
X201949091Y-109632483D01*
X201955500Y-109572873D01*
X201955499Y-109375919D01*
X201975183Y-109308883D01*
X202027987Y-109263128D01*
X202097145Y-109253184D01*
X202160701Y-109282209D01*
X202170953Y-109293378D01*
X202172913Y-109293533D01*
X202662037Y-108804409D01*
X202679075Y-108867993D01*
G37*
%TD.AperFunction*%
%TA.AperFunction,Conductor*%
G36*
X204117085Y-109293532D02*
G01*
X204128566Y-109277732D01*
X204195550Y-109146271D01*
X204243525Y-109095475D01*
X204311346Y-109078680D01*
X204377481Y-109101218D01*
X204420932Y-109155933D01*
X204423966Y-109164247D01*
X204433443Y-109193416D01*
X204529950Y-109382820D01*
X204654889Y-109554786D01*
X204672922Y-109572819D01*
X204706407Y-109634142D01*
X204701423Y-109703834D01*
X204659551Y-109759767D01*
X204594087Y-109784184D01*
X204585241Y-109784500D01*
X203886861Y-109784500D01*
X203819822Y-109764815D01*
X203774067Y-109712011D01*
X203763243Y-109650774D01*
X203763533Y-109647085D01*
X203274410Y-109157962D01*
X203337993Y-109140925D01*
X203452007Y-109075099D01*
X203545099Y-108982007D01*
X203610925Y-108867993D01*
X203627962Y-108804409D01*
X204117085Y-109293532D01*
G37*
%TD.AperFunction*%
%TA.AperFunction,Conductor*%
G36*
X207345834Y-98695914D02*
G01*
X207401767Y-98737786D01*
X207426184Y-98803250D01*
X207426500Y-98812096D01*
X207426500Y-99462152D01*
X207406815Y-99529191D01*
X207354011Y-99574946D01*
X207326692Y-99583769D01*
X207193508Y-99610261D01*
X207193498Y-99610264D01*
X207047827Y-99670602D01*
X207047814Y-99670609D01*
X206916711Y-99758210D01*
X206916707Y-99758213D01*
X206805213Y-99869707D01*
X206805210Y-99869711D01*
X206717609Y-100000814D01*
X206717602Y-100000827D01*
X206657264Y-100146498D01*
X206657261Y-100146510D01*
X206626500Y-100301153D01*
X206626500Y-100458846D01*
X206657261Y-100613489D01*
X206657264Y-100613501D01*
X206717602Y-100759172D01*
X206717609Y-100759185D01*
X206805602Y-100890874D01*
X206826480Y-100957551D01*
X206826500Y-100959765D01*
X206826500Y-104220330D01*
X206826499Y-104220348D01*
X206826499Y-104386054D01*
X206826498Y-104386054D01*
X206867423Y-104538786D01*
X206867424Y-104538787D01*
X206885733Y-104570499D01*
X206946481Y-104675717D01*
X207065349Y-104794585D01*
X207065355Y-104794590D01*
X210701241Y-108430476D01*
X210734726Y-108491799D01*
X210731492Y-108556473D01*
X210717753Y-108598757D01*
X210684500Y-108808713D01*
X210684500Y-109021286D01*
X210711762Y-109193416D01*
X210717754Y-109231243D01*
X210767003Y-109382816D01*
X210783444Y-109433414D01*
X210870466Y-109604205D01*
X210883362Y-109672875D01*
X210857086Y-109737615D01*
X210799979Y-109777872D01*
X210759981Y-109784500D01*
X206784757Y-109784500D01*
X206717718Y-109764815D01*
X206671963Y-109712011D01*
X206662019Y-109642853D01*
X206691044Y-109579297D01*
X206697076Y-109572819D01*
X206715103Y-109554792D01*
X206715105Y-109554788D01*
X206715108Y-109554786D01*
X206840047Y-109382820D01*
X206840046Y-109382820D01*
X206840050Y-109382816D01*
X206936556Y-109193412D01*
X207002245Y-108991243D01*
X207035499Y-108781287D01*
X207035499Y-108568713D01*
X207002245Y-108358757D01*
X206936556Y-108156588D01*
X206840050Y-107967184D01*
X206840048Y-107967181D01*
X206840047Y-107967179D01*
X206715108Y-107795213D01*
X206564785Y-107644890D01*
X206392819Y-107519951D01*
X206203413Y-107423444D01*
X206203412Y-107423443D01*
X206203411Y-107423443D01*
X206001242Y-107357754D01*
X206001240Y-107357753D01*
X206001239Y-107357753D01*
X205839956Y-107332208D01*
X205791286Y-107324500D01*
X205578712Y-107324500D01*
X205550005Y-107329046D01*
X205368756Y-107357753D01*
X205326472Y-107371492D01*
X205256631Y-107373486D01*
X205200475Y-107341241D01*
X204932282Y-107073048D01*
X204898797Y-107011725D01*
X204903781Y-106942033D01*
X204907294Y-106934248D01*
X204933607Y-106870724D01*
X204969737Y-106783497D01*
X205000500Y-106628842D01*
X205000500Y-106471158D01*
X205000500Y-106471155D01*
X205000499Y-106471153D01*
X204969738Y-106316510D01*
X204969737Y-106316503D01*
X204949942Y-106268713D01*
X204909397Y-106170827D01*
X204909390Y-106170814D01*
X204821789Y-106039711D01*
X204821786Y-106039707D01*
X204710292Y-105928213D01*
X204710288Y-105928210D01*
X204579185Y-105840609D01*
X204579172Y-105840602D01*
X204433501Y-105780264D01*
X204433489Y-105780261D01*
X204278845Y-105749500D01*
X204278842Y-105749500D01*
X204121158Y-105749500D01*
X204121155Y-105749500D01*
X203966510Y-105780261D01*
X203966498Y-105780264D01*
X203820827Y-105840602D01*
X203820814Y-105840609D01*
X203689711Y-105928210D01*
X203689707Y-105928213D01*
X203578213Y-106039707D01*
X203578210Y-106039711D01*
X203490609Y-106170814D01*
X203490602Y-106170827D01*
X203430264Y-106316498D01*
X203430261Y-106316510D01*
X203399500Y-106471153D01*
X203399500Y-106628846D01*
X203430261Y-106783489D01*
X203430264Y-106783501D01*
X203490602Y-106929172D01*
X203490609Y-106929185D01*
X203578601Y-107060873D01*
X203599479Y-107127550D01*
X203599499Y-107129764D01*
X203599499Y-107269058D01*
X203635953Y-107405104D01*
X203641483Y-107425742D01*
X203639820Y-107495592D01*
X203600658Y-107553455D01*
X203536429Y-107580959D01*
X203483391Y-107575767D01*
X203414295Y-107553317D01*
X203235506Y-107525000D01*
X203054494Y-107525000D01*
X202875706Y-107553317D01*
X202703555Y-107609251D01*
X202703547Y-107609254D01*
X202542269Y-107691432D01*
X202526466Y-107702912D01*
X202526466Y-107702913D01*
X203015590Y-108192037D01*
X202952007Y-108209075D01*
X202837993Y-108274901D01*
X202744901Y-108367993D01*
X202679075Y-108482007D01*
X202662037Y-108545590D01*
X202172913Y-108056466D01*
X202166875Y-108056941D01*
X202124490Y-108089627D01*
X202054877Y-108095608D01*
X201993081Y-108063003D01*
X201958722Y-108002166D01*
X201955499Y-107974077D01*
X201955499Y-107777129D01*
X201955498Y-107777123D01*
X201954189Y-107764949D01*
X201950299Y-107728757D01*
X201949091Y-107717516D01*
X201898797Y-107582671D01*
X201898793Y-107582664D01*
X201812547Y-107467455D01*
X201812544Y-107467452D01*
X201697335Y-107381206D01*
X201697328Y-107381202D01*
X201562482Y-107330908D01*
X201562483Y-107330908D01*
X201502883Y-107324501D01*
X201502881Y-107324500D01*
X201502873Y-107324500D01*
X201502865Y-107324500D01*
X200155097Y-107324500D01*
X200088058Y-107304815D01*
X200067416Y-107288181D01*
X197737819Y-104958584D01*
X197704334Y-104897261D01*
X197701500Y-104870903D01*
X197701500Y-104174501D01*
X197704050Y-104165815D01*
X197702762Y-104156856D01*
X197713739Y-104132816D01*
X197721185Y-104107462D01*
X197728025Y-104101534D01*
X197731786Y-104093300D01*
X197754020Y-104079010D01*
X197773989Y-104061707D01*
X197784500Y-104059420D01*
X197790563Y-104055524D01*
X197825494Y-104050501D01*
X197825498Y-104050501D01*
X197879057Y-104050501D01*
X197879060Y-104050500D01*
X197886667Y-104050500D01*
X200573331Y-104050500D01*
X200573347Y-104050501D01*
X200580943Y-104050501D01*
X200739054Y-104050501D01*
X200739057Y-104050501D01*
X200891785Y-104009577D01*
X200941904Y-103980639D01*
X201028716Y-103930520D01*
X201140520Y-103818716D01*
X201140520Y-103818714D01*
X201150728Y-103808507D01*
X201150729Y-103808504D01*
X202740520Y-102218716D01*
X202819577Y-102081784D01*
X202860501Y-101929057D01*
X202860501Y-101770942D01*
X202860501Y-101763347D01*
X202860500Y-101763329D01*
X202860500Y-101369594D01*
X202880185Y-101302555D01*
X202896814Y-101281917D01*
X202951135Y-101227597D01*
X203032869Y-101089392D01*
X203077665Y-100935203D01*
X203080500Y-100899180D01*
X203080499Y-100500819D01*
X203077665Y-100464795D01*
X203038799Y-100331017D01*
X203038999Y-100261149D01*
X203076941Y-100202479D01*
X203140580Y-100173636D01*
X203209710Y-100183777D01*
X203226767Y-100193322D01*
X203229641Y-100195242D01*
X203250821Y-100209394D01*
X203250823Y-100209395D01*
X203250827Y-100209397D01*
X203396498Y-100269735D01*
X203396503Y-100269737D01*
X203551153Y-100300499D01*
X203551156Y-100300500D01*
X203551158Y-100300500D01*
X203708844Y-100300500D01*
X203708845Y-100300499D01*
X203863497Y-100269737D01*
X204009179Y-100209394D01*
X204030359Y-100195242D01*
X204140875Y-100121398D01*
X204207553Y-100100520D01*
X204209766Y-100100500D01*
X205503331Y-100100500D01*
X205503347Y-100100501D01*
X205510943Y-100100501D01*
X205669054Y-100100501D01*
X205669057Y-100100501D01*
X205821785Y-100059577D01*
X205885103Y-100023020D01*
X205958716Y-99980520D01*
X206070520Y-99868716D01*
X206070520Y-99868714D01*
X206080724Y-99858511D01*
X206080727Y-99858506D01*
X207080520Y-98858716D01*
X207080520Y-98858714D01*
X207090720Y-98848515D01*
X207090723Y-98848510D01*
X207214822Y-98724412D01*
X207276142Y-98690930D01*
X207345834Y-98695914D01*
G37*
%TD.AperFunction*%
%TA.AperFunction,Conductor*%
G36*
X193794075Y-104032993D02*
G01*
X193859901Y-104147007D01*
X193952993Y-104240099D01*
X194067007Y-104305925D01*
X194130590Y-104322962D01*
X193641466Y-104812085D01*
X193641466Y-104812086D01*
X193657267Y-104823566D01*
X193657275Y-104823571D01*
X193788729Y-104890551D01*
X193839525Y-104938526D01*
X193856320Y-105006347D01*
X193833782Y-105072482D01*
X193779067Y-105115933D01*
X193770761Y-105118964D01*
X193760716Y-105122227D01*
X193741583Y-105128444D01*
X193552179Y-105224951D01*
X193380213Y-105349890D01*
X193380209Y-105349894D01*
X193357181Y-105372923D01*
X193295858Y-105406408D01*
X193226166Y-105401424D01*
X193170233Y-105359552D01*
X193145816Y-105294088D01*
X193145500Y-105285242D01*
X193145500Y-104581467D01*
X193165185Y-104514428D01*
X193217989Y-104468673D01*
X193279230Y-104457849D01*
X193287914Y-104458532D01*
X193777037Y-103969409D01*
X193794075Y-104032993D01*
G37*
%TD.AperFunction*%
%TA.AperFunction,Conductor*%
G36*
X213007084Y-104453532D02*
G01*
X213010772Y-104453242D01*
X213079149Y-104467606D01*
X213128905Y-104516658D01*
X213144500Y-104576860D01*
X213144500Y-105275242D01*
X213124815Y-105342281D01*
X213072011Y-105388036D01*
X213002853Y-105397980D01*
X212939297Y-105368955D01*
X212932819Y-105362923D01*
X212914786Y-105344890D01*
X212742820Y-105219951D01*
X212553414Y-105123444D01*
X212553413Y-105123443D01*
X212553412Y-105123443D01*
X212524246Y-105113966D01*
X212466571Y-105074529D01*
X212439373Y-105010171D01*
X212451288Y-104941324D01*
X212498532Y-104889849D01*
X212506270Y-104885551D01*
X212637732Y-104818566D01*
X212653532Y-104807085D01*
X212164409Y-104317962D01*
X212227993Y-104300925D01*
X212342007Y-104235099D01*
X212435099Y-104142007D01*
X212500925Y-104027993D01*
X212517962Y-103964409D01*
X213007084Y-104453532D01*
G37*
%TD.AperFunction*%
%TA.AperFunction,Conductor*%
G36*
X195798834Y-100712915D02*
G01*
X195854768Y-100754786D01*
X195879184Y-100820251D01*
X195864332Y-100888524D01*
X195843181Y-100916778D01*
X195806730Y-100953227D01*
X195879461Y-103856797D01*
X195861461Y-103924308D01*
X195843181Y-103947583D01*
X195595119Y-104195644D01*
X195533796Y-104229129D01*
X195464104Y-104224145D01*
X195408171Y-104182273D01*
X195383754Y-104116809D01*
X195384965Y-104088564D01*
X195410000Y-103930504D01*
X195410000Y-103749493D01*
X195381682Y-103570706D01*
X195325748Y-103398555D01*
X195325747Y-103398552D01*
X195243571Y-103237275D01*
X195243566Y-103237267D01*
X195232085Y-103221466D01*
X194742962Y-103710590D01*
X194725925Y-103647007D01*
X194660099Y-103532993D01*
X194567007Y-103439901D01*
X194452993Y-103374075D01*
X194389409Y-103357037D01*
X194878533Y-102867913D01*
X194862727Y-102856429D01*
X194731269Y-102789447D01*
X194680474Y-102741473D01*
X194663679Y-102673651D01*
X194686217Y-102607517D01*
X194740932Y-102564066D01*
X194749216Y-102561043D01*
X194778412Y-102551557D01*
X194967816Y-102455051D01*
X195050803Y-102394758D01*
X195139786Y-102330109D01*
X195139788Y-102330106D01*
X195139792Y-102330104D01*
X195290104Y-102179792D01*
X195290106Y-102179788D01*
X195290109Y-102179786D01*
X195415048Y-102007820D01*
X195415047Y-102007820D01*
X195415051Y-102007816D01*
X195511557Y-101818412D01*
X195577246Y-101616243D01*
X195610500Y-101406287D01*
X195610500Y-101193713D01*
X195577246Y-100983757D01*
X195563506Y-100941473D01*
X195561512Y-100871635D01*
X195593754Y-100815480D01*
X195667822Y-100741412D01*
X195729143Y-100707930D01*
X195798834Y-100712915D01*
G37*
%TD.AperFunction*%
%TA.AperFunction,Conductor*%
G36*
X208832703Y-98942384D02*
G01*
X208839181Y-98948416D01*
X210701241Y-100810476D01*
X210734726Y-100871799D01*
X210731492Y-100936473D01*
X210717753Y-100978757D01*
X210684500Y-101188713D01*
X210684500Y-101401286D01*
X210714032Y-101587748D01*
X210717754Y-101611243D01*
X210769642Y-101770938D01*
X210783444Y-101813414D01*
X210879951Y-102002820D01*
X211004890Y-102174786D01*
X211155213Y-102325109D01*
X211327179Y-102450048D01*
X211327181Y-102450049D01*
X211327184Y-102450051D01*
X211516588Y-102546557D01*
X211545753Y-102556033D01*
X211603426Y-102595468D01*
X211630625Y-102659826D01*
X211618712Y-102728673D01*
X211571469Y-102780149D01*
X211563730Y-102784447D01*
X211432269Y-102851431D01*
X211416466Y-102862912D01*
X211416466Y-102862913D01*
X211905591Y-103352037D01*
X211842007Y-103369075D01*
X211727993Y-103434901D01*
X211634901Y-103527993D01*
X211569075Y-103642007D01*
X211552037Y-103705590D01*
X211062913Y-103216466D01*
X211062912Y-103216466D01*
X211051432Y-103232269D01*
X210969254Y-103393547D01*
X210969251Y-103393555D01*
X210913317Y-103565706D01*
X210885000Y-103744493D01*
X210885000Y-103925506D01*
X210910034Y-104083566D01*
X210901079Y-104152860D01*
X210856083Y-104206312D01*
X210789331Y-104226951D01*
X210722018Y-104208226D01*
X210699880Y-104190645D01*
X208663819Y-102154584D01*
X208630334Y-102093261D01*
X208627500Y-102066903D01*
X208627500Y-99036097D01*
X208647185Y-98969058D01*
X208699989Y-98923303D01*
X208769147Y-98913359D01*
X208832703Y-98942384D01*
G37*
%TD.AperFunction*%
%TA.AperFunction,Conductor*%
G36*
X193350703Y-102301045D02*
G01*
X193357181Y-102307077D01*
X193380213Y-102330109D01*
X193552179Y-102455048D01*
X193552181Y-102455049D01*
X193552184Y-102455051D01*
X193741588Y-102551557D01*
X193770753Y-102561033D01*
X193828426Y-102600468D01*
X193855625Y-102664826D01*
X193843712Y-102733673D01*
X193796469Y-102785149D01*
X193788730Y-102789447D01*
X193657269Y-102856431D01*
X193641466Y-102867912D01*
X193641466Y-102867913D01*
X194130591Y-103357037D01*
X194067007Y-103374075D01*
X193952993Y-103439901D01*
X193859901Y-103532993D01*
X193794075Y-103647007D01*
X193777037Y-103710590D01*
X193287912Y-103221465D01*
X193279228Y-103222149D01*
X193210851Y-103207784D01*
X193161094Y-103158733D01*
X193145500Y-103098531D01*
X193145500Y-102394758D01*
X193165185Y-102327719D01*
X193217989Y-102281964D01*
X193287147Y-102272020D01*
X193350703Y-102301045D01*
G37*
%TD.AperFunction*%
%TA.AperFunction,Conductor*%
G36*
X213063834Y-102278576D02*
G01*
X213119767Y-102320448D01*
X213144184Y-102385912D01*
X213144500Y-102394758D01*
X213144500Y-103093138D01*
X213124815Y-103160177D01*
X213072011Y-103205932D01*
X213010773Y-103216756D01*
X213007086Y-103216465D01*
X212517962Y-103705589D01*
X212500925Y-103642007D01*
X212435099Y-103527993D01*
X212342007Y-103434901D01*
X212227993Y-103369075D01*
X212164409Y-103352037D01*
X212653533Y-102862913D01*
X212637727Y-102851429D01*
X212506269Y-102784447D01*
X212455474Y-102736473D01*
X212438679Y-102668651D01*
X212461217Y-102602517D01*
X212515932Y-102559066D01*
X212524216Y-102556043D01*
X212553412Y-102546557D01*
X212742816Y-102450051D01*
X212818921Y-102394758D01*
X212914786Y-102325109D01*
X212914788Y-102325106D01*
X212914792Y-102325104D01*
X212932819Y-102307077D01*
X212994142Y-102273592D01*
X213063834Y-102278576D01*
G37*
%TD.AperFunction*%
%TA.AperFunction,Conductor*%
G36*
X201482323Y-101107185D02*
G01*
X201522015Y-101148378D01*
X201568865Y-101227597D01*
X201623182Y-101281914D01*
X201637888Y-101308845D01*
X201654477Y-101334659D01*
X201655368Y-101340858D01*
X201656666Y-101343235D01*
X201659500Y-101369594D01*
X201659500Y-101549902D01*
X201639815Y-101616941D01*
X201623181Y-101637583D01*
X201594181Y-101666583D01*
X201532858Y-101700068D01*
X201463166Y-101695084D01*
X201407233Y-101653212D01*
X201382816Y-101587748D01*
X201382500Y-101578902D01*
X201382500Y-101487500D01*
X201056999Y-101487500D01*
X201048313Y-101484949D01*
X201039352Y-101486238D01*
X201015311Y-101475259D01*
X200989960Y-101467815D01*
X200984032Y-101460974D01*
X200975796Y-101457213D01*
X200961506Y-101434978D01*
X200944205Y-101415011D01*
X200941917Y-101404496D01*
X200938022Y-101398435D01*
X200932999Y-101363504D01*
X200932999Y-101211498D01*
X200952684Y-101144461D01*
X201005488Y-101098706D01*
X201056999Y-101087500D01*
X201415284Y-101087500D01*
X201482323Y-101107185D01*
G37*
%TD.AperFunction*%
%TA.AperFunction,Conductor*%
G36*
X205761042Y-96950185D02*
G01*
X205806797Y-97002989D01*
X205816708Y-97036624D01*
X205820620Y-97063481D01*
X205875587Y-97175918D01*
X205964081Y-97264412D01*
X206076520Y-97319379D01*
X206076522Y-97319380D01*
X206109999Y-97324257D01*
X206110000Y-97324257D01*
X206110000Y-97154500D01*
X206112550Y-97145814D01*
X206111262Y-97136853D01*
X206122240Y-97112812D01*
X206129685Y-97087461D01*
X206136525Y-97081533D01*
X206140287Y-97073297D01*
X206162521Y-97059007D01*
X206182489Y-97041706D01*
X206193003Y-97039418D01*
X206199065Y-97035523D01*
X206234000Y-97030500D01*
X206286000Y-97030500D01*
X206353039Y-97050185D01*
X206398794Y-97102989D01*
X206410000Y-97154500D01*
X206410000Y-97339402D01*
X206390315Y-97406441D01*
X206373681Y-97427083D01*
X205697584Y-98103181D01*
X205636261Y-98136666D01*
X205609903Y-98139500D01*
X205355628Y-98139500D01*
X205288589Y-98119815D01*
X205242834Y-98067011D01*
X205232890Y-97997853D01*
X205256825Y-97940574D01*
X205323919Y-97852098D01*
X205323919Y-97852097D01*
X205379386Y-97711443D01*
X205390000Y-97623053D01*
X205390000Y-97480000D01*
X204514000Y-97480000D01*
X204446961Y-97460315D01*
X204401206Y-97407511D01*
X204390000Y-97356000D01*
X204390000Y-97104000D01*
X204409685Y-97036961D01*
X204462489Y-96991206D01*
X204514000Y-96980000D01*
X205390000Y-96980000D01*
X205403181Y-96966819D01*
X205430108Y-96952115D01*
X205455927Y-96935523D01*
X205462127Y-96934631D01*
X205464504Y-96933334D01*
X205490862Y-96930500D01*
X205694003Y-96930500D01*
X205761042Y-96950185D01*
G37*
%TD.AperFunction*%
%TA.AperFunction,Conductor*%
G36*
X202308334Y-94093415D02*
G01*
X202352681Y-94121916D01*
X202554181Y-94323416D01*
X202568884Y-94350343D01*
X202585477Y-94376162D01*
X202586368Y-94382362D01*
X202587666Y-94384739D01*
X202590500Y-94411097D01*
X202590500Y-94506000D01*
X202570815Y-94573039D01*
X202518011Y-94618794D01*
X202466500Y-94630000D01*
X202440000Y-94630000D01*
X202440000Y-95406000D01*
X202420315Y-95473039D01*
X202367511Y-95518794D01*
X202316000Y-95530000D01*
X202064000Y-95530000D01*
X201996961Y-95510315D01*
X201951206Y-95457511D01*
X201940000Y-95406000D01*
X201940000Y-94630000D01*
X201928112Y-94618112D01*
X201901558Y-94610315D01*
X201855803Y-94557511D01*
X201845859Y-94488353D01*
X201874884Y-94424797D01*
X201880916Y-94418319D01*
X201975819Y-94323416D01*
X202177320Y-94121914D01*
X202238642Y-94088431D01*
X202308334Y-94093415D01*
G37*
%TD.AperFunction*%
%TA.AperFunction,Conductor*%
G36*
X193794075Y-91332993D02*
G01*
X193859901Y-91447007D01*
X193952993Y-91540099D01*
X194067007Y-91605925D01*
X194130590Y-91622962D01*
X193641466Y-92112085D01*
X193641466Y-92112086D01*
X193657267Y-92123566D01*
X193657275Y-92123571D01*
X193788729Y-92190551D01*
X193839525Y-92238526D01*
X193856320Y-92306347D01*
X193833782Y-92372482D01*
X193779067Y-92415933D01*
X193770761Y-92418964D01*
X193760716Y-92422227D01*
X193741583Y-92428444D01*
X193552179Y-92524951D01*
X193380213Y-92649890D01*
X193380209Y-92649894D01*
X193357181Y-92672923D01*
X193295858Y-92706408D01*
X193226166Y-92701424D01*
X193170233Y-92659552D01*
X193145816Y-92594088D01*
X193145500Y-92585242D01*
X193145500Y-91881467D01*
X193165185Y-91814428D01*
X193217989Y-91768673D01*
X193279230Y-91757849D01*
X193287914Y-91758532D01*
X193777037Y-91269409D01*
X193794075Y-91332993D01*
G37*
%TD.AperFunction*%
%TA.AperFunction,Conductor*%
G36*
X213007084Y-91753532D02*
G01*
X213010772Y-91753242D01*
X213079149Y-91767606D01*
X213128905Y-91816658D01*
X213144500Y-91876860D01*
X213144500Y-92575242D01*
X213124815Y-92642281D01*
X213072011Y-92688036D01*
X213002853Y-92697980D01*
X212939297Y-92668955D01*
X212932819Y-92662923D01*
X212914786Y-92644890D01*
X212742820Y-92519951D01*
X212553414Y-92423444D01*
X212553413Y-92423443D01*
X212553412Y-92423443D01*
X212524246Y-92413966D01*
X212466571Y-92374529D01*
X212439373Y-92310171D01*
X212451288Y-92241324D01*
X212498532Y-92189849D01*
X212506270Y-92185551D01*
X212637732Y-92118566D01*
X212653532Y-92107085D01*
X212164409Y-91617962D01*
X212227993Y-91600925D01*
X212342007Y-91535099D01*
X212435099Y-91442007D01*
X212500925Y-91327993D01*
X212517962Y-91264409D01*
X213007084Y-91753532D01*
G37*
%TD.AperFunction*%
%TA.AperFunction,Conductor*%
G36*
X195536046Y-90756498D02*
G01*
X195566865Y-90763203D01*
X195570837Y-90766176D01*
X195572981Y-90766773D01*
X195595119Y-90784354D01*
X195760139Y-90949374D01*
X195760149Y-90949385D01*
X195764479Y-90953715D01*
X195764480Y-90953716D01*
X195876284Y-91065520D01*
X195876286Y-91065521D01*
X195876290Y-91065524D01*
X195938876Y-91101658D01*
X195938882Y-91101660D01*
X195945399Y-91105423D01*
X196013215Y-91144577D01*
X196084694Y-91163730D01*
X196092726Y-91167149D01*
X196113237Y-91184010D01*
X196135912Y-91197831D01*
X196139809Y-91205853D01*
X196146700Y-91211518D01*
X196154839Y-91236794D01*
X196166442Y-91260678D01*
X196165383Y-91269534D01*
X196168117Y-91278024D01*
X196161300Y-91303685D01*
X196158148Y-91330054D01*
X196151807Y-91339422D01*
X196150179Y-91345552D01*
X196143581Y-91351575D01*
X196131840Y-91368923D01*
X195036819Y-92463944D01*
X194975496Y-92497429D01*
X194905804Y-92492445D01*
X194892843Y-92486748D01*
X194778414Y-92428444D01*
X194778413Y-92428443D01*
X194778412Y-92428443D01*
X194749246Y-92418966D01*
X194691571Y-92379529D01*
X194664373Y-92315171D01*
X194676288Y-92246324D01*
X194723532Y-92194849D01*
X194731270Y-92190551D01*
X194862732Y-92123566D01*
X194878532Y-92112085D01*
X194878533Y-92112085D01*
X194389410Y-91622962D01*
X194452993Y-91605925D01*
X194567007Y-91540099D01*
X194660099Y-91447007D01*
X194725925Y-91332993D01*
X194742962Y-91269409D01*
X195232085Y-91758532D01*
X195243568Y-91742730D01*
X195325745Y-91581452D01*
X195325748Y-91581444D01*
X195381682Y-91409293D01*
X195410000Y-91230506D01*
X195410000Y-91049494D01*
X195384965Y-90891433D01*
X195389006Y-90860157D01*
X195391256Y-90828701D01*
X195393449Y-90825770D01*
X195393919Y-90822140D01*
X195414230Y-90798011D01*
X195433128Y-90772768D01*
X195436557Y-90771488D01*
X195438915Y-90768688D01*
X195469042Y-90759372D01*
X195498592Y-90748351D01*
X195502169Y-90749129D01*
X195505667Y-90748048D01*
X195536046Y-90756498D01*
G37*
%TD.AperFunction*%
%TA.AperFunction,Conductor*%
G36*
X211165943Y-89985501D02*
G01*
X211296288Y-89985501D01*
X211363327Y-90005186D01*
X211409082Y-90057990D01*
X211409086Y-90058020D01*
X211419905Y-90119231D01*
X211416466Y-90162913D01*
X211905591Y-90652037D01*
X211842007Y-90669075D01*
X211727993Y-90734901D01*
X211634901Y-90827993D01*
X211569075Y-90942007D01*
X211552037Y-91005590D01*
X211062913Y-90516466D01*
X211062912Y-90516466D01*
X211051432Y-90532269D01*
X210969254Y-90693547D01*
X210969251Y-90693555D01*
X210913317Y-90865706D01*
X210885000Y-91044493D01*
X210885000Y-91225506D01*
X210910034Y-91383566D01*
X210901079Y-91452860D01*
X210856083Y-91506312D01*
X210789331Y-91526951D01*
X210722018Y-91508226D01*
X210699880Y-91490645D01*
X209592525Y-90383290D01*
X209490521Y-90281286D01*
X209490520Y-90281284D01*
X209420917Y-90211681D01*
X209387432Y-90150358D01*
X209392416Y-90080666D01*
X209434288Y-90024733D01*
X209499752Y-90000316D01*
X209508598Y-90000000D01*
X209573785Y-90000000D01*
X209588449Y-89990556D01*
X209623498Y-89985500D01*
X211158332Y-89985500D01*
X211165939Y-89985500D01*
X211165943Y-89985501D01*
G37*
%TD.AperFunction*%
%TA.AperFunction,Conductor*%
G36*
X193350703Y-89601045D02*
G01*
X193357181Y-89607077D01*
X193380213Y-89630109D01*
X193552179Y-89755048D01*
X193552181Y-89755049D01*
X193552184Y-89755051D01*
X193741588Y-89851557D01*
X193770753Y-89861033D01*
X193828426Y-89900468D01*
X193855625Y-89964826D01*
X193843712Y-90033673D01*
X193796469Y-90085149D01*
X193788730Y-90089447D01*
X193657269Y-90156431D01*
X193641466Y-90167912D01*
X193641466Y-90167913D01*
X194130590Y-90657037D01*
X194067007Y-90674075D01*
X193952993Y-90739901D01*
X193859901Y-90832993D01*
X193794075Y-90947007D01*
X193777037Y-91010590D01*
X193287912Y-90521465D01*
X193279228Y-90522149D01*
X193210851Y-90507784D01*
X193161094Y-90458733D01*
X193145500Y-90398531D01*
X193145500Y-89694758D01*
X193165185Y-89627719D01*
X193217989Y-89581964D01*
X193287147Y-89572020D01*
X193350703Y-89601045D01*
G37*
%TD.AperFunction*%
%TA.AperFunction,Conductor*%
G36*
X213063834Y-89578576D02*
G01*
X213119767Y-89620448D01*
X213144184Y-89685912D01*
X213144500Y-89694758D01*
X213144500Y-90393138D01*
X213124815Y-90460177D01*
X213072011Y-90505932D01*
X213010773Y-90516756D01*
X213007086Y-90516465D01*
X212517962Y-91005589D01*
X212500925Y-90942007D01*
X212435099Y-90827993D01*
X212342007Y-90734901D01*
X212227993Y-90669075D01*
X212164409Y-90652037D01*
X212653533Y-90162913D01*
X212637727Y-90151429D01*
X212506269Y-90084447D01*
X212455474Y-90036473D01*
X212438679Y-89968651D01*
X212461217Y-89902517D01*
X212515932Y-89859066D01*
X212524216Y-89856043D01*
X212553412Y-89846557D01*
X212742816Y-89750051D01*
X212764789Y-89734086D01*
X212914786Y-89625109D01*
X212914788Y-89625106D01*
X212914792Y-89625104D01*
X212932819Y-89607077D01*
X212994142Y-89573592D01*
X213063834Y-89578576D01*
G37*
%TD.AperFunction*%
%TA.AperFunction,Conductor*%
G36*
X204363434Y-86274876D02*
G01*
X204363436Y-86274877D01*
X204435821Y-86283569D01*
X204451897Y-86285500D01*
X204451898Y-86285500D01*
X204638103Y-86285500D01*
X204654178Y-86283569D01*
X204726564Y-86274877D01*
X204726565Y-86274876D01*
X204730215Y-86274438D01*
X204759785Y-86274438D01*
X204763433Y-86274876D01*
X204763436Y-86274877D01*
X204851898Y-86285500D01*
X204885550Y-86285500D01*
X204886147Y-86285506D01*
X204919037Y-86295523D01*
X204951941Y-86305185D01*
X204952658Y-86305763D01*
X204952986Y-86305863D01*
X204953427Y-86306382D01*
X204972583Y-86321819D01*
X205043180Y-86392416D01*
X205076665Y-86453739D01*
X205079499Y-86480097D01*
X205079499Y-86641272D01*
X205079500Y-86641285D01*
X205079500Y-89333330D01*
X205079499Y-89333348D01*
X205079499Y-89499054D01*
X205079498Y-89499054D01*
X205080780Y-89503839D01*
X205118633Y-89645108D01*
X205116971Y-89714956D01*
X205077809Y-89772819D01*
X205046312Y-89791761D01*
X204962236Y-89826586D01*
X204962226Y-89826591D01*
X204831123Y-89914192D01*
X204831119Y-89914195D01*
X204719629Y-90025686D01*
X204719626Y-90025689D01*
X204688935Y-90071620D01*
X204635322Y-90116424D01*
X204565996Y-90125130D01*
X204538387Y-90117290D01*
X204533501Y-90115266D01*
X204533488Y-90115262D01*
X204378845Y-90084502D01*
X204378842Y-90084502D01*
X204221158Y-90084502D01*
X204221155Y-90084502D01*
X204066510Y-90115263D01*
X204066498Y-90115266D01*
X203920828Y-90175604D01*
X203920814Y-90175612D01*
X203897043Y-90191495D01*
X203830365Y-90212371D01*
X203780703Y-90202952D01*
X203653501Y-90150264D01*
X203653489Y-90150261D01*
X203498845Y-90119500D01*
X203498842Y-90119500D01*
X203341158Y-90119500D01*
X203341155Y-90119500D01*
X203186510Y-90150261D01*
X203186498Y-90150264D01*
X203040827Y-90210602D01*
X203040814Y-90210609D01*
X202909711Y-90298210D01*
X202909707Y-90298213D01*
X202798213Y-90409707D01*
X202798210Y-90409711D01*
X202710609Y-90540814D01*
X202710602Y-90540827D01*
X202650264Y-90686498D01*
X202650261Y-90686508D01*
X202633715Y-90769692D01*
X202601330Y-90831603D01*
X202540614Y-90866177D01*
X202512098Y-90869500D01*
X201373167Y-90869500D01*
X201343726Y-90860855D01*
X201313740Y-90854332D01*
X201308724Y-90850577D01*
X201306128Y-90849815D01*
X201285486Y-90833181D01*
X201220779Y-90768474D01*
X201187294Y-90707151D01*
X201184460Y-90680793D01*
X201184460Y-90090137D01*
X201204145Y-90023098D01*
X201220774Y-90002459D01*
X201318506Y-89904727D01*
X201318510Y-89904725D01*
X201328714Y-89894520D01*
X201328716Y-89894520D01*
X201440520Y-89782716D01*
X201440523Y-89782710D01*
X201445472Y-89776262D01*
X201446033Y-89776692D01*
X201457527Y-89761706D01*
X201718470Y-89500766D01*
X201797527Y-89363834D01*
X201838451Y-89211107D01*
X201838451Y-89052992D01*
X201838451Y-89045397D01*
X201838450Y-89045379D01*
X201838450Y-88301119D01*
X201833738Y-88283536D01*
X201833737Y-88283531D01*
X201818398Y-88226284D01*
X201797527Y-88148392D01*
X201797523Y-88148385D01*
X201718474Y-88011466D01*
X201718471Y-88011462D01*
X201718470Y-88011460D01*
X201606666Y-87899656D01*
X201606665Y-87899655D01*
X201602335Y-87895325D01*
X201602324Y-87895315D01*
X201401029Y-87694020D01*
X201367544Y-87632697D01*
X201372528Y-87563005D01*
X201414400Y-87507072D01*
X201435648Y-87494266D01*
X201445781Y-87489468D01*
X201482695Y-87479577D01*
X201551332Y-87439949D01*
X201619626Y-87400520D01*
X201731430Y-87288716D01*
X201731431Y-87288714D01*
X201822328Y-87197818D01*
X201883652Y-87164334D01*
X201910009Y-87161500D01*
X202809431Y-87161500D01*
X202809447Y-87161501D01*
X202817043Y-87161501D01*
X202975154Y-87161501D01*
X202975157Y-87161501D01*
X203127885Y-87120577D01*
X203180665Y-87090104D01*
X203264816Y-87041520D01*
X203376620Y-86929716D01*
X203376620Y-86929714D01*
X203386824Y-86919511D01*
X203386828Y-86919506D01*
X203703506Y-86602828D01*
X203703511Y-86602824D01*
X203713714Y-86592620D01*
X203713716Y-86592620D01*
X203825520Y-86480816D01*
X203904577Y-86343884D01*
X203904577Y-86343881D01*
X203904732Y-86343614D01*
X203955299Y-86295398D01*
X204023906Y-86282174D01*
X204026820Y-86282488D01*
X204051898Y-86285500D01*
X204051901Y-86285500D01*
X204238103Y-86285500D01*
X204254178Y-86283569D01*
X204326564Y-86274877D01*
X204326565Y-86274876D01*
X204330215Y-86274438D01*
X204359785Y-86274438D01*
X204363434Y-86274876D01*
G37*
%TD.AperFunction*%
%TA.AperFunction,Conductor*%
G36*
X196216703Y-88299284D02*
G01*
X196223181Y-88305316D01*
X197271578Y-89353713D01*
X197271580Y-89353716D01*
X197290686Y-89372822D01*
X197307587Y-89403778D01*
X197324167Y-89434142D01*
X197324166Y-89434144D01*
X197324168Y-89434147D01*
X197322074Y-89463408D01*
X197319183Y-89503834D01*
X197319181Y-89503836D01*
X197319181Y-89503839D01*
X197304611Y-89523300D01*
X197277311Y-89559767D01*
X197277308Y-89559767D01*
X197277307Y-89559770D01*
X197250401Y-89569804D01*
X197211847Y-89584184D01*
X197211843Y-89584183D01*
X197211842Y-89584184D01*
X197203001Y-89584500D01*
X196712198Y-89584500D01*
X196645159Y-89564815D01*
X196624517Y-89548181D01*
X196047819Y-88971483D01*
X196014334Y-88910160D01*
X196011500Y-88883802D01*
X196011500Y-88392997D01*
X196031185Y-88325958D01*
X196083989Y-88280203D01*
X196153147Y-88270259D01*
X196216703Y-88299284D01*
G37*
%TD.AperFunction*%
%TA.AperFunction,Conductor*%
G36*
X210770463Y-62456185D02*
G01*
X210816218Y-62508989D01*
X210826162Y-62578147D01*
X210813909Y-62616795D01*
X210783444Y-62676585D01*
X210717753Y-62878760D01*
X210684500Y-63088713D01*
X210684500Y-63301286D01*
X210717754Y-63511244D01*
X210717754Y-63511247D01*
X210731491Y-63553523D01*
X210733486Y-63623364D01*
X210701241Y-63679522D01*
X208499286Y-65881478D01*
X208387481Y-65993282D01*
X208387475Y-65993290D01*
X208352148Y-66054480D01*
X208352148Y-66054482D01*
X208308423Y-66130214D01*
X208296706Y-66173944D01*
X208267499Y-66282943D01*
X208267499Y-66282945D01*
X208267499Y-66451046D01*
X208267500Y-66451059D01*
X208267500Y-84380798D01*
X208247815Y-84447837D01*
X208195011Y-84493592D01*
X208125853Y-84503536D01*
X208062297Y-84474511D01*
X208032100Y-84435259D01*
X208014413Y-84399082D01*
X208014413Y-84399081D01*
X207925918Y-84310586D01*
X207813479Y-84255618D01*
X207780000Y-84250740D01*
X207780000Y-84420499D01*
X207777449Y-84429184D01*
X207778738Y-84438146D01*
X207767759Y-84462186D01*
X207760315Y-84487538D01*
X207753474Y-84493465D01*
X207749713Y-84501702D01*
X207727478Y-84515991D01*
X207707511Y-84533293D01*
X207696996Y-84535580D01*
X207690935Y-84539476D01*
X207656000Y-84544499D01*
X207604000Y-84544499D01*
X207536961Y-84524814D01*
X207491206Y-84472010D01*
X207480000Y-84420499D01*
X207480000Y-84198310D01*
X207499685Y-84131271D01*
X207511949Y-84116051D01*
X207511949Y-84068063D01*
X207482094Y-83981097D01*
X207478945Y-83911298D01*
X207496273Y-83871945D01*
X207518659Y-83838444D01*
X207579002Y-83692762D01*
X207609765Y-83538107D01*
X207609765Y-83380423D01*
X207609765Y-83380420D01*
X207609764Y-83380418D01*
X207592592Y-83294091D01*
X207579002Y-83225768D01*
X207579000Y-83225763D01*
X207518662Y-83080092D01*
X207518655Y-83080079D01*
X207431054Y-82948976D01*
X207431051Y-82948972D01*
X207319557Y-82837478D01*
X207319553Y-82837475D01*
X207188450Y-82749874D01*
X207188437Y-82749867D01*
X207053581Y-82694009D01*
X206999177Y-82650168D01*
X206977112Y-82583874D01*
X206979416Y-82555256D01*
X207010280Y-82400094D01*
X207010280Y-82242405D01*
X207010279Y-82242403D01*
X206988818Y-82134514D01*
X206979517Y-82087753D01*
X206945285Y-82005109D01*
X206919177Y-81942077D01*
X206919170Y-81942064D01*
X206831569Y-81810961D01*
X206831566Y-81810957D01*
X206810757Y-81790148D01*
X206777272Y-81728825D01*
X206778662Y-81670376D01*
X206810501Y-81551558D01*
X206810501Y-81393443D01*
X206810501Y-81385848D01*
X206810500Y-81385830D01*
X206810500Y-72072426D01*
X206830185Y-72005387D01*
X206882989Y-71959632D01*
X206887043Y-71957867D01*
X206913778Y-71946792D01*
X206944560Y-71934040D01*
X207082214Y-71842057D01*
X207199279Y-71724987D01*
X207291257Y-71587329D01*
X207354613Y-71434373D01*
X207386914Y-71271997D01*
X207386914Y-71268265D01*
X207386915Y-71268262D01*
X207386915Y-71162774D01*
X207386916Y-71116304D01*
X207386915Y-71116299D01*
X207386915Y-70990148D01*
X207386915Y-70986621D01*
X207386896Y-70986443D01*
X207386897Y-70986438D01*
X207354602Y-70824060D01*
X207291251Y-70671101D01*
X207199276Y-70533441D01*
X207199274Y-70533439D01*
X207199271Y-70533435D01*
X207082215Y-70416369D01*
X207082209Y-70416365D01*
X206944563Y-70324383D01*
X206944561Y-70324382D01*
X206887041Y-70300553D01*
X206832640Y-70256709D01*
X206810579Y-70190414D01*
X206810500Y-70185995D01*
X206810500Y-69153446D01*
X206810500Y-69153444D01*
X206769577Y-69000717D01*
X206759759Y-68983712D01*
X206690524Y-68863791D01*
X206690521Y-68863787D01*
X206690520Y-68863785D01*
X206578716Y-68751981D01*
X206578715Y-68751980D01*
X206574385Y-68747650D01*
X206574374Y-68747640D01*
X206428306Y-68601572D01*
X206394821Y-68540249D01*
X206399805Y-68470557D01*
X206441677Y-68414624D01*
X206452866Y-68407159D01*
X206547598Y-68351135D01*
X206618686Y-68280046D01*
X206680006Y-68246562D01*
X206747321Y-68250686D01*
X206790000Y-68265620D01*
X207290000Y-68265620D01*
X207380557Y-68233934D01*
X207486065Y-68156065D01*
X207563933Y-68050559D01*
X207563934Y-68050557D01*
X207607244Y-67926787D01*
X207607244Y-67926785D01*
X207608818Y-67910000D01*
X207290000Y-67910000D01*
X207290000Y-68265620D01*
X206790000Y-68265620D01*
X206790000Y-67920408D01*
X206790004Y-67919404D01*
X206790039Y-67915034D01*
X206790500Y-67909181D01*
X206790499Y-67410820D01*
X206790434Y-67410000D01*
X207290000Y-67410000D01*
X207608818Y-67410000D01*
X207608818Y-67409999D01*
X207607244Y-67393214D01*
X207607244Y-67393212D01*
X207563934Y-67269442D01*
X207563933Y-67269440D01*
X207486065Y-67163934D01*
X207380559Y-67086066D01*
X207380557Y-67086065D01*
X207290000Y-67054378D01*
X207290000Y-67410000D01*
X206790434Y-67410000D01*
X206790382Y-67409332D01*
X206790000Y-67399607D01*
X206790000Y-67054377D01*
X206782715Y-67049208D01*
X206739431Y-66994361D01*
X206732671Y-66924819D01*
X206764582Y-66862662D01*
X206804386Y-66834644D01*
X206867473Y-66806789D01*
X206867479Y-66806785D01*
X206946785Y-66727479D01*
X206946788Y-66727474D01*
X206992089Y-66624877D01*
X206992089Y-66624875D01*
X206994999Y-66599794D01*
X206994999Y-66321812D01*
X207014683Y-66254773D01*
X207067487Y-66209018D01*
X207136646Y-66199074D01*
X207166451Y-66207251D01*
X207214999Y-66227360D01*
X207215000Y-66227360D01*
X207215000Y-65631988D01*
X207224940Y-65649205D01*
X207280795Y-65705060D01*
X207349204Y-65744556D01*
X207425504Y-65765000D01*
X207504496Y-65765000D01*
X207580796Y-65744556D01*
X207649205Y-65705060D01*
X207705060Y-65649205D01*
X207715000Y-65631988D01*
X207715000Y-66227360D01*
X207843934Y-66173954D01*
X207843952Y-66173944D01*
X207974965Y-66086404D01*
X207974973Y-66086398D01*
X208086398Y-65974973D01*
X208086401Y-65974969D01*
X208173947Y-65843948D01*
X208173952Y-65843939D01*
X208234256Y-65698351D01*
X208234258Y-65698343D01*
X208264999Y-65543797D01*
X208265000Y-65543794D01*
X208265000Y-65165000D01*
X207765000Y-65165000D01*
X207765000Y-64665000D01*
X208265000Y-64665000D01*
X208265000Y-64286206D01*
X208264999Y-64286202D01*
X208234258Y-64131656D01*
X208234256Y-64131648D01*
X208173952Y-63986060D01*
X208173947Y-63986051D01*
X208086401Y-63855030D01*
X208086398Y-63855026D01*
X207974973Y-63743601D01*
X207974969Y-63743598D01*
X207843948Y-63656052D01*
X207843938Y-63656047D01*
X207715000Y-63602639D01*
X207715000Y-64198011D01*
X207705060Y-64180795D01*
X207649205Y-64124940D01*
X207580796Y-64085444D01*
X207504496Y-64065000D01*
X207425504Y-64065000D01*
X207349204Y-64085444D01*
X207280795Y-64124940D01*
X207224940Y-64180795D01*
X207215000Y-64198011D01*
X207215000Y-63602639D01*
X207214999Y-63602639D01*
X207086061Y-63656047D01*
X207086051Y-63656052D01*
X206955030Y-63743598D01*
X206955026Y-63743601D01*
X206843601Y-63855026D01*
X206843598Y-63855030D01*
X206756052Y-63986051D01*
X206756049Y-63986057D01*
X206732446Y-64043040D01*
X206688604Y-64097443D01*
X206622310Y-64119507D01*
X206554611Y-64102227D01*
X206510498Y-64057587D01*
X206495515Y-64031635D01*
X206476234Y-64012354D01*
X206442749Y-63951031D01*
X206447733Y-63881339D01*
X206476234Y-63836992D01*
X206796984Y-63516243D01*
X207840409Y-62472819D01*
X207901732Y-62439334D01*
X207928090Y-62436500D01*
X210703424Y-62436500D01*
X210770463Y-62456185D01*
G37*
%TD.AperFunction*%
%TA.AperFunction,Conductor*%
G36*
X203611523Y-75878054D02*
G01*
X203626816Y-75891051D01*
X204771181Y-77035416D01*
X204804666Y-77096739D01*
X204807500Y-77123097D01*
X204807500Y-78010694D01*
X204787815Y-78077733D01*
X204735011Y-78123488D01*
X204719506Y-78129351D01*
X204716507Y-78130260D01*
X204570827Y-78190602D01*
X204570814Y-78190609D01*
X204439711Y-78278210D01*
X204439707Y-78278213D01*
X204328213Y-78389707D01*
X204328210Y-78389711D01*
X204240609Y-78520814D01*
X204240602Y-78520827D01*
X204180264Y-78666498D01*
X204180261Y-78666510D01*
X204149500Y-78821153D01*
X204149500Y-78978846D01*
X204180261Y-79133489D01*
X204180264Y-79133501D01*
X204240602Y-79279172D01*
X204240612Y-79279190D01*
X204304623Y-79374990D01*
X204325501Y-79441667D01*
X204307016Y-79509047D01*
X204289202Y-79531561D01*
X204081286Y-79739478D01*
X203969481Y-79851282D01*
X203969479Y-79851284D01*
X203944767Y-79894088D01*
X203930107Y-79919481D01*
X203912550Y-79949890D01*
X203890423Y-79988214D01*
X203885548Y-80006408D01*
X203849499Y-80140943D01*
X203849499Y-80140945D01*
X203849499Y-80309046D01*
X203849500Y-80309059D01*
X203849500Y-80334002D01*
X203829815Y-80401041D01*
X203777011Y-80446796D01*
X203743382Y-80456706D01*
X203735923Y-80457793D01*
X203718104Y-80455265D01*
X203707853Y-80456740D01*
X203698553Y-80452493D01*
X203666745Y-80447982D01*
X203613854Y-80402328D01*
X203606640Y-80389549D01*
X203584411Y-80344080D01*
X203579747Y-80337547D01*
X203556810Y-80271550D01*
X203560886Y-80233402D01*
X203590501Y-80122881D01*
X203590501Y-79964767D01*
X203590501Y-79957172D01*
X203590500Y-79957154D01*
X203590500Y-79330888D01*
X203590500Y-79330886D01*
X203549577Y-79178159D01*
X203512782Y-79114428D01*
X203470524Y-79041233D01*
X203470521Y-79041229D01*
X203470520Y-79041227D01*
X203358716Y-78929423D01*
X203358715Y-78929422D01*
X203354385Y-78925092D01*
X203354374Y-78925082D01*
X203088841Y-78659549D01*
X203055356Y-78598226D01*
X203058452Y-78533981D01*
X203062503Y-78521356D01*
X203079577Y-78491784D01*
X203117187Y-78351423D01*
X203120500Y-78339058D01*
X203120500Y-78339050D01*
X203121560Y-78331004D01*
X203123512Y-78331260D01*
X203140185Y-78274480D01*
X203156814Y-78253842D01*
X203275472Y-78135185D01*
X203363478Y-77989606D01*
X203414086Y-77827196D01*
X203420500Y-77756616D01*
X203420500Y-76043384D01*
X203415644Y-75989952D01*
X203429180Y-75921409D01*
X203477626Y-75871063D01*
X203545601Y-75854901D01*
X203611523Y-75878054D01*
G37*
%TD.AperFunction*%
%TA.AperFunction,Conductor*%
G36*
X211569075Y-78627993D02*
G01*
X211634901Y-78742007D01*
X211727993Y-78835099D01*
X211842007Y-78900925D01*
X211905590Y-78917962D01*
X211416466Y-79407085D01*
X211416466Y-79407086D01*
X211432267Y-79418566D01*
X211432275Y-79418571D01*
X211563729Y-79485551D01*
X211614525Y-79533526D01*
X211631320Y-79601347D01*
X211608782Y-79667482D01*
X211554067Y-79710933D01*
X211545761Y-79713964D01*
X211535716Y-79717227D01*
X211516583Y-79723444D01*
X211327179Y-79819951D01*
X211155213Y-79944890D01*
X211004894Y-80095209D01*
X211004890Y-80095214D01*
X210902818Y-80235706D01*
X210847489Y-80278372D01*
X210777875Y-80284351D01*
X210716080Y-80251746D01*
X210681723Y-80190907D01*
X210678500Y-80162821D01*
X210678500Y-78764505D01*
X210698185Y-78697466D01*
X210750989Y-78651711D01*
X210820147Y-78641767D01*
X210883703Y-78670792D01*
X210920431Y-78726187D01*
X210969251Y-78876444D01*
X210969252Y-78876447D01*
X211051431Y-79037730D01*
X211062913Y-79053532D01*
X211062913Y-79053533D01*
X211552037Y-78564408D01*
X211569075Y-78627993D01*
G37*
%TD.AperFunction*%
%TA.AperFunction,Conductor*%
G36*
X193794075Y-78632993D02*
G01*
X193859901Y-78747007D01*
X193952993Y-78840099D01*
X194067007Y-78905925D01*
X194130590Y-78922962D01*
X193641466Y-79412085D01*
X193641466Y-79412086D01*
X193657267Y-79423566D01*
X193657275Y-79423571D01*
X193788729Y-79490551D01*
X193839525Y-79538526D01*
X193856320Y-79606347D01*
X193833782Y-79672482D01*
X193779067Y-79715933D01*
X193770761Y-79718964D01*
X193760716Y-79722227D01*
X193741583Y-79728444D01*
X193552179Y-79824951D01*
X193380213Y-79949890D01*
X193380209Y-79949894D01*
X193357181Y-79972923D01*
X193295858Y-80006408D01*
X193226166Y-80001424D01*
X193170233Y-79959552D01*
X193145816Y-79894088D01*
X193145500Y-79885242D01*
X193145500Y-79181467D01*
X193165185Y-79114428D01*
X193217989Y-79068673D01*
X193279230Y-79057849D01*
X193287914Y-79058532D01*
X193777037Y-78569409D01*
X193794075Y-78632993D01*
G37*
%TD.AperFunction*%
%TA.AperFunction,Conductor*%
G36*
X213007084Y-79053532D02*
G01*
X213010772Y-79053242D01*
X213079149Y-79067606D01*
X213128905Y-79116658D01*
X213144500Y-79176860D01*
X213144500Y-79875242D01*
X213124815Y-79942281D01*
X213072011Y-79988036D01*
X213002853Y-79997980D01*
X212939297Y-79968955D01*
X212932819Y-79962923D01*
X212914786Y-79944890D01*
X212742820Y-79819951D01*
X212553414Y-79723444D01*
X212553413Y-79723443D01*
X212553412Y-79723443D01*
X212524246Y-79713966D01*
X212466571Y-79674529D01*
X212439373Y-79610171D01*
X212451288Y-79541324D01*
X212498532Y-79489849D01*
X212506270Y-79485551D01*
X212637732Y-79418566D01*
X212653532Y-79407085D01*
X212653533Y-79407085D01*
X212164410Y-78917962D01*
X212227993Y-78900925D01*
X212342007Y-78835099D01*
X212435099Y-78742007D01*
X212500925Y-78627993D01*
X212517962Y-78564409D01*
X213007084Y-79053532D01*
G37*
%TD.AperFunction*%
%TA.AperFunction,Conductor*%
G36*
X195175181Y-79001627D02*
G01*
X195208666Y-79062950D01*
X195211500Y-79089308D01*
X195211500Y-79758631D01*
X195191815Y-79825670D01*
X195139011Y-79871425D01*
X195069853Y-79881369D01*
X195014616Y-79858950D01*
X194967818Y-79824950D01*
X194778414Y-79728444D01*
X194778413Y-79728443D01*
X194778412Y-79728443D01*
X194749246Y-79718966D01*
X194691571Y-79679529D01*
X194664373Y-79615171D01*
X194676288Y-79546324D01*
X194723532Y-79494849D01*
X194731270Y-79490551D01*
X194862732Y-79423566D01*
X194878532Y-79412085D01*
X194878533Y-79412085D01*
X194389410Y-78922962D01*
X194452993Y-78905925D01*
X194567007Y-78840099D01*
X194660099Y-78747007D01*
X194725925Y-78632993D01*
X194742962Y-78569408D01*
X195175181Y-79001627D01*
G37*
%TD.AperFunction*%
%TA.AperFunction,Conductor*%
G36*
X193350703Y-76901045D02*
G01*
X193357181Y-76907077D01*
X193380213Y-76930109D01*
X193552179Y-77055048D01*
X193552181Y-77055049D01*
X193552184Y-77055051D01*
X193741588Y-77151557D01*
X193770753Y-77161033D01*
X193828426Y-77200468D01*
X193855625Y-77264826D01*
X193843712Y-77333673D01*
X193796469Y-77385149D01*
X193788730Y-77389447D01*
X193657269Y-77456431D01*
X193641466Y-77467912D01*
X193641466Y-77467913D01*
X194130590Y-77957037D01*
X194067007Y-77974075D01*
X193952993Y-78039901D01*
X193859901Y-78132993D01*
X193794075Y-78247007D01*
X193777037Y-78310590D01*
X193287912Y-77821465D01*
X193279228Y-77822149D01*
X193210851Y-77807784D01*
X193161094Y-77758733D01*
X193145500Y-77698531D01*
X193145500Y-76994758D01*
X193165185Y-76927719D01*
X193217989Y-76881964D01*
X193287147Y-76872020D01*
X193350703Y-76901045D01*
G37*
%TD.AperFunction*%
%TA.AperFunction,Conductor*%
G36*
X213063834Y-76878576D02*
G01*
X213119767Y-76920448D01*
X213144184Y-76985912D01*
X213144500Y-76994758D01*
X213144500Y-77693138D01*
X213124815Y-77760177D01*
X213072011Y-77805932D01*
X213010773Y-77816756D01*
X213007086Y-77816465D01*
X212517962Y-78305589D01*
X212500925Y-78242007D01*
X212435099Y-78127993D01*
X212342007Y-78034901D01*
X212227993Y-77969075D01*
X212164408Y-77952037D01*
X212653533Y-77462913D01*
X212637727Y-77451429D01*
X212506269Y-77384447D01*
X212455474Y-77336473D01*
X212438679Y-77268651D01*
X212461217Y-77202517D01*
X212515932Y-77159066D01*
X212524216Y-77156043D01*
X212553412Y-77146557D01*
X212742816Y-77050051D01*
X212818921Y-76994758D01*
X212914786Y-76925109D01*
X212914788Y-76925106D01*
X212914792Y-76925104D01*
X212932819Y-76907077D01*
X212994142Y-76873592D01*
X213063834Y-76878576D01*
G37*
%TD.AperFunction*%
%TA.AperFunction,Conductor*%
G36*
X198131881Y-59805185D02*
G01*
X198177636Y-59857989D01*
X198187580Y-59927147D01*
X198167944Y-59978391D01*
X198116052Y-60056051D01*
X198116047Y-60056060D01*
X198055743Y-60201648D01*
X198055741Y-60201656D01*
X198025000Y-60356202D01*
X198025000Y-60485000D01*
X198525000Y-60485000D01*
X198525000Y-60985000D01*
X198025000Y-60985000D01*
X198025000Y-61113797D01*
X198055741Y-61268343D01*
X198055743Y-61268351D01*
X198116047Y-61413939D01*
X198116052Y-61413948D01*
X198203598Y-61544969D01*
X198203601Y-61544973D01*
X198315026Y-61656398D01*
X198315034Y-61656404D01*
X198446047Y-61743944D01*
X198446065Y-61743954D01*
X198574999Y-61797360D01*
X198575000Y-61797360D01*
X198575000Y-61201988D01*
X198584940Y-61219205D01*
X198640795Y-61275060D01*
X198709204Y-61314556D01*
X198785504Y-61335000D01*
X198864496Y-61335000D01*
X198940796Y-61314556D01*
X199009205Y-61275060D01*
X199065060Y-61219205D01*
X199075000Y-61201988D01*
X199075000Y-61797360D01*
X199203934Y-61743954D01*
X199203952Y-61743944D01*
X199334965Y-61656404D01*
X199334973Y-61656398D01*
X199446398Y-61544973D01*
X199446401Y-61544969D01*
X199533947Y-61413948D01*
X199533952Y-61413939D01*
X199594256Y-61268351D01*
X199594258Y-61268343D01*
X199624999Y-61113797D01*
X199625000Y-61113794D01*
X199625000Y-60985000D01*
X199125000Y-60985000D01*
X199125000Y-60485000D01*
X199625000Y-60485000D01*
X199625000Y-60356206D01*
X199624999Y-60356202D01*
X199594258Y-60201656D01*
X199594256Y-60201648D01*
X199533952Y-60056060D01*
X199533947Y-60056051D01*
X199482056Y-59978391D01*
X199461178Y-59911714D01*
X199479662Y-59844333D01*
X199531641Y-59797643D01*
X199585158Y-59785500D01*
X206704842Y-59785500D01*
X206771881Y-59805185D01*
X206817636Y-59857989D01*
X206827580Y-59927147D01*
X206807944Y-59978391D01*
X206756052Y-60056051D01*
X206756047Y-60056060D01*
X206695743Y-60201648D01*
X206695741Y-60201656D01*
X206665000Y-60356202D01*
X206665000Y-60485000D01*
X207165000Y-60485000D01*
X207165000Y-60985000D01*
X206665000Y-60985000D01*
X206665000Y-61113797D01*
X206695741Y-61268343D01*
X206695743Y-61268351D01*
X206756047Y-61413939D01*
X206756052Y-61413948D01*
X206843598Y-61544969D01*
X206843601Y-61544973D01*
X206869010Y-61570382D01*
X206902495Y-61631705D01*
X206897511Y-61701397D01*
X206869010Y-61745744D01*
X204848576Y-63766181D01*
X204787253Y-63799666D01*
X204760895Y-63802500D01*
X201276056Y-63802500D01*
X201117941Y-63802500D01*
X200965214Y-63843423D01*
X200965213Y-63843423D01*
X200965211Y-63843424D01*
X200965208Y-63843425D01*
X200919259Y-63869954D01*
X200919246Y-63869962D01*
X200915094Y-63872360D01*
X200828283Y-63922480D01*
X200796906Y-63953856D01*
X200787447Y-63960343D01*
X200764686Y-63967772D01*
X200743674Y-63979245D01*
X200732078Y-63978415D01*
X200721026Y-63982023D01*
X200697861Y-63975966D01*
X200673982Y-63974258D01*
X200662088Y-63966614D01*
X200653428Y-63964350D01*
X200645990Y-63956268D01*
X200629639Y-63945759D01*
X200608367Y-63924487D01*
X200608365Y-63924485D01*
X200533634Y-63881339D01*
X200477136Y-63848719D01*
X200403950Y-63829109D01*
X200330766Y-63809500D01*
X200179234Y-63809500D01*
X200032863Y-63848719D01*
X199901635Y-63924485D01*
X199901632Y-63924487D01*
X199794487Y-64031632D01*
X199794481Y-64031641D01*
X199779499Y-64057589D01*
X199728931Y-64105803D01*
X199660324Y-64119024D01*
X199595460Y-64093054D01*
X199557553Y-64043038D01*
X199533954Y-63986064D01*
X199533947Y-63986051D01*
X199446401Y-63855030D01*
X199446398Y-63855026D01*
X199334973Y-63743601D01*
X199334969Y-63743598D01*
X199203948Y-63656052D01*
X199203938Y-63656047D01*
X199075000Y-63602639D01*
X199075000Y-64198011D01*
X199065060Y-64180795D01*
X199009205Y-64124940D01*
X198940796Y-64085444D01*
X198864496Y-64065000D01*
X198785504Y-64065000D01*
X198709204Y-64085444D01*
X198640795Y-64124940D01*
X198584940Y-64180795D01*
X198575000Y-64198011D01*
X198575000Y-63602639D01*
X198574999Y-63602639D01*
X198446061Y-63656047D01*
X198446051Y-63656052D01*
X198315030Y-63743598D01*
X198315026Y-63743601D01*
X198203601Y-63855026D01*
X198203598Y-63855030D01*
X198116052Y-63986051D01*
X198116047Y-63986060D01*
X198055743Y-64131648D01*
X198055741Y-64131656D01*
X198025000Y-64286202D01*
X198025000Y-64665000D01*
X198525000Y-64665000D01*
X198525000Y-65165000D01*
X198025000Y-65165000D01*
X198025000Y-65543797D01*
X198055741Y-65698343D01*
X198055743Y-65698351D01*
X198116047Y-65843939D01*
X198116052Y-65843948D01*
X198203598Y-65974969D01*
X198203601Y-65974973D01*
X198315026Y-66086398D01*
X198315034Y-66086404D01*
X198446047Y-66173944D01*
X198446065Y-66173954D01*
X198574999Y-66227360D01*
X198575000Y-66227360D01*
X198575000Y-65631988D01*
X198584940Y-65649205D01*
X198640795Y-65705060D01*
X198709204Y-65744556D01*
X198785504Y-65765000D01*
X198864496Y-65765000D01*
X198940796Y-65744556D01*
X199009205Y-65705060D01*
X199065060Y-65649205D01*
X199075000Y-65631988D01*
X199075000Y-66227359D01*
X199123547Y-66207251D01*
X199193017Y-66199782D01*
X199255496Y-66231057D01*
X199291148Y-66291146D01*
X199295000Y-66321812D01*
X199295000Y-66599785D01*
X199295002Y-66599808D01*
X199297908Y-66624869D01*
X199297909Y-66624873D01*
X199343211Y-66727474D01*
X199343214Y-66727479D01*
X199396396Y-66780661D01*
X199429881Y-66841984D01*
X199424897Y-66911676D01*
X199383025Y-66967609D01*
X199347719Y-66986048D01*
X199251305Y-67017996D01*
X199251294Y-67018001D01*
X199106959Y-67107029D01*
X199106955Y-67107032D01*
X198987032Y-67226955D01*
X198977252Y-67242811D01*
X198925302Y-67289534D01*
X198856340Y-67300754D01*
X198796789Y-67276515D01*
X198719727Y-67218076D01*
X198585467Y-67165131D01*
X198501102Y-67155000D01*
X198485000Y-67155000D01*
X198485000Y-68705000D01*
X198501102Y-68705000D01*
X198585467Y-68694868D01*
X198585468Y-68694868D01*
X198719729Y-68641922D01*
X198796789Y-68583485D01*
X198862100Y-68558661D01*
X198930464Y-68573088D01*
X198977253Y-68617190D01*
X198987032Y-68633044D01*
X199106956Y-68752968D01*
X199180183Y-68798135D01*
X199190378Y-68808631D01*
X199200654Y-68813929D01*
X199222471Y-68841672D01*
X199235238Y-68863785D01*
X199304477Y-68983712D01*
X199304479Y-68983715D01*
X199304480Y-68983716D01*
X199416284Y-69095520D01*
X199416285Y-69095521D01*
X199963783Y-69643019D01*
X199963785Y-69643020D01*
X199963789Y-69643023D01*
X200088878Y-69715242D01*
X200100715Y-69722076D01*
X200253442Y-69763000D01*
X200273278Y-69763000D01*
X200340317Y-69782685D01*
X200386072Y-69835489D01*
X200392354Y-69852405D01*
X200438253Y-70010392D01*
X200438255Y-70010395D01*
X200438256Y-70010397D01*
X200472732Y-70068693D01*
X200490000Y-70131813D01*
X200490000Y-70787500D01*
X200839999Y-70787500D01*
X200839999Y-70524071D01*
X200859684Y-70457032D01*
X200912488Y-70411277D01*
X200971852Y-70400789D01*
X200971868Y-70400403D01*
X200973644Y-70400472D01*
X200973745Y-70400455D01*
X200974292Y-70400498D01*
X200974295Y-70400498D01*
X200974306Y-70400499D01*
X201215500Y-70400499D01*
X201282539Y-70420184D01*
X201328294Y-70472988D01*
X201339500Y-70524499D01*
X201339500Y-71690701D01*
X201342401Y-71727567D01*
X201342402Y-71727573D01*
X201388254Y-71885393D01*
X201388255Y-71885396D01*
X201388256Y-71885398D01*
X201408473Y-71919583D01*
X201471917Y-72026862D01*
X201471923Y-72026870D01*
X201503180Y-72058126D01*
X201517885Y-72085056D01*
X201534477Y-72110873D01*
X201535368Y-72117071D01*
X201536666Y-72119448D01*
X201539500Y-72145808D01*
X201539500Y-72315976D01*
X201519815Y-72383015D01*
X201467011Y-72428770D01*
X201454508Y-72433680D01*
X201434177Y-72440417D01*
X201411305Y-72447996D01*
X201411294Y-72448001D01*
X201266959Y-72537029D01*
X201266955Y-72537032D01*
X201147032Y-72656955D01*
X201137252Y-72672811D01*
X201085302Y-72719534D01*
X201016340Y-72730754D01*
X200956789Y-72706515D01*
X200879727Y-72648076D01*
X200745467Y-72595131D01*
X200661102Y-72585000D01*
X200645000Y-72585000D01*
X200645000Y-74135000D01*
X200661102Y-74135000D01*
X200745467Y-74124868D01*
X200745468Y-74124868D01*
X200879729Y-74071922D01*
X200956789Y-74013485D01*
X201022100Y-73988661D01*
X201090464Y-74003088D01*
X201137253Y-74047190D01*
X201147031Y-74063043D01*
X201266955Y-74182967D01*
X201266959Y-74182970D01*
X201411294Y-74271998D01*
X201411297Y-74271999D01*
X201411303Y-74272003D01*
X201572292Y-74325349D01*
X201671655Y-74335500D01*
X202019902Y-74335499D01*
X202086941Y-74355183D01*
X202107583Y-74371818D01*
X202928948Y-75193183D01*
X202962433Y-75254506D01*
X202957449Y-75324198D01*
X202915577Y-75380131D01*
X202850113Y-75404548D01*
X202830046Y-75404355D01*
X202791213Y-75400826D01*
X202776616Y-75399500D01*
X202263384Y-75399500D01*
X202244145Y-75401248D01*
X202192807Y-75405913D01*
X202030393Y-75456522D01*
X201884811Y-75544530D01*
X201764530Y-75664811D01*
X201676522Y-75810393D01*
X201625913Y-75972807D01*
X201619500Y-76043386D01*
X201619500Y-77756615D01*
X201621105Y-77774280D01*
X201607568Y-77842825D01*
X201559121Y-77893170D01*
X201497614Y-77909500D01*
X199140665Y-77909500D01*
X199073626Y-77889815D01*
X199027871Y-77837011D01*
X199017375Y-77772245D01*
X199019999Y-77747828D01*
X199020000Y-77747827D01*
X199020000Y-77150000D01*
X198444000Y-77150000D01*
X198376961Y-77130315D01*
X198331206Y-77077511D01*
X198320000Y-77026000D01*
X198320000Y-76900000D01*
X198194000Y-76900000D01*
X198126961Y-76880315D01*
X198081206Y-76827511D01*
X198070000Y-76776000D01*
X198070000Y-76650000D01*
X198570000Y-76650000D01*
X199020000Y-76650000D01*
X199020000Y-76052172D01*
X199019999Y-76052155D01*
X199013598Y-75992627D01*
X199013596Y-75992620D01*
X198963354Y-75857913D01*
X198963350Y-75857906D01*
X198877190Y-75742812D01*
X198877187Y-75742809D01*
X198762093Y-75656649D01*
X198762086Y-75656645D01*
X198627380Y-75606403D01*
X198627373Y-75606401D01*
X198570000Y-75600232D01*
X198570000Y-76650000D01*
X198070000Y-76650000D01*
X198070000Y-75600233D01*
X198069999Y-75600232D01*
X198012626Y-75606401D01*
X198012619Y-75606403D01*
X197877913Y-75656645D01*
X197877910Y-75656647D01*
X197818811Y-75700889D01*
X197753346Y-75725306D01*
X197685073Y-75710454D01*
X197635668Y-75661049D01*
X197620500Y-75601622D01*
X197620500Y-73651102D01*
X199645000Y-73651102D01*
X199655131Y-73735467D01*
X199655131Y-73735468D01*
X199708077Y-73869729D01*
X199795278Y-73984721D01*
X199910270Y-74071922D01*
X200044532Y-74124868D01*
X200128898Y-74135000D01*
X200145000Y-74135000D01*
X200145000Y-73610000D01*
X199645000Y-73610000D01*
X199645000Y-73651102D01*
X197620500Y-73651102D01*
X197620500Y-73068897D01*
X199645000Y-73068897D01*
X199645000Y-73110000D01*
X200145000Y-73110000D01*
X200145000Y-72585000D01*
X200128898Y-72585000D01*
X200044532Y-72595131D01*
X200044531Y-72595131D01*
X199910270Y-72648077D01*
X199795278Y-72735278D01*
X199708077Y-72850270D01*
X199655131Y-72984531D01*
X199655131Y-72984532D01*
X199645000Y-73068897D01*
X197620500Y-73068897D01*
X197620500Y-71679196D01*
X199640001Y-71679196D01*
X199642851Y-71709606D01*
X199687653Y-71837645D01*
X199768207Y-71946792D01*
X199877354Y-72027346D01*
X199990000Y-72066761D01*
X199990000Y-72066760D01*
X200490000Y-72066760D01*
X200602645Y-72027346D01*
X200711792Y-71946792D01*
X200792346Y-71837645D01*
X200837149Y-71709604D01*
X200837149Y-71709600D01*
X200840000Y-71679206D01*
X200840000Y-71287500D01*
X200490000Y-71287500D01*
X200490000Y-72066760D01*
X199990000Y-72066760D01*
X199990000Y-71287500D01*
X199640001Y-71287500D01*
X199640001Y-71679196D01*
X197620500Y-71679196D01*
X197620500Y-70960943D01*
X197619690Y-70957922D01*
X197619687Y-70957911D01*
X197611213Y-70926287D01*
X197602578Y-70894058D01*
X197579577Y-70808216D01*
X197559879Y-70774097D01*
X197500524Y-70671290D01*
X197500521Y-70671286D01*
X197500520Y-70671284D01*
X197388716Y-70559480D01*
X197388715Y-70559479D01*
X197384385Y-70555149D01*
X197384374Y-70555139D01*
X197225028Y-70395793D01*
X199640000Y-70395793D01*
X199640000Y-70787500D01*
X199990000Y-70787500D01*
X199990000Y-70008237D01*
X199989999Y-70008237D01*
X199877355Y-70047653D01*
X199768207Y-70128207D01*
X199687653Y-70237354D01*
X199642850Y-70365395D01*
X199642850Y-70365399D01*
X199640000Y-70395793D01*
X197225028Y-70395793D01*
X195593757Y-68764522D01*
X195586668Y-68751540D01*
X195575700Y-68741614D01*
X195570260Y-68721491D01*
X195560272Y-68703199D01*
X195561012Y-68687280D01*
X195557467Y-68674165D01*
X195563194Y-68640371D01*
X195563242Y-68639347D01*
X195563314Y-68639119D01*
X195577246Y-68596243D01*
X195577575Y-68594162D01*
X195579609Y-68587752D01*
X195596741Y-68562317D01*
X195612003Y-68535725D01*
X195616078Y-68533610D01*
X195618643Y-68529803D01*
X195646799Y-68517671D01*
X195674022Y-68503548D01*
X195678594Y-68503972D01*
X195682811Y-68502156D01*
X195713059Y-68507173D01*
X195743593Y-68510009D01*
X195748124Y-68512989D01*
X195751738Y-68513589D01*
X195758927Y-68520095D01*
X195785486Y-68537565D01*
X195899707Y-68651786D01*
X195899711Y-68651789D01*
X196030814Y-68739390D01*
X196030827Y-68739397D01*
X196176498Y-68799735D01*
X196176503Y-68799737D01*
X196331153Y-68830499D01*
X196331156Y-68830500D01*
X196331158Y-68830500D01*
X196488844Y-68830500D01*
X196488845Y-68830499D01*
X196643497Y-68799737D01*
X196769271Y-68747640D01*
X196789172Y-68739397D01*
X196789172Y-68739396D01*
X196789179Y-68739394D01*
X196920289Y-68651789D01*
X197031789Y-68540289D01*
X197119394Y-68409179D01*
X197148927Y-68337876D01*
X197192765Y-68283476D01*
X197219098Y-68269548D01*
X197228941Y-68265774D01*
X197243497Y-68262879D01*
X197330587Y-68226805D01*
X197332080Y-68226233D01*
X197365325Y-68223551D01*
X197398485Y-68219986D01*
X197400016Y-68220752D01*
X197401724Y-68220615D01*
X197431138Y-68236330D01*
X197460965Y-68251261D01*
X197461839Y-68252734D01*
X197463349Y-68253541D01*
X197479593Y-68282657D01*
X197489399Y-68299184D01*
X197492216Y-68298074D01*
X197548077Y-68439729D01*
X197635278Y-68554721D01*
X197750270Y-68641922D01*
X197884532Y-68694868D01*
X197968898Y-68705000D01*
X197985000Y-68705000D01*
X197985000Y-67155000D01*
X197968898Y-67155000D01*
X197884533Y-67165131D01*
X197884530Y-67165132D01*
X197873500Y-67169482D01*
X197842730Y-67172258D01*
X197812237Y-67177118D01*
X197808251Y-67175370D01*
X197803913Y-67175762D01*
X197776523Y-67161460D01*
X197748247Y-67149064D01*
X197744916Y-67144957D01*
X197741978Y-67143423D01*
X197724730Y-67122746D01*
X197720220Y-67115958D01*
X197719394Y-67113963D01*
X197631789Y-66982853D01*
X197631781Y-66982845D01*
X197631217Y-66981996D01*
X197620844Y-66948563D01*
X197610520Y-66915589D01*
X197610517Y-66915274D01*
X197610514Y-66915264D01*
X197610516Y-66915253D01*
X197610500Y-66913376D01*
X197610500Y-63330944D01*
X197610499Y-63330940D01*
X197603894Y-63306287D01*
X197569577Y-63178215D01*
X197533624Y-63115943D01*
X197490520Y-63041284D01*
X197378716Y-62929480D01*
X197378715Y-62929479D01*
X197374385Y-62925149D01*
X197374374Y-62925139D01*
X195646818Y-61197583D01*
X195632114Y-61170655D01*
X195615522Y-61144837D01*
X195614630Y-61138636D01*
X195613333Y-61136260D01*
X195610499Y-61109902D01*
X195610499Y-59909500D01*
X195630184Y-59842461D01*
X195682988Y-59796706D01*
X195734499Y-59785500D01*
X198064842Y-59785500D01*
X198131881Y-59805185D01*
G37*
%TD.AperFunction*%
%TA.AperFunction,Conductor*%
G36*
X203033340Y-67476185D02*
G01*
X203053982Y-67492819D01*
X203132349Y-67571186D01*
X203132355Y-67571191D01*
X205172181Y-69611017D01*
X205205666Y-69672340D01*
X205208500Y-69698698D01*
X205208500Y-70315246D01*
X205208426Y-70319518D01*
X205200304Y-70555139D01*
X205198551Y-70605977D01*
X205195846Y-70616066D01*
X205195832Y-70684839D01*
X205195758Y-70686986D01*
X205193464Y-70753559D01*
X205193507Y-70754005D01*
X205195816Y-70764927D01*
X205195815Y-70774181D01*
X205205134Y-70808986D01*
X205205817Y-70812216D01*
X205205560Y-70815528D01*
X205208500Y-70837871D01*
X205208500Y-70974182D01*
X205204281Y-71006252D01*
X205195607Y-71038649D01*
X205194547Y-71046711D01*
X205194309Y-71046679D01*
X205193738Y-71051712D01*
X205193977Y-71051735D01*
X205193201Y-71059829D01*
X205195546Y-71126075D01*
X205195624Y-71130434D01*
X205195638Y-71196766D01*
X205196700Y-71204820D01*
X205196462Y-71204851D01*
X205198914Y-71221220D01*
X205208422Y-71489817D01*
X205208500Y-71494204D01*
X205208500Y-75474902D01*
X205188815Y-75541941D01*
X205136011Y-75587696D01*
X205066853Y-75597640D01*
X205003297Y-75568615D01*
X204996819Y-75562583D01*
X202931818Y-73497582D01*
X202898333Y-73436259D01*
X202895499Y-73409901D01*
X202895499Y-73061662D01*
X202895498Y-73061644D01*
X202885349Y-72962292D01*
X202885348Y-72962289D01*
X202882572Y-72953913D01*
X202832003Y-72801303D01*
X202831999Y-72801297D01*
X202831998Y-72801294D01*
X202758962Y-72682885D01*
X202740500Y-72617788D01*
X202740500Y-72145808D01*
X202760185Y-72078769D01*
X202776820Y-72058126D01*
X202808076Y-72026870D01*
X202808081Y-72026865D01*
X202891744Y-71885398D01*
X202937598Y-71727569D01*
X202940500Y-71690694D01*
X202940500Y-70384306D01*
X202937598Y-70347431D01*
X202929488Y-70319518D01*
X202891745Y-70189606D01*
X202891744Y-70189603D01*
X202891744Y-70189602D01*
X202808081Y-70048135D01*
X202808079Y-70048133D01*
X202808076Y-70048129D01*
X202691870Y-69931923D01*
X202691862Y-69931917D01*
X202557689Y-69852568D01*
X202550398Y-69848256D01*
X202550397Y-69848255D01*
X202550396Y-69848255D01*
X202550393Y-69848254D01*
X202392573Y-69802402D01*
X202392567Y-69802401D01*
X202355701Y-69799500D01*
X202355694Y-69799500D01*
X202114500Y-69799500D01*
X202047461Y-69779815D01*
X202001706Y-69727011D01*
X201990500Y-69675500D01*
X201990500Y-68564499D01*
X202010185Y-68497460D01*
X202062989Y-68451705D01*
X202114500Y-68440499D01*
X202219167Y-68440499D01*
X202219179Y-68440499D01*
X202255203Y-68437665D01*
X202409392Y-68392869D01*
X202547597Y-68311135D01*
X202661134Y-68197598D01*
X202742868Y-68059393D01*
X202787664Y-67905204D01*
X202790499Y-67869181D01*
X202790498Y-67580498D01*
X202793048Y-67571813D01*
X202791760Y-67562853D01*
X202802737Y-67538816D01*
X202810182Y-67513461D01*
X202817024Y-67507532D01*
X202820785Y-67499297D01*
X202843016Y-67485010D01*
X202862986Y-67467706D01*
X202873501Y-67465418D01*
X202879563Y-67461523D01*
X202914498Y-67456500D01*
X202966301Y-67456500D01*
X203033340Y-67476185D01*
G37*
%TD.AperFunction*%
%TA.AperFunction,Conductor*%
G36*
X210830895Y-65350853D02*
G01*
X210886828Y-65392725D01*
X210911245Y-65458189D01*
X210910034Y-65486433D01*
X210885000Y-65644493D01*
X210885000Y-65825506D01*
X210913317Y-66004293D01*
X210969251Y-66176444D01*
X210969252Y-66176447D01*
X211051431Y-66337730D01*
X211062913Y-66353532D01*
X211062913Y-66353533D01*
X211552037Y-65864408D01*
X211569075Y-65927993D01*
X211634901Y-66042007D01*
X211727993Y-66135099D01*
X211842007Y-66200925D01*
X211905590Y-66217962D01*
X211416466Y-66707085D01*
X211416466Y-66707086D01*
X211432267Y-66718566D01*
X211432275Y-66718571D01*
X211563729Y-66785551D01*
X211614525Y-66833526D01*
X211631320Y-66901347D01*
X211608782Y-66967482D01*
X211554067Y-67010933D01*
X211545761Y-67013964D01*
X211535716Y-67017227D01*
X211516583Y-67023444D01*
X211327179Y-67119951D01*
X211155213Y-67244890D01*
X211004890Y-67395213D01*
X210879951Y-67567179D01*
X210783444Y-67756585D01*
X210717753Y-67958760D01*
X210695479Y-68099393D01*
X210684500Y-68168713D01*
X210684500Y-68381287D01*
X210693756Y-68439729D01*
X210717754Y-68591244D01*
X210717754Y-68591247D01*
X210731491Y-68633523D01*
X210733486Y-68703364D01*
X210701241Y-68759522D01*
X209680181Y-69780583D01*
X209618858Y-69814068D01*
X209549166Y-69809084D01*
X209493233Y-69767212D01*
X209468816Y-69701748D01*
X209468500Y-69692902D01*
X209468500Y-66662096D01*
X209488185Y-66595057D01*
X209504814Y-66574420D01*
X210699880Y-65379353D01*
X210761203Y-65345869D01*
X210830895Y-65350853D01*
G37*
%TD.AperFunction*%
%TA.AperFunction,Conductor*%
G36*
X195572981Y-65366773D02*
G01*
X195595119Y-65384354D01*
X195773181Y-65562416D01*
X195806666Y-65623739D01*
X195809500Y-65650097D01*
X195809500Y-67450234D01*
X195804689Y-67466993D01*
X195804892Y-67483723D01*
X195791586Y-67512638D01*
X195790621Y-67516003D01*
X195788451Y-67519470D01*
X195788211Y-67519711D01*
X195700606Y-67650821D01*
X195689507Y-67677616D01*
X195684019Y-67686388D01*
X195665311Y-67703000D01*
X195649613Y-67722478D01*
X195639637Y-67725797D01*
X195631774Y-67732780D01*
X195607054Y-67736640D01*
X195583318Y-67744540D01*
X195573130Y-67741939D01*
X195562741Y-67743562D01*
X195539859Y-67733445D01*
X195515620Y-67727258D01*
X195508366Y-67719522D01*
X195498838Y-67715310D01*
X195485581Y-67695223D01*
X195468413Y-67676913D01*
X195415050Y-67572182D01*
X195290109Y-67400213D01*
X195139786Y-67249890D01*
X194967820Y-67124951D01*
X194778414Y-67028444D01*
X194778413Y-67028443D01*
X194778412Y-67028443D01*
X194749246Y-67018966D01*
X194691571Y-66979529D01*
X194664373Y-66915171D01*
X194676288Y-66846324D01*
X194723532Y-66794849D01*
X194731270Y-66790551D01*
X194862732Y-66723566D01*
X194878532Y-66712085D01*
X194878533Y-66712085D01*
X194389410Y-66222962D01*
X194452993Y-66205925D01*
X194567007Y-66140099D01*
X194660099Y-66047007D01*
X194725925Y-65932993D01*
X194742962Y-65869409D01*
X195232085Y-66358532D01*
X195243568Y-66342730D01*
X195325745Y-66181452D01*
X195325748Y-66181444D01*
X195381682Y-66009293D01*
X195410000Y-65830506D01*
X195410000Y-65649494D01*
X195384965Y-65491433D01*
X195393919Y-65422140D01*
X195438915Y-65368688D01*
X195505667Y-65348048D01*
X195572981Y-65366773D01*
G37*
%TD.AperFunction*%
%TA.AperFunction,Conductor*%
G36*
X193794075Y-65932993D02*
G01*
X193859901Y-66047007D01*
X193952993Y-66140099D01*
X194067007Y-66205925D01*
X194130590Y-66222962D01*
X193641466Y-66712085D01*
X193641466Y-66712086D01*
X193657267Y-66723566D01*
X193657275Y-66723571D01*
X193788729Y-66790551D01*
X193839525Y-66838526D01*
X193856320Y-66906347D01*
X193833782Y-66972482D01*
X193779067Y-67015933D01*
X193770761Y-67018964D01*
X193760716Y-67022227D01*
X193741583Y-67028444D01*
X193552179Y-67124951D01*
X193380213Y-67249890D01*
X193380209Y-67249894D01*
X193357181Y-67272923D01*
X193295858Y-67306408D01*
X193226166Y-67301424D01*
X193170233Y-67259552D01*
X193145816Y-67194088D01*
X193145500Y-67185242D01*
X193145500Y-66481467D01*
X193165185Y-66414428D01*
X193217989Y-66368673D01*
X193279230Y-66357849D01*
X193287914Y-66358532D01*
X193777037Y-65869409D01*
X193794075Y-65932993D01*
G37*
%TD.AperFunction*%
%TA.AperFunction,Conductor*%
G36*
X213007084Y-66353532D02*
G01*
X213010772Y-66353242D01*
X213079149Y-66367606D01*
X213128905Y-66416658D01*
X213144500Y-66476860D01*
X213144500Y-67175242D01*
X213124815Y-67242281D01*
X213072011Y-67288036D01*
X213002853Y-67297980D01*
X212939297Y-67268955D01*
X212932819Y-67262923D01*
X212914786Y-67244890D01*
X212742820Y-67119951D01*
X212553414Y-67023444D01*
X212553413Y-67023443D01*
X212553412Y-67023443D01*
X212524246Y-67013966D01*
X212466571Y-66974529D01*
X212439373Y-66910171D01*
X212451288Y-66841324D01*
X212498532Y-66789849D01*
X212506270Y-66785551D01*
X212637732Y-66718566D01*
X212653532Y-66707085D01*
X212653533Y-66707085D01*
X212164410Y-66217962D01*
X212227993Y-66200925D01*
X212342007Y-66135099D01*
X212435099Y-66042007D01*
X212500925Y-65927993D01*
X212517962Y-65864410D01*
X213007084Y-66353532D01*
G37*
%TD.AperFunction*%
%TA.AperFunction,Conductor*%
G36*
X206588039Y-65849685D02*
G01*
X206633794Y-65902489D01*
X206645000Y-65954000D01*
X206645000Y-66809073D01*
X206625315Y-66876112D01*
X206572511Y-66921867D01*
X206503353Y-66931811D01*
X206457881Y-66915806D01*
X206413444Y-66889527D01*
X206365759Y-66838459D01*
X206353254Y-66769717D01*
X206360381Y-66739461D01*
X206364852Y-66727474D01*
X206389092Y-66662483D01*
X206395501Y-66602873D01*
X206395500Y-65953998D01*
X206398050Y-65945313D01*
X206396762Y-65936353D01*
X206407739Y-65912316D01*
X206415184Y-65886961D01*
X206422026Y-65881032D01*
X206425787Y-65872797D01*
X206448018Y-65858510D01*
X206467988Y-65841206D01*
X206478503Y-65838918D01*
X206484565Y-65835023D01*
X206519500Y-65830000D01*
X206521000Y-65830000D01*
X206588039Y-65849685D01*
G37*
%TD.AperFunction*%
%TA.AperFunction,Conductor*%
G36*
X199837538Y-65599685D02*
G01*
X199883293Y-65652489D01*
X199894499Y-65704000D01*
X199894499Y-66434903D01*
X199874814Y-66501942D01*
X199858180Y-66522584D01*
X199856681Y-66524083D01*
X199795358Y-66557568D01*
X199725666Y-66552584D01*
X199669733Y-66510712D01*
X199645316Y-66445248D01*
X199645000Y-66436402D01*
X199645000Y-66080000D01*
X199289000Y-66080000D01*
X199221961Y-66060315D01*
X199176206Y-66007511D01*
X199165000Y-65956000D01*
X199165000Y-65704000D01*
X199184685Y-65636961D01*
X199237489Y-65591206D01*
X199289000Y-65580000D01*
X199770499Y-65580000D01*
X199837538Y-65599685D01*
G37*
%TD.AperFunction*%
%TA.AperFunction,Conductor*%
G36*
X193350703Y-64201045D02*
G01*
X193357181Y-64207077D01*
X193380213Y-64230109D01*
X193552179Y-64355048D01*
X193552181Y-64355049D01*
X193552184Y-64355051D01*
X193741588Y-64451557D01*
X193770753Y-64461033D01*
X193828426Y-64500468D01*
X193855625Y-64564826D01*
X193843712Y-64633673D01*
X193796469Y-64685149D01*
X193788730Y-64689447D01*
X193657269Y-64756431D01*
X193641466Y-64767912D01*
X193641466Y-64767913D01*
X194130590Y-65257037D01*
X194067007Y-65274075D01*
X193952993Y-65339901D01*
X193859901Y-65432993D01*
X193794075Y-65547007D01*
X193777037Y-65610590D01*
X193287912Y-65121465D01*
X193279228Y-65122149D01*
X193210851Y-65107784D01*
X193161094Y-65058733D01*
X193145500Y-64998531D01*
X193145500Y-64294758D01*
X193165185Y-64227719D01*
X193217989Y-64181964D01*
X193287147Y-64172020D01*
X193350703Y-64201045D01*
G37*
%TD.AperFunction*%
%TA.AperFunction,Conductor*%
G36*
X213063834Y-64178576D02*
G01*
X213119767Y-64220448D01*
X213144184Y-64285912D01*
X213144500Y-64294758D01*
X213144500Y-64993138D01*
X213124815Y-65060177D01*
X213072011Y-65105932D01*
X213010773Y-65116756D01*
X213007086Y-65116465D01*
X212517962Y-65605589D01*
X212500925Y-65542007D01*
X212435099Y-65427993D01*
X212342007Y-65334901D01*
X212227993Y-65269075D01*
X212164408Y-65252037D01*
X212653533Y-64762913D01*
X212637727Y-64751429D01*
X212506269Y-64684447D01*
X212455474Y-64636473D01*
X212438679Y-64568651D01*
X212461217Y-64502517D01*
X212515932Y-64459066D01*
X212524216Y-64456043D01*
X212553412Y-64446557D01*
X212742816Y-64350051D01*
X212779167Y-64323641D01*
X212914786Y-64225109D01*
X212914788Y-64225106D01*
X212914792Y-64225104D01*
X212932819Y-64207077D01*
X212994142Y-64173592D01*
X213063834Y-64178576D01*
G37*
%TD.AperFunction*%
%TA.AperFunction,Conductor*%
G36*
X210627539Y-59805185D02*
G01*
X210673294Y-59857989D01*
X210684500Y-59909500D01*
X210684500Y-61104901D01*
X210675857Y-61134334D01*
X210669337Y-61164320D01*
X210665577Y-61169342D01*
X210664815Y-61171940D01*
X210648188Y-61192576D01*
X210641590Y-61199175D01*
X210580269Y-61232664D01*
X210553902Y-61235500D01*
X208389000Y-61235500D01*
X208321961Y-61215815D01*
X208276206Y-61163011D01*
X208265000Y-61111500D01*
X208265000Y-60985000D01*
X207765000Y-60985000D01*
X207765000Y-60485000D01*
X208265000Y-60485000D01*
X208265000Y-60356206D01*
X208264999Y-60356202D01*
X208234258Y-60201656D01*
X208234256Y-60201648D01*
X208173952Y-60056060D01*
X208173947Y-60056051D01*
X208122056Y-59978391D01*
X208101178Y-59911714D01*
X208119662Y-59844333D01*
X208171641Y-59797643D01*
X208225158Y-59785500D01*
X210560500Y-59785500D01*
X210627539Y-59805185D01*
G37*
%TD.AperFunction*%
%TD*%
M02*
